# Blender 3.3.1
# www.blender.org
mtllib rock_flat.mtl
o pedra2
v 3.852781 0.384776 2.522856
v -4.583457 0.360241 0.112632
v -1.429618 0.190332 -4.586147
v 0.411341 2.451529 2.769264
v -2.049685 0.691871 4.075428
v -1.605069 1.445097 -3.370113
v -2.099431 3.120206 0.801460
v 4.071507 0.389513 -1.074372
v 3.257140 0.377677 -3.146997
v 3.015316 1.552670 0.683177
v 1.326450 3.069139 -0.043662
v 1.665473 2.559625 1.033459
v 0.212907 2.594859 -2.414488
v 1.757605 2.444929 -1.427324
v 1.576290 1.403828 -3.380830
v -3.053631 2.075788 2.299727
v -1.805245 1.626580 3.639675
v -1.455687 3.037214 1.833808
v 1.032945 0.278923 -4.342182
v -0.482724 0.978538 -4.131778
v -2.627412 1.423130 -2.252461
v -3.831665 1.131593 -1.054635
v -3.215857 2.233175 0.180124
v -1.950249 2.723334 -0.828440
v -3.254883 0.241897 -2.749552
v 0.903494 0.074701 2.277976
v 2.848792 0.000731 2.325785
v 1.289819 0.344335 4.277624
v -0.652167 0.539413 4.251819
v 0.683837 3.496723 -0.102538
v 2.849181 0.084329 3.827052
v -0.875217 2.966708 -1.501081
v -1.209017 0.121927 0.847529
v -0.664724 3.648573 0.094048
v -0.613506 3.550097 1.050608
v -3.559767 0.499429 2.612473
v 2.052423 0.038182 -0.467034
v -1.130343 0.025205 -1.970361
v -3.994020 0.166303 -1.409975
v 2.510193 1.284158 2.925278
v 2.719679 0.018398 1.023424
v -0.289643 0.192515 3.490543
v -1.884366 3.101998 1.426093
v 3.582759 0.039096 -0.824241
v -1.868774 0.683624 -4.227359
v -2.705500 2.676350 1.543988
v 3.888605 0.320106 -2.324598
v 2.214092 2.153354 1.004024
v -0.149515 0.127712 1.737574
v 1.442842 2.866004 0.452573
v 3.722929 0.944109 -0.088184
v 3.554576 1.007401 1.634288
v 4.226768 0.211608 0.761806
v 2.100424 0.188215 -3.830146
v 1.446169 2.530442 1.637453
v -3.226546 0.107846 0.310209
v 0.889774 2.075082 -2.923419
v 1.745607 1.973890 -2.546900
v -1.056776 0.484798 -4.691249
v -3.775175 0.643324 -1.893058
v 0.966348 2.740943 -1.906664
v 2.609100 0.885819 -3.429892
v -2.348726 1.785331 3.251838
v -0.761196 2.910450 2.230823
v -4.329409 1.120231 1.185167
v -1.073329 1.919045 3.469188
v -1.970850 1.135539 3.995060
v 1.461989 2.926933 -0.466024
v -2.070623 2.709576 2.134058
v -1.421445 2.428831 2.739673
v 2.395555 2.065398 -0.257761
v 0.004316 0.110690 -4.487710
v -0.202067 1.749914 -3.382610
v 0.197162 0.518212 -4.449590
v 0.685016 3.204501 1.166461
v -0.795469 2.042609 -2.964724
v -1.212427 1.151252 -3.910826
v -2.239318 2.132686 -1.548657
v -3.186489 1.364665 -1.602001
v -3.596105 1.694967 -0.343618
v -2.631075 2.469282 -0.428911
v -2.954338 0.768474 -2.823466
v -2.410523 0.198045 -3.886067
v -2.148654 1.413705 -2.888646
v -0.089444 3.239056 1.699893
v -2.788563 2.667414 0.523601
v -4.442320 0.783882 -0.522175
v -3.470507 2.076983 1.024492
v 0.504680 0.088193 0.220274
v -3.687878 1.104447 2.692250
v 3.637429 0.022522 2.383194
v -1.069278 0.014099 -3.465784
v 2.717074 0.038104 -2.330873
v 2.231177 0.202673 4.070386
v 1.190037 1.064975 3.995207
v 2.881840 1.269235 -2.533523
v 1.089823 3.178307 -0.873430
v 3.196056 1.283274 -1.488222
v 0.483143 3.237403 -1.223309
v -1.323345 3.478405 0.347537
v -0.016363 3.655932 -0.127929
v -1.935065 3.041664 -0.096160
v -0.695619 3.413610 -0.633327
v -0.652856 3.705496 0.564958
v 1.119106 3.268133 -0.002573
v -1.027086 3.308754 1.498259
v 0.084266 3.614523 0.639284
v -1.382165 2.893007 -1.173761
v -0.354356 2.923198 -1.846676
v -1.264672 2.290514 -2.367849
v -1.366588 3.447168 0.939736
v 1.214237 0.076830 3.590051
v 3.303712 0.200564 3.581093
v 1.499947 0.059893 0.930360
v 0.448732 0.036402 -1.502698
v -0.369837 1.277833 4.037727
v -2.576699 0.219944 2.072958
v -1.248227 0.067335 -0.592989
v 0.258899 0.419647 4.413407
v -2.608870 0.564769 3.558352
v -1.442279 0.594840 4.142841
v -4.361368 0.387423 1.506369
v 2.848116 -0.000001 3.353703
v -2.432887 0.027966 -2.412752
v 2.017284 0.023540 2.283661
v 1.525915 0.695107 -4.021544
v 0.559633 1.227258 -3.784177
v 2.465074 1.408388 -2.847141
v 2.419165 0.669670 3.813789
v -1.188274 1.244762 4.059664
v -2.796544 1.136869 3.525606
v 2.466892 1.756902 1.936187
v -3.028088 2.504832 1.111550
v -0.796220 2.432563 -2.452243
v 0.857238 3.097330 -1.339931
v -2.461013 2.769432 -0.002099
v -1.456959 3.318976 1.246341
v -0.375722 0.310198 -4.734476
v -0.558382 3.173938 1.860343
v 3.436667 0.936278 -2.239408
v 1.828500 2.562267 0.141178
v 3.103919 1.455705 -0.661523
v 4.080415 0.606024 0.801730
v -1.726316 2.216356 -2.033010
v -0.791274 1.651260 -3.428137
v -1.575357 2.140791 3.122040
v -4.277835 0.452299 -1.375235
v -2.303166 2.834427 1.741392
v -1.403777 2.685134 2.414229
v 1.217577 3.195746 -0.521222
v 0.426437 1.715805 -3.379246
v -1.469837 0.726792 -4.402719
v 0.904029 0.020622 -3.229466
v 0.266200 3.378243 1.201533
v -2.912570 1.952724 -0.985356
v -3.325409 0.901044 -2.146292
v -2.417681 0.694994 -3.631273
v -4.093194 1.410684 0.391340
v -0.017392 0.072342 -0.494763
v 0.297693 0.961325 4.266005
v -1.311163 3.288691 -0.336281
v 1.111550 3.047535 0.832815
v -0.077134 3.381010 -0.954898
v -0.156427 3.731755 0.364316
v -1.160013 3.580574 0.666234
v 1.184596 2.336030 -2.441386
v 0.746318 0.090544 0.873837
v -1.472267 0.259917 3.128491
v 3.659720 0.022881 0.829385
v -3.565130 0.180297 1.312073
v 0.384088 0.153830 3.930506
v 2.090971 0.026284 3.425230
v 2.070915 0.035375 1.327394
v 3.627876 0.051404 -1.952610
v -2.105971 0.025845 -3.445833
v 3.416314 0.017547 3.258289
v -4.367863 0.847928 1.821154
v -2.822738 0.051155 -1.043041
v 2.295283 0.524297 -3.877361
v 0.756031 0.793676 -4.118703
vn 0.4995 0.7991 -0.3345
vn 0.6349 0.6214 -0.4590
vn 0.3430 0.7408 -0.5775
vn 0.2540 0.3840 0.8877
vn 0.3951 0.3099 0.8648
vn 0.5559 0.6888 0.4654
vn 0.3494 0.7346 0.5816
vn -0.0495 0.2274 0.9726
vn 0.0541 0.6950 0.7170
vn -0.1175 0.6427 0.7570
vn -0.0946 0.1753 0.9800
vn -0.6736 -0.2090 0.7089
vn -0.5817 0.0282 0.8129
vn -0.3756 0.5947 0.7109
vn -0.5487 0.6042 0.5778
vn 0.5937 0.7374 0.3222
vn 0.6056 0.7839 0.1373
vn 0.5645 0.7986 0.2090
vn 0.4372 0.7993 0.4123
vn -0.6926 0.6831 0.2318
vn -0.5434 0.8387 0.0369
vn -0.6833 0.7264 -0.0741
vn -0.1068 0.8012 -0.5889
vn -0.3052 0.7704 -0.5598
vn -0.2934 0.8229 -0.4865
vn 0.1685 0.8503 -0.4986
vn 0.2446 0.9323 -0.2666
vn 0.5166 0.7646 -0.3854
vn -0.4907 0.7989 -0.3479
vn -0.6002 0.7575 -0.2568
vn -0.4889 0.8585 -0.1548
vn -0.1756 0.9253 0.3360
vn -0.4106 0.8907 0.1950
vn -0.2460 0.8737 0.4196
vn 0.2673 -0.0364 -0.9629
vn -0.0485 -0.5800 -0.8132
vn 0.1222 0.6754 -0.7273
vn -0.1441 0.8465 0.5126
vn 0.0612 0.8122 0.5802
vn -0.0235 0.9061 0.4225
vn 0.6030 0.7743 -0.1917
vn 0.7583 0.6423 -0.1118
vn 0.6504 0.5827 -0.4873
vn 0.6374 0.7696 0.0380
vn 0.6859 0.7227 -0.0851
vn 0.6977 0.7137 0.0619
vn 0.6276 0.7697 0.1169
vn 0.6223 0.7777 -0.0895
vn 0.6462 0.7631 -0.0124
vn 0.7165 0.6900 -0.1025
vn 0.8390 0.5145 0.1771
vn 0.8551 0.5146 -0.0634
vn 0.6616 0.7490 0.0371
vn -0.4635 0.7487 -0.4739
vn -0.5367 0.7278 -0.4268
vn -0.4963 0.7634 -0.4135
vn -0.4224 0.7918 -0.4411
vn -0.0535 0.7099 -0.7022
vn -0.2352 0.7570 -0.6096
vn -0.0731 0.7651 -0.6398
vn -0.3042 0.8218 0.4818
vn -0.1879 0.7373 0.6489
vn -0.0243 0.8140 0.5804
vn -0.8000 -0.2043 -0.5642
vn -0.9094 -0.3596 -0.2090
vn -0.6732 0.6271 -0.3919
vn -0.4332 0.8842 0.1749
vn -0.4525 0.7738 0.4433
vn -0.2543 0.8727 0.4168
vn -0.1669 0.8363 0.5222
vn -0.3029 0.6984 0.6485
vn -0.0336 0.7473 0.6637
vn 0.7189 0.6948 0.0203
vn 0.6800 0.7100 -0.1831
vn 0.4233 0.8996 -0.1070
vn 0.0694 0.6694 -0.7397
vn 0.0581 0.7443 -0.6653
vn 0.1796 0.6656 -0.7244
vn -0.4291 0.2633 -0.8640
vn -0.2739 0.7723 -0.5731
vn -0.0148 0.7589 -0.6510
vn 0.0032 -1.0000 0.0089
vn -0.0110 -0.9944 -0.1055
vn 0.1029 -0.9715 -0.2136
vn 0.1536 -0.9750 -0.1608
vn 0.0027 -1.0000 0.0052
vn 0.3485 0.8207 0.4528
vn 0.4159 0.8840 0.2135
vn 0.1217 0.9292 0.3489
vn -0.5559 0.7150 -0.4239
vn -0.6001 0.7038 -0.3801
vn -0.6080 0.7213 -0.3318
vn -0.5290 0.7438 -0.4086
vn -0.7025 0.4381 -0.5608
vn -0.6101 0.6691 -0.4243
vn -0.5790 0.6839 -0.4439
vn -0.6346 0.1797 -0.7516
vn -0.7637 0.3182 -0.5617
vn -0.5808 0.6800 -0.4475
vn -0.4993 0.7125 -0.4930
vn -0.9034 0.4281 -0.0246
vn -0.7214 0.6742 0.1580
vn -0.6947 0.7068 -0.1336
vn -0.6829 0.6844 -0.2556
vn -0.0037 -0.9994 0.0336
vn -0.0008 -0.9995 0.0325
vn -0.0169 -0.9994 0.0306
vn 0.1910 0.3246 0.9263
vn 0.1147 0.6996 0.7053
vn -0.1487 0.3031 0.9413
vn -0.3259 0.9065 -0.2685
vn -0.3579 0.8570 -0.3708
vn -0.4569 0.8189 -0.3474
vn -0.4701 0.8600 -0.1984
vn 0.4510 0.7940 0.4075
vn 0.6000 0.7702 0.2164
vn 0.6573 0.7320 0.1792
vn 0.4466 0.8690 0.2131
vn 0.1724 0.9438 -0.2820
vn 0.0198 0.8819 -0.4711
vn -0.1816 0.8929 -0.4120
vn -0.1115 0.9462 -0.3038
vn 0.0859 0.9475 0.3080
vn 0.2773 0.9607 0.0155
vn -0.0832 0.9856 -0.1469
vn -0.1711 0.9328 0.3172
vn -0.2802 0.9512 -0.1295
vn -0.4382 0.8987 0.0154
vn 0.3442 0.7343 -0.5851
vn 0.2013 0.8124 -0.5472
vn 0.4869 0.7956 -0.3606
vn -0.0163 -0.9997 0.0190
vn -0.0332 -0.9994 0.0067
vn -0.0442 -0.9990 -0.0063
vn -0.1646 -0.9616 0.2197
vn -0.0301 -0.9979 0.0569
vn -0.0665 -0.9973 0.0316
vn -0.1375 -0.9330 0.3325
vn -0.1445 -0.9306 0.3364
vn -0.0004 -0.9999 -0.0114
vn 0.4345 -0.8972 -0.0788
vn 0.5655 -0.8174 0.1102
vn 0.0147 -0.9999 -0.0069
vn -0.1647 -0.9578 0.2357
vn -0.2087 -0.9775 0.0305
vn -0.0114 -0.9976 0.0676
vn -0.2263 -0.9061 0.3575
vn -0.0782 -0.9967 0.0231
vn 0.0319 -0.9090 0.4155
vn -0.0502 -0.9987 0.0099
vn -0.0309 -0.9995 0.0020
vn -0.0489 -0.9713 0.2326
vn -0.0344 -0.9465 0.3208
vn -0.0339 -0.9994 -0.0012
vn -0.0290 -0.9995 -0.0121
vn -0.0423 -0.9990 -0.0107
vn 0.0058 -1.0000 -0.0027
vn 0.2233 -0.9205 -0.3208
vn 0.6280 -0.7780 -0.0177
vn -0.2503 -0.9613 -0.1148
vn -0.0759 -0.9795 -0.1863
vn -0.0070 -1.0000 0.0042
vn 0.0290 -0.9996 0.0004
vn 0.8577 -0.4168 0.3009
vn 0.2323 -0.9118 0.3387
vn -0.7070 0.6368 0.3076
vn -0.9911 0.0871 0.1002
vn -0.7298 -0.3166 0.6059
vn -0.1512 -0.9879 0.0339
vn -0.1363 -0.9878 -0.0759
vn -0.0026 -0.9997 0.0233
vn -0.0024 -0.9992 0.0395
vn 0.6061 0.0144 -0.7953
vn 0.3401 0.0306 -0.9399
vn 0.2809 0.6356 -0.7191
vn 0.2098 0.4822 -0.8506
vn 0.1051 0.6514 -0.7514
vn 0.1780 0.6520 -0.7370
vt 0.272728 0.157461
vt 0.818182 0.157461
vt 0.636364 0.157461
vt 0.083577 0.314921
vt 0.126930 0.409992
vt 0.181819 0.314921
vt 0.990328 0.174215
vt 0.081237 0.174215
vt 0.697745 0.234058
vt 0.836932 0.301146
vt 0.838384 0.301424
vt 0.786892 0.330226
vt 0.408324 0.157461
vt 0.380640 0.175395
vt 0.469987 0.157461
vt 0.327378 0.252118
vt 0.322705 0.314921
vt 0.388454 0.357905
vt 0.338821 0.357905
vt 0.299895 0.314921
vt 0.641330 0.287338
vt 0.709554 0.315473
vt 0.489496 0.217997
vt 0.353871 0.314921
vt 0.433549 0.314921
vt 0.520772 0.263422
vt 0.892417 0.286040
vt 0.041108 0.243720
vt 0.950199 0.243720
vt 0.871563 0.314380
vt 0.298062 0.354158
vt 0.553176 0.157461
vt 0.626304 0.217095
vt 0.744903 0.231143
vt 0.783706 0.217930
vt 0.799103 0.277145
vt 0.774462 0.297873
vt 0.712397 0.157461
vt 0.480317 0.170241
vt 0.426678 0.168789
vt 0.496861 0.172035
vt 0.362220 0.164046
vt 0.181819 0.157461
vt 0.090097 0.174926
vt 0.100993 0.174926
vt 0.646159 0.330945
vt 0.426499 0.423803
vt 0.300775 0.423803
vt 0.446832 0.414530
vt 0.215149 0.157461
vt 0.747034 0.298752
vt 0.578648 0.175819
vt 0.695654 0.176070
vt 0.810295 0.323826
vt 0.115976 0.408075
vt 0.833954 0.333204
vt 0.906619 0.176522
vt 0.530792 0.175717
vt 0.527533 0.175710
vt 0.529626 0.175366
vt 0.602362 0.168276
vt 0.765290 0.157461
vt 0.235823 0.231569
vt 0.433756 0.169618
vt 0.290655 0.172583
vt 0.263836 0.171857
vt 0.854973 0.307902
vt 0.568223 0.327791
vt 0.454087 0.175552
vt 0.455133 0.175381
vt 0.676021 0.196639
vt 0.864674 0.293593
vt 0.865400 0.293732
vt 0.425314 0.166428
vt 0.305590 0.281462
vt 0.537755 0.173927
vt 0.587986 0.173155
vt 0.311300 0.314921
vt 0.319358 0.336413
vt 0.364899 0.211459
vt 0.302777 0.215246
vt 0.340526 0.157461
vt 0.326684 0.166428
vt 0.511581 0.157461
vt 0.260028 0.310007
vt 0.755962 0.167161
vt 0.581052 0.275380
vt 0.615163 0.289447
vt 0.505135 0.240710
vt 0.477161 0.289172
vt 0.635142 0.188204
vt 0.758142 0.191246
vt 0.573978 0.311527
vt 0.500613 0.205850
vt 0.921308 0.264880
vt 0.212496 0.382075
vt 0.190820 0.334539
vt 0.852267 0.220816
vt 0.062343 0.279320
vt 0.516888 0.279320
vt 0.061173 0.208967
vt 0.970263 0.208967
vt 0.338288 0.314921
vt 0.411001 0.336413
vt 0.568521 0.317662
vt 0.515106 0.300111
vt 0.340625 0.283520
vt 0.380464 0.283520
vt 0.594770 0.157461
vt 0.633948 0.250452
vt 0.591509 0.191254
vt 0.286881 0.412261
vt 0.241297 0.369362
vt 0.677710 0.258794
vt 0.665069 0.223217
vt 0.760339 0.263244
vt 0.765587 0.228759
vt 0.798546 0.247788
vt 0.784551 0.283592
vt 0.727688 0.198100
vt 0.674381 0.157461
vt 0.723641 0.231168
vt 0.121453 0.409034
vt 0.480442 0.371598
vt 0.818018 0.289146
vt 0.792998 0.303685
vt 0.801534 0.199091
vt 0.839421 0.270863
vt 0.554720 0.175768
vt 0.900976 0.220657
vt 0.317474 0.160753
vt 0.613401 0.162492
vt 0.502834 0.166517
vt 0.198484 0.157461
vt 0.182414 0.218907
vt 0.473947 0.194077
vt 0.539854 0.322933
vt 0.430024 0.369362
vt 0.435068 0.196696
vt 0.420937 0.236191
vt 0.677856 0.323209
vt 0.578193 0.365001
vt 0.796939 0.323667
vt 0.663334 0.356894
vt 0.780677 0.314050
vt 0.778665 0.311289
vt 0.822124 0.328515
vt 0.407476 0.390854
vt 0.319798 0.390854
vt 0.852758 0.323792
vt 0.207019 0.381117
vt 0.640393 0.373867
vt 0.760748 0.298313
vt 0.694183 0.293045
vt 0.728294 0.307112
vt 0.722896 0.267329
vt 0.836169 0.317314
vt 0.810423 0.331715
vt 0.281385 0.163997
vt 0.243938 0.157461
vt 0.513827 0.173876
vt 0.512197 0.173872
vt 0.565994 0.171821
vt 0.566577 0.171996
vt 0.086837 0.244923
vt 0.141406 0.244923
vt 0.711048 0.173851
vt 0.590505 0.172048
vt 0.649008 0.172173
vt 0.141406 0.166193
vt 0.948473 0.175368
vt 0.493928 0.175368
vt 0.085667 0.174570
vt 0.091115 0.174570
vt 0.862401 0.166991
vt 0.289221 0.160747
vt 0.668855 0.162849
vt 0.394449 0.166417
vt 0.429541 0.168041
vt 0.540621 0.205463
vt 0.582166 0.236013
vt 0.493333 0.213209
vt 0.213793 0.194729
vt 0.074005 0.226945
vt 0.935120 0.219130
vt 0.272496 0.259814
vt 0.841880 0.286481
vt 0.698928 0.272547
vt 0.596751 0.319946
vt 0.786470 0.301117
vt 0.847967 0.316336
vt 0.608359 0.177658
vt 0.180323 0.390742
vt 0.445901 0.184498
vt 0.325105 0.298999
vt 0.389342 0.242372
vt 0.336005 0.191523
vt 0.743217 0.265159
vt 0.661301 0.244288
vt 0.645846 0.281517
vt 0.775117 0.180778
vt 0.672558 0.313542
vt 0.424737 0.317999
vt 0.416167 0.365543
vt 0.599663 0.254799
vt 0.660363 0.201715
vt 0.558078 0.163171
vt 0.469239 0.385909
vt 0.777957 0.257225
vt 0.750476 0.205380
vt 0.700615 0.195194
vt 0.824946 0.235513
vt 0.570601 0.173271
vt 0.155049 0.213278
vt 0.779473 0.312328
vt 0.282246 0.352412
vt 0.681716 0.336950
vt 0.701957 0.355394
vt 0.810083 0.328573
vt 0.554956 0.297438
vt 0.535434 0.174524
vt 0.446114 0.174231
vt 0.384620 0.168125
vt 0.792553 0.169731
vt 0.233349 0.167173
vt 0.294437 0.162018
vt 0.460465 0.170555
vt 0.460867 0.169398
vt 0.650904 0.161011
vt 0.283468 0.159660
vt 0.872251 0.205149
vt 0.708341 0.164857
vt 0.515847 0.191481
vt 0.570964 0.211630
s 0
usemtl Material.003
f 14/23/1 96/136/1 128/182/1 58/89/1
f 9/15/2 62/94/2 128/182/2 96/136/2
f 15/26/3 58/89/3 128/182/3 62/94/3
f 28/43/4 94/134/4 129/183/4 95/135/4
f 94/134/5 31/50/5 113/160/5 129/183/5
f 129/183/6 113/160/6 1/1/6 40/63/6
f 95/135/7 129/183/7 40/63/7 4/6/7
f 29/44/8 116/165/8 130/184/8 121/173/8
f 116/165/9 4/4/9 66/99/9 130/184/9
f 130/184/10 66/99/10 17/28/10 67/101/10
f 121/173/11 130/184/11 67/101/11 5/8/11
f 36/57/12 120/171/12 131/185/12 90/130/12
f 120/171/13 5/7/13 67/102/13 131/185/13
f 131/185/14 67/102/14 17/29/14 63/95/14
f 90/130/15 131/185/15 63/95/15 16/27/15
f 1/1/16 52/81/16 132/186/16 40/63/16
f 52/81/17 10/16/17 48/75/17 132/186/17
f 132/186/18 48/75/18 12/20/18 55/85/18
f 40/63/19 132/186/19 55/85/19 4/6/19
f 16/27/20 46/72/20 133/187/20 88/128/20
f 7/10/21 86/125/21 133/187/21 46/72/21
f 23/36/22 88/128/22 133/187/22 86/125/22
f 13/21/23 76/114/23 134/188/23 109/154/23
f 6/9/24 110/156/24 134/188/24 76/114/24
f 32/51/25 109/154/25 134/188/25 110/156/25
f 13/22/26 99/141/26 135/189/26 61/93/26
f 30/46/27 97/137/27 135/189/27 99/141/27
f 14/25/28 61/93/28 135/189/28 97/137/28
f 24/37/29 81/119/29 136/190/29 102/145/29
f 23/36/30 86/126/30 136/190/30 81/119/30
f 7/12/31 102/145/31 136/190/31 86/126/31
f 35/56/32 111/157/32 137/191/32 106/150/32
f 7/11/33 43/67/33 137/191/33 111/157/33
f 18/30/34 106/150/34 137/191/34 43/67/34
f 19/32/35 72/109/35 138/192/35 74/111/35
f 3/3/36 59/91/36 138/192/36 72/109/36
f 20/33/37 74/111/37 138/192/37 59/91/37
f 18/31/38 64/96/38 139/193/38 106/151/38
f 4/5/39 85/123/39 139/193/39 64/96/39
f 35/55/40 106/151/40 139/193/40 85/123/40
f 14/23/41 98/139/41 140/194/41 96/136/41
f 8/14/42 47/74/42 140/194/42 98/139/42
f 9/15/43 96/136/43 140/194/43 47/74/43
f 10/16/44 71/107/44 141/195/44 48/75/44
f 71/107/45 14/24/45 68/103/45 141/195/45
f 141/195/46 68/103/46 11/17/46 50/78/46
f 48/75/47 141/195/47 50/78/47 12/20/47
f 14/25/48 71/108/48 142/196/48 98/140/48
f 10/16/49 51/80/49 142/196/49 71/108/49
f 8/13/50 98/140/50 142/196/50 51/80/50
f 1/1/51 53/82/51 143/197/51 52/81/51
f 8/13/52 51/80/52 143/197/52 53/82/52
f 10/16/53 52/81/53 143/197/53 51/80/53
f 6/9/54 84/122/54 144/198/54 110/156/54
f 84/122/55 21/34/55 78/116/55 144/198/55
f 144/198/56 78/116/56 24/37/56 108/153/56
f 110/156/57 144/198/57 108/153/57 32/51/57
f 20/33/58 77/115/58 145/199/58 73/110/58
f 6/9/59 76/114/59 145/199/59 77/115/59
f 13/21/60 73/110/60 145/199/60 76/114/60
f 16/27/61 63/95/61 146/200/61 70/106/61
f 17/29/62 66/100/62 146/200/62 63/95/62
f 4/4/63 70/106/63 146/200/63 66/100/63
f 25/38/64 39/62/64 147/201/64 60/92/64
f 2/2/65 87/127/65 147/201/65 39/62/65
f 22/35/66 60/92/66 147/201/66 87/127/66
f 7/11/67 46/73/67 148/202/67 43/68/67
f 16/27/68 69/105/68 148/202/68 46/73/68
f 18/31/69 43/68/69 148/202/69 69/105/69
f 18/31/70 69/105/70 149/203/70 64/97/70
f 16/27/71 70/106/71 149/203/71 69/105/71
f 4/4/72 64/97/72 149/203/72 70/106/72
f 11/18/73 68/104/73 150/204/73 105/148/73
f 14/25/74 97/138/74 150/204/74 68/104/74
f 30/47/75 105/148/75 150/204/75 97/138/75
f 20/33/76 73/110/76 151/205/76 127/181/76
f 13/21/77 57/87/77 151/205/77 73/110/77
f 15/26/78 127/181/78 151/205/78 57/87/78
f 3/3/79 45/71/79 152/206/79 59/91/79
f 6/9/80 77/115/80 152/206/80 45/71/80
f 20/33/81 59/91/81 152/206/81 77/115/81
f 38/61/82 92/132/82 153/207/82 115/163/82
f 3/3/83 72/109/83 153/207/83 92/132/83
f 19/32/84 54/84/84 153/207/84 72/109/84
f 9/15/85 93/133/85 153/207/85 54/84/85
f 37/60/86 115/163/86 153/207/86 93/133/86
f 4/5/87 75/112/87 154/208/87 85/124/87
f 30/49/88 107/152/88 154/208/88 75/112/88
f 35/56/89 85/124/89 154/208/89 107/152/89
f 21/34/90 79/117/90 155/209/90 78/116/90
f 79/117/91 22/35/91 80/118/91 155/209/91
f 155/209/92 80/118/92 23/36/92 81/119/92
f 78/116/93 155/209/93 81/119/93 24/37/93
f 25/38/94 60/92/94 156/210/94 82/120/94
f 22/35/95 79/117/95 156/210/95 60/92/95
f 21/34/96 82/120/96 156/210/96 79/117/96
f 3/3/97 83/121/97 157/211/97 45/71/97
f 83/121/98 25/38/98 82/120/98 157/211/98
f 157/211/99 82/120/99 21/34/99 84/122/99
f 45/71/100 157/211/100 84/122/100 6/9/100
f 2/2/101 65/98/101 158/212/101 87/127/101
f 65/98/102 16/27/102 88/128/102 158/212/102
f 158/212/103 88/128/103 23/36/103 80/118/103
f 87/127/104 158/212/104 80/118/104 22/35/104
f 33/52/105 118/168/105 159/213/105 89/129/105
f 38/61/106 115/164/106 159/213/106 118/168/106
f 37/58/107 89/129/107 159/213/107 115/164/107
f 28/43/108 95/135/108 160/214/108 119/170/108
f 4/6/109 116/166/109 160/214/109 95/135/109
f 29/45/110 119/170/110 160/214/110 116/166/110
f 34/54/111 103/146/111 161/215/111 100/143/111
f 103/146/112 32/51/112 108/153/112 161/215/112
f 161/215/113 108/153/113 24/37/113 102/145/113
f 100/143/114 161/215/114 102/145/114 7/12/114
f 4/6/115 55/85/115 162/216/115 75/113/115
f 55/85/116 12/20/116 50/79/116 162/216/116
f 162/216/117 50/79/117 11/19/117 105/149/117
f 75/113/118 162/216/118 105/149/118 30/48/118
f 30/49/119 99/142/119 163/217/119 101/144/119
f 99/142/120 13/22/120 109/155/120 163/217/120
f 163/217/121 109/155/121 32/51/121 103/146/121
f 101/144/122 163/217/122 103/146/122 34/54/122
f 35/56/123 107/152/123 164/218/123 104/147/123
f 30/49/124 101/144/124 164/218/124 107/152/124
f 34/54/125 104/147/125 164/218/125 101/144/125
f 35/56/126 104/147/126 165/219/126 111/158/126
f 34/54/127 100/143/127 165/219/127 104/147/127
f 7/12/128 111/158/128 165/219/128 100/143/128
f 15/26/129 57/88/129 166/220/129 58/90/129
f 13/22/130 61/93/130 166/220/130 57/88/130
f 14/25/131 58/90/131 166/220/131 61/93/131
f 33/52/132 89/129/132 167/221/132 49/76/132
f 37/58/133 114/161/133 167/221/133 89/129/133
f 26/41/134 49/76/134 167/221/134 114/161/134
f 36/57/135 117/167/135 168/222/135 120/172/135
f 33/53/136 49/77/136 168/222/136 117/167/136
f 26/39/137 42/65/137 168/222/137 49/77/137
f 29/45/138 121/174/138 168/222/138 42/65/138
f 5/8/139 120/172/139 168/222/139 121/174/139
f 37/59/140 44/69/140 169/223/140 41/64/140
f 44/69/141 8/14/141 53/83/141 169/223/141
f 169/223/142 53/83/142 1/1/142 91/131/142
f 41/64/143 169/223/143 91/131/143 27/42/143
f 36/57/144 122/175/144 170/224/144 117/167/144
f 2/2/145 56/86/145 170/224/145 122/175/145
f 33/53/146 117/167/146 170/224/146 56/86/146
f 29/45/147 42/66/147 171/225/147 119/170/147
f 26/40/148 112/159/148 171/225/148 42/66/148
f 28/43/149 119/170/149 171/225/149 112/159/149
f 26/40/150 125/178/150 172/226/150 112/159/150
f 125/178/151 27/42/151 123/176/151 172/226/151
f 172/226/152 123/176/152 31/50/152 94/134/152
f 112/159/153 172/226/153 94/134/153 28/43/153
f 37/59/154 41/64/154 173/227/154 114/162/154
f 27/42/155 125/179/155 173/227/155 41/64/155
f 26/41/156 114/162/156 173/227/156 125/179/156
f 37/60/157 93/133/157 174/228/157 44/70/157
f 9/15/158 47/74/158 174/228/158 93/133/158
f 8/14/159 44/70/159 174/228/159 47/74/159
f 25/38/160 83/121/160 175/229/160 124/177/160
f 3/3/161 92/132/161 175/229/161 83/121/161
f 38/61/162 124/177/162 175/229/162 92/132/162
f 27/42/163 91/131/163 176/230/163 123/176/163
f 1/1/164 113/160/164 176/230/164 91/131/164
f 31/50/165 123/176/165 176/230/165 113/160/165
f 16/27/166 65/98/166 177/231/166 90/130/166
f 2/2/167 122/175/167 177/231/167 65/98/167
f 36/57/168 90/130/168 177/231/168 122/175/168
f 2/2/169 39/62/169 178/232/169 56/86/169
f 39/62/170 25/38/170 124/177/170 178/232/170
f 178/232/171 124/177/171 38/61/171 118/169/171
f 56/86/172 178/232/172 118/169/172 33/53/172
f 9/15/173 54/84/173 179/233/173 62/94/173
f 19/32/174 126/180/174 179/233/174 54/84/174
f 15/26/175 62/94/175 179/233/175 126/180/175
f 19/32/176 74/111/176 180/234/176 126/180/176
f 20/33/177 127/181/177 180/234/177 74/111/177
f 15/26/178 126/180/178 180/234/178 127/181/178
