# Blender 3.3.1
# www.blender.org
mtllib Pedra3Export.mtl
o Pedra3Export
v 0.000459 0.100286 0.390662
v -0.018163 0.182328 0.391758
v -0.127152 0.149197 0.335293
v -0.027601 0.237951 0.375790
v 0.131775 0.097685 0.351284
v 0.058603 0.232216 0.408142
v -0.218133 0.161375 0.259457
v -0.166834 0.232844 0.294909
v 0.233184 0.186807 0.312384
v 0.142209 0.218606 0.379866
v -0.050007 0.024062 0.364110
v -0.013771 -0.027517 0.337774
v -0.037407 0.341484 0.353196
v -0.109501 0.367591 0.289446
v 0.087324 -0.166533 0.111977
v 0.056666 -0.116407 0.233955
v -0.017455 -0.131344 0.159833
v -0.036558 -0.107909 0.229275
v 0.053132 -0.076656 0.290458
v -0.335946 0.099189 0.153183
v -0.239574 -0.010965 0.200129
v -0.235726 0.058988 0.264642
v -0.295329 -0.062581 0.075808
v -0.150458 -0.062333 0.257055
v -0.294369 -0.093567 0.017333
v -0.134230 -0.136035 0.093709
v 0.092301 -0.131891 -0.043960
v -0.042237 -0.154678 0.082987
v 0.183317 -0.036256 0.244497
v 0.262388 0.022297 0.222381
v 0.171357 -0.107522 0.178610
v -0.255290 -0.096194 -0.056920
v -0.333458 -0.055214 -0.088199
v -0.242953 -0.028636 -0.204111
v -0.334908 0.037201 -0.196482
v -0.247241 0.071469 -0.287232
v -0.181232 -0.096912 -0.052032
v -0.075192 -0.113141 -0.021230
v -0.141131 -0.031505 -0.185347
v -0.396815 0.069437 0.027892
v -0.379003 0.049456 -0.117716
v -0.374284 -0.008173 0.015775
v -0.335272 -0.002700 0.091510
v -0.142128 0.087383 -0.342043
v 0.001481 -0.053836 -0.236040
v -0.063619 -0.015594 -0.253459
v -0.006873 0.015737 -0.325334
v 0.226455 -0.060156 -0.191085
v 0.147922 -0.022443 -0.291809
v 0.262211 0.004671 -0.202680
v 0.133577 -0.085399 -0.199645
v 0.067497 0.084998 -0.356393
v 0.145144 -0.125587 -0.041319
v 0.274038 -0.086684 0.129018
v 0.339951 -0.089561 0.046614
v 0.338033 -0.007965 0.130284
v 0.384187 -0.023772 0.016785
v 0.233682 -0.136667 -0.005530
v 0.275376 -0.132482 0.056791
v 0.183520 -0.151261 0.074039
v 0.338836 -0.054918 -0.080822
v 0.272424 -0.101868 -0.070693
v 0.339152 0.028705 -0.115958
v 0.268032 0.135185 -0.188135
v 0.190310 0.080810 -0.271282
v 0.013681 0.209062 -0.377205
v 0.004057 0.134309 -0.386178
v -0.068313 0.211153 -0.404317
v -0.205685 0.238386 -0.370031
v -0.135104 0.154304 -0.378932
v -0.124565 0.032001 -0.296086
v 0.092061 0.194576 -0.326932
v 0.079572 0.319073 -0.305790
v -0.114147 0.270100 -0.401981
v -0.010603 0.372656 -0.347742
v 0.141457 0.198779 -0.265905
v 0.077723 0.542288 0.259223
v 0.187300 0.434437 0.239957
v 0.107049 0.554428 0.199576
v 0.244605 0.276193 0.262584
v 0.192015 0.322303 0.317698
v 0.198384 0.384256 0.150443
v 0.224375 0.322230 0.237125
v 0.093236 0.356050 0.368714
v 0.152099 0.490803 0.143726
v 0.091171 0.545878 -0.009320
v 0.042941 0.578618 0.190687
v 0.026544 0.406491 0.364562
v 0.101274 0.441722 0.329020
v -0.007670 0.489708 0.322359
v 0.306161 0.236824 -0.063447
v 0.250468 0.286875 0.040614
v 0.289642 0.210795 0.149899
v 0.200617 0.388074 -0.017322
v 0.299182 0.145742 0.214023
v 0.357088 0.091487 0.116471
v 0.376239 0.087698 -0.017238
v 0.327091 0.126872 -0.112746
v 0.209943 0.269575 -0.181470
v 0.232461 0.363173 -0.094174
v -0.253763 0.287135 -0.002350
v -0.244573 0.283654 -0.151808
v -0.300652 0.224900 -0.206259
v -0.311737 0.230095 -0.068313
v 0.014675 0.586084 0.096369
v 0.028146 0.557514 -0.029817
v 0.152483 0.465490 0.007931
v 0.170387 0.435317 -0.220839
v 0.161569 0.520629 -0.104945
v 0.149623 0.316593 -0.241000
v -0.006973 0.456192 -0.316144
v 0.055381 0.526124 -0.260599
v 0.039553 0.426825 -0.309146
v 0.123363 0.423420 -0.276796
v 0.114748 0.516262 -0.229346
v 0.089736 0.561690 -0.170736
v -0.152396 0.440671 0.211877
v -0.180617 0.431920 0.156810
v -0.189235 0.297141 0.240175
v -0.097310 0.525685 0.231277
v -0.120792 0.426633 0.268468
v -0.263872 0.287387 0.141747
v -0.310634 0.203764 0.144960
v -0.072523 0.498644 -0.048565
v -0.077671 0.559128 0.147909
v -0.144247 0.436152 0.051939
v -0.025605 0.556450 0.259987
v -0.332292 0.177068 -0.208939
v -0.387573 0.143985 -0.077692
v -0.298726 0.240571 0.041869
v -0.151510 0.383902 -0.018873
v -0.151094 0.364002 -0.116639
v -0.248420 0.265365 -0.286776
v -0.070292 0.517159 -0.154966
v -0.136233 0.422366 -0.271395
v -0.185364 0.360078 -0.274733
v -0.063293 0.462596 -0.294690
v 0.002951 0.560981 -0.206415
v -0.132984 0.334427 -0.357235
v -0.000008 -0.106077 -0.063661
v -0.032796 -0.074567 -0.141986
v 0.111582 -0.042317 -0.276225
v -0.358094 0.168248 0.012438
vn -0.0480 -0.2282 0.9724
vn -0.3540 0.0399 0.9344
vn -0.5179 0.0389 0.8546
vn -0.4317 0.1829 0.8833
vn 0.4047 -0.3383 0.8496
vn 0.0497 0.0482 0.9976
vn -0.6898 0.1909 0.6984
vn -0.6364 0.2112 0.7419
vn 0.7124 -0.0349 0.7009
vn 0.4553 -0.0143 0.8902
vn -0.2484 -0.3413 0.9065
vn 0.0122 -0.5850 0.8110
vn -0.4978 0.1766 0.8491
vn -0.6365 0.2112 0.7418
vn -0.6504 0.2057 0.7312
vn 0.0673 -0.9878 0.1405
vn 0.0844 -0.8697 0.4863
vn -0.1377 -0.9391 0.3149
vn -0.1585 -0.8787 0.4503
vn 0.1752 -0.6752 0.7165
vn -0.8303 -0.0244 0.5568
vn -0.6792 -0.4922 0.5445
vn -0.6672 -0.1873 0.7210
vn -0.5887 -0.6888 0.4230
vn -0.4272 -0.6815 0.5942
vn -0.4802 -0.8701 0.1113
vn -0.2571 -0.9610 0.1017
vn -0.0188 -0.9628 -0.2696
vn -0.1564 -0.9876 -0.0122
vn 0.4762 -0.5307 0.7011
vn 0.4047 -0.3383 0.8495
vn 0.6176 -0.3768 0.6904
vn 0.3594 -0.7716 0.5248
vn -0.1523 -0.9626 -0.2242
vn -0.6387 -0.7140 -0.2868
vn -0.2364 -0.7858 -0.5716
vn -0.7277 -0.3588 -0.5846
vn -0.4955 -0.4212 -0.7597
vn -0.0409 -0.9488 -0.3131
vn -0.1116 -0.9375 -0.3296
vn -0.0669 -0.8910 -0.4491
vn -0.9766 -0.0252 0.2135
vn -0.9309 -0.2073 -0.3006
vn -0.8673 -0.4704 0.1631
vn -0.7460 -0.4454 0.4951
vn -0.2585 -0.5255 -0.8106
vn -0.2394 -0.8638 -0.4434
vn -0.2799 -0.8239 -0.4928
vn -0.1153 -0.6348 -0.7640
vn 0.4474 -0.7240 -0.5251
vn 0.3809 -0.4946 -0.7812
vn 0.6957 -0.2114 -0.6865
vn 0.0995 -0.9155 -0.3899
vn 0.3461 -0.2035 -0.9159
vn 0.0995 -0.9572 -0.2719
vn 0.5247 -0.6353 0.5666
vn 0.7112 -0.6860 0.1535
vn 0.7783 -0.3181 0.5413
vn 0.9644 -0.2642 0.0135
vn 0.1807 -0.9506 -0.2522
vn 0.4308 -0.8909 0.1439
vn 0.1713 -0.9808 0.0937
vn 0.7441 -0.5295 -0.4074
vn 0.3537 -0.8700 -0.3436
vn 0.1807 -0.9507 -0.2522
vn 0.8504 -0.0550 -0.5232
vn 0.7201 0.2228 -0.6571
vn 0.6366 0.0743 -0.7676
vn 0.4322 0.1466 -0.8898
vn 0.1766 -0.2053 -0.9626
vn 0.0592 -0.0302 -0.9978
vn -0.5949 0.1384 -0.7918
vn -0.2696 -0.3199 -0.9083
vn -0.2156 -0.7378 -0.6396
vn 0.6350 0.1734 -0.7528
vn 0.5840 0.1232 -0.8023
vn -0.1443 0.2173 -0.9654
vn 0.3193 0.2724 -0.9077
vn 0.6942 0.2370 -0.6797
vn 0.3693 0.7393 0.5631
vn 0.8424 0.4694 0.2647
vn 0.5931 0.7873 0.1684
vn 0.8816 0.3199 0.3472
vn 0.6803 0.3042 0.6668
vn 0.9118 0.4099 -0.0244
vn 0.9243 0.3772 -0.0576
vn 0.3401 0.2949 0.8930
vn 0.8511 0.5216 -0.0597
vn 0.4967 0.8674 0.0294
vn 0.1268 0.9776 0.1679
vn -0.0901 0.3418 0.9354
vn 0.4337 0.4877 0.7577
vn -0.2013 0.5133 0.8343
vn 0.8709 0.4545 -0.1869
vn 0.8472 0.5208 0.1050
vn 0.8846 0.4440 0.1426
vn 0.8602 0.4930 0.1304
vn 0.8837 0.1192 0.4527
vn 0.9317 0.1685 0.3219
vn 0.9691 0.2159 -0.1192
vn 0.9247 0.3764 -0.0562
vn 0.8380 0.2474 -0.4864
vn 0.7650 0.2194 -0.6055
vn 0.9107 0.3958 -0.1179
vn -0.7288 0.6836 -0.0393
vn -0.7260 0.6816 -0.0915
vn -0.6914 0.7219 -0.0289
vn -0.7673 0.6261 -0.1390
vn -0.0365 0.9934 -0.1092
vn -0.1476 0.9869 -0.0649
vn 0.8446 0.5260 0.0998
vn 0.8262 0.2743 -0.4921
vn 0.7556 0.6546 0.0216
vn 0.7070 0.0245 -0.7068
vn 0.0453 0.5260 -0.8493
vn 0.1869 0.6873 -0.7019
vn 0.3797 0.2694 -0.8850
vn 0.5829 0.1873 -0.7907
vn 0.5955 0.6084 -0.5247
vn 0.5829 0.1873 -0.7906
vn 0.3310 0.9273 -0.1746
vn 0.7557 0.6546 0.0216
vn -0.8166 0.3516 0.4578
vn -0.8455 0.5244 0.1009
vn -0.7459 0.3042 0.5925
vn -0.6578 0.6289 0.4145
vn -0.7358 0.2187 0.6409
vn -0.8355 0.4652 0.2924
vn -0.8122 0.3958 0.4286
vn -0.7078 0.7023 -0.0760
vn -0.5460 0.8372 -0.0316
vn -0.0365 0.9933 -0.1092
vn -0.7668 0.5882 -0.2570
vn -0.2305 0.8227 0.5196
vn -0.8719 0.2756 -0.4048
vn -0.9324 0.3455 -0.1059
vn -0.7772 0.6283 0.0354
vn -0.9310 -0.2073 -0.3006
vn -0.7527 0.6104 -0.2467
vn -0.7745 0.6323 0.0207
vn -0.7879 0.5007 -0.3584
vn -0.6846 0.7289 -0.0030
vn -0.6755 0.6438 -0.3593
vn -0.7597 0.5978 -0.2559
vn -0.3805 0.6725 -0.6348
vn -0.2502 0.9232 -0.2918
vn -0.4391 0.5293 -0.7260
vn -0.1577 -0.9329 -0.3237
vn -0.2195 -0.9157 -0.3366
vn 0.0340 -0.7868 -0.6163
vn 0.8815 0.3199 0.3472
vn 0.9118 0.4098 -0.0243
vn 0.7556 0.6547 0.0216
vn -0.8454 0.5244 0.1009
vn -0.8467 0.5131 0.1408
vt 0.847082 0.209510
vt 0.662533 0.145598
vt 0.885888 0.188304
vt 0.928882 0.256784
vt 0.914802 0.167727
vt 0.758919 0.173299
vt 0.659458 0.088330
vt 0.861453 0.136867
vt 0.982400 0.340536
vt 0.004765 0.346958
vt 0.983476 0.258412
vt 0.000643 0.289471
vt 0.721962 0.129617
vt 0.651328 0.011257
vt 0.656359 0.823278
vt 0.806540 0.117903
vt 0.666472 0.769741
vt 0.662229 0.254606
vt 0.854254 0.277313
vt 0.821376 0.272941
vt 0.655592 0.208281
vt 0.966301 0.102414
vt 0.005408 0.117643
vt 0.990266 0.152170
vt 0.020648 0.182979
vt 0.568897 0.174839
vt 0.608704 0.172939
vt 0.587609 0.214130
vt 0.616532 0.221202
vt 0.787606 0.255235
vt 0.630724 0.168740
vt 0.641645 0.421887
vt 0.036668 0.424451
vt 0.632922 0.351536
vt 0.956431 0.377111
vt 0.661420 0.375251
vt 0.000048 0.443062
vt 0.567333 0.362442
vt 0.889432 0.334941
vt 0.632499 0.284529
vt 0.536624 0.358932
vt 0.571885 0.276250
vt 0.488729 0.175644
vt 0.556588 0.232001
vt 0.623403 0.091752
vt 0.616940 0.038433
vt 0.583343 0.121787
vt 0.506727 0.349999
vt 0.490662 0.394629
vt 0.426137 0.380313
vt 0.417634 0.440690
vt 0.283713 0.485297
vt 0.346030 0.448954
vt 0.982920 0.491506
vt 0.328474 0.483908
vt 0.504363 0.310138
vt 0.515251 0.267103
vt 0.428226 0.315362
vt 0.547172 0.439099
vt 0.109029 0.456783
vt 0.481052 0.443611
vt 0.211466 0.475034
vt 0.542825 0.409415
vt 0.054112 0.457668
vt 0.585945 0.399303
vt 0.336872 0.408894
vt 0.933586 0.563219
vt 0.399196 0.237304
vt 0.380368 0.284705
vt 0.346514 0.257891
vt 0.844054 0.602269
vt 0.414984 0.112774
vt 0.360179 0.150256
vt 0.749869 0.670594
vt 0.384717 0.083389
vt 0.405659 0.163892
vt 0.331216 0.183605
vt 0.805336 0.676491
vt 0.487582 0.147020
vt 0.554619 0.076657
vt 0.511905 0.070815
vt 0.558255 0.040544
vt 0.596023 0.903755
vt 0.499861 0.048628
vt 0.517624 0.907747
vt 0.498303 0.107608
vt 0.520399 0.089333
vt 0.536070 0.123479
vt 0.458175 0.071053
vt 0.463009 0.096708
vt 0.393737 0.907747
vt 0.425701 0.050142
vt 0.424271 0.904445
vt 0.365739 0.046207
vt 0.368107 0.860223
vt 0.331216 0.051243
vt 0.333540 0.105447
vt 0.712458 0.714172
vt 0.331216 0.875125
vt 0.888775 0.723282
vt 0.868242 0.675452
vt 0.933158 0.680259
vt 0.997228 0.606696
vt 0.325537 0.373529
vt 0.947969 0.610349
vt 0.901780 0.552494
vt 0.355515 0.348677
vt 0.824500 0.755198
vt 0.885088 0.802742
vt 0.337023 0.662981
vt 0.981002 0.676750
vt 0.331069 0.322784
vt 0.327336 0.132145
vt 0.979563 0.813441
vt 0.770931 0.777840
vt 0.337893 0.778964
vt 0.596624 0.549092
vt 0.076918 0.017518
vt 0.599605 0.643793
vt 0.576812 0.557218
vt 0.622693 0.759850
vt 0.642655 0.714053
vt 0.563848 0.663661
vt 0.603630 0.709196
vt 0.657059 0.657720
vt 0.843069 0.080656
vt 0.906371 0.042309
vt 0.558732 0.591705
vt 0.493407 0.527669
vt 0.566782 0.513411
vt 0.106151 0.011954
vt 0.659093 0.571647
vt 0.013637 0.032621
vt 0.960812 0.032497
vt 0.633408 0.611112
vt 0.627433 0.528979
vt 0.041984 0.039227
vt 0.455689 0.792869
vt 0.511740 0.735178
vt 0.567961 0.795408
vt 0.485560 0.662403
vt 0.614127 0.847157
vt 0.553393 0.018571
vt 0.556366 0.879859
vt 0.475633 0.029179
vt 0.479026 0.883242
vt 0.421792 0.860747
vt 0.388627 0.751789
vt 0.437601 0.698804
vt 0.147947 0.260715
vt 0.219377 0.287305
vt 0.244613 0.354337
vt 0.173660 0.332842
vt 0.530178 0.491376
vt 0.136677 0.010591
vt 0.486357 0.483927
vt 0.183081 0.005851
vt 0.498744 0.593914
vt 0.393106 0.636317
vt 0.445345 0.576389
vt 0.361810 0.714774
vt 0.386186 0.518070
vt 0.299757 0.107245
vt 0.398452 0.532102
vt 0.257407 0.044076
vt 0.312434 0.073228
vt 0.967808 0.865477
vt 0.350785 0.556163
vt 0.368162 0.620789
vt 0.404309 0.568286
vt 0.429215 0.536659
vt 0.061086 0.161667
vt 0.083719 0.176496
vt 0.026426 0.265656
vt 0.073451 0.095437
vt 0.040305 0.150371
vt 0.066681 0.285749
vt 0.060063 0.351287
vt 0.186535 0.089246
vt 0.113327 0.062755
vt 0.129587 0.155004
vt 0.577420 0.504936
vt 0.076064 0.041681
vt 0.246272 0.403635
vt 0.167599 0.411725
vt 0.112869 0.317600
vt 0.165743 0.187998
vt 0.206050 0.212032
vt 0.297252 0.346518
vt 0.231840 0.108404
vt 0.281647 0.197234
vt 0.282169 0.263386
vt 0.287755 0.147611
vt 0.422621 0.506653
vt 0.244985 0.056342
vt 0.315475 0.266324
vt 0.483326 0.221124
vt 0.448627 0.245890
vt 0.372686 0.178430
vt 0.124610 0.380020
s 0
usemtl DefaultMaterial.002
f 1/1/1 2/3/2 3/4/3
f 3/4/3 2/3/2 4/5/4
f 5/6/5 6/8/6 1/1/1
f 4/5/4 2/3/2 6/8/6
f 7/9/7 3/4/3 8/11/8
f 9/13/9 10/16/10 5/6/5
f 1/1/1 11/19/11 12/20/12
f 13/22/13 4/5/4 6/8/6
f 8/11/14 4/5/4 14/24/15
f 4/5/4 13/22/13 14/24/15
f 15/26/16 16/27/17 17/28/18
f 18/29/19 16/27/17 19/31/20
f 20/32/21 21/34/22 22/36/23
f 23/38/24 24/40/25 21/34/22
f 25/41/26 26/42/27 23/38/24
f 26/42/27 18/29/19 24/40/25
f 18/29/19 12/21/12 24/40/25
f 24/40/25 12/21/12 11/18/11
f 27/43/28 15/26/16 28/44/29
f 28/44/29 17/28/18 26/42/27
f 19/31/20 29/45/30 5/7/31
f 5/7/31 30/46/32 9/14/9
f 19/31/20 31/47/33 29/45/30
f 16/27/17 15/26/16 31/47/33
f 19/31/20 16/27/17 31/47/33
f 32/48/34 33/49/35 34/50/36
f 34/50/36 35/51/37 36/53/38
f 26/42/27 37/56/39 38/57/40
f 37/56/39 39/58/41 38/57/40
f 37/56/39 32/48/34 34/50/36
f 40/59/42 41/61/43 42/63/44
f 41/61/43 33/49/35 42/63/44
f 42/63/44 33/49/35 25/41/26
f 43/65/45 42/63/44 23/38/24
f 44/66/46 34/50/36 36/53/38
f 45/68/47 46/69/48 47/70/49
f 48/72/50 49/73/51 50/75/52
f 51/76/53 49/73/51 48/72/50
f 49/73/51 47/70/49 52/77/54
f 27/43/28 51/76/53 53/79/55
f 54/80/56 55/81/57 56/82/58
f 56/82/58 55/81/57 57/84/59
f 58/86/60 59/87/61 60/88/62
f 61/89/63 59/87/61 62/90/64
f 62/90/64 59/87/61 58/86/60
f 54/80/56 56/82/58 29/45/30
f 29/45/30 31/47/33 54/80/56
f 31/47/33 59/87/61 54/80/56
f 31/47/33 60/88/62 59/87/61
f 53/79/55 62/90/64 58/86/60
f 58/86/65 60/88/62 53/79/55
f 60/88/62 31/47/33 15/26/16
f 63/92/66 61/89/63 50/75/52
f 64/94/67 50/75/52 65/96/68
f 61/89/63 48/72/50 50/75/52
f 48/72/50 62/90/64 53/79/55
f 66/100/69 67/101/70 68/102/71
f 52/78/54 67/101/70 66/100/69
f 36/54/38 69/103/72 70/105/73
f 36/54/38 70/105/73 44/67/46
f 71/106/74 44/67/46 47/71/49
f 72/108/75 66/100/69 73/109/76
f 68/102/71 74/111/77 75/114/78
f 66/100/69 68/102/71 75/114/78
f 65/98/68 72/108/75 76/115/79
f 65/98/68 52/78/54 72/108/75
f 47/71/49 70/105/73 67/101/70
f 77/117/80 78/119/81 79/120/82
f 80/121/83 81/122/84 9/15/9
f 82/123/85 78/119/81 83/124/86
f 81/122/84 84/125/87 10/17/10
f 79/120/82 85/128/88 86/129/89
f 77/117/80 79/120/82 87/130/90
f 82/123/85 85/128/88 78/119/81
f 88/132/91 84/125/87 89/135/92
f 88/132/91 89/135/92 90/136/93
f 84/125/87 81/122/84 89/135/92
f 91/138/94 92/139/95 93/140/96
f 92/139/95 91/138/94 94/141/97
f 95/142/98 96/144/99 93/140/96
f 56/83/58 96/144/99 95/142/98
f 96/144/99 97/146/100 91/138/94
f 80/121/83 93/140/96 83/124/86
f 93/140/96 92/139/95 83/124/101
f 64/95/67 91/138/94 98/147/102
f 99/148/103 91/138/94 64/95/67
f 64/95/67 98/147/102 63/91/66
f 99/148/103 100/149/104 91/138/94
f 104/153/105 101/150/106 102/151/107
f 102/151/107 103/152/108 104/153/105
f 98/147/102 91/138/94 97/146/100
f 105/154/109 86/129/89 106/156/110
f 82/123/85 107/158/111 85/128/88
f 108/159/112 100/149/104 99/148/103
f 109/160/113 100/149/104 108/159/112
f 110/161/114 99/148/103 76/116/79
f 76/116/79 99/148/103 64/95/67
f 73/110/76 110/161/114 76/116/79
f 111/162/115 112/164/116 113/168/117
f 113/168/117 112/164/116 114/169/118
f 112/164/116 115/170/119 114/169/120
f 86/129/89 109/160/113 116/171/121
f 107/158/111 109/160/113 86/129/89
f 107/158/111 100/149/104 109/160/113
f 109/160/122 115/170/119 116/171/121
f 115/170/119 112/164/116 116/171/121
f 117/172/123 118/173/124 119/174/125
f 120/175/126 117/172/123 121/176/127
f 122/177/128 123/178/129 7/10/7
f 14/25/15 117/172/123 119/174/125
f 88/133/91 90/137/93 13/23/13
f 90/137/93 120/175/126 121/176/127
f 13/23/13 121/176/127 14/25/15
f 124/179/130 125/180/131 105/155/132
f 124/179/130 126/181/133 125/180/131
f 105/155/132 125/180/131 127/183/134
f 125/180/131 120/175/126 127/183/134
f 128/184/135 104/153/105 103/152/108
f 128/184/135 129/185/136 104/153/105
f 20/33/21 123/178/129 40/60/42
f 20/33/21 40/60/42 43/64/45
f 122/177/128 130/186/137 123/178/129
f 122/177/128 101/150/106 130/186/137
f 40/60/42 129/185/136 41/62/138
f 131/187/139 126/181/133 124/179/130
f 132/188/140 131/187/139 124/179/130
f 102/151/107 101/150/106 132/188/140
f 101/150/106 126/181/133 131/187/139
f 36/55/38 35/52/37 69/104/72
f 41/62/138 129/185/136 128/184/135
f 133/189/141 103/152/108 102/151/107
f 134/190/142 135/191/143 136/192/144
f 137/193/145 135/191/143 138/195/146
f 103/152/108 133/189/141 128/184/135
f 132/188/140 136/192/144 102/151/107
f 136/192/144 133/189/141 102/151/107
f 139/196/147 74/112/77 69/104/72
f 138/195/146 134/190/142 106/157/110
f 134/190/142 124/179/130 106/157/110
f 75/113/78 74/112/77 111/163/115
f 75/113/78 111/163/115 113/166/117
f 139/196/147 137/193/145 111/163/115
f 139/196/147 135/191/143 137/193/145
f 1/1/1 6/8/6 2/3/2
f 22/35/23 3/4/3 7/9/7
f 11/19/11 3/4/3 22/35/23
f 24/39/25 11/19/11 22/35/23
f 11/19/11 1/1/1 3/4/3
f 8/11/8 3/4/3 4/5/4
f 10/16/10 84/126/87 6/8/6
f 5/6/5 10/16/10 6/8/6
f 19/30/20 1/1/1 12/20/12
f 13/22/13 6/8/6 88/134/91
f 88/134/91 6/8/6 84/127/87
f 17/28/18 16/27/17 18/29/19
f 21/34/22 24/40/25 22/36/23
f 23/38/24 26/42/27 24/40/25
f 12/21/12 18/29/19 19/31/20
f 53/79/55 60/88/62 15/26/16
f 38/57/40 28/44/29 26/42/27
f 28/44/29 15/26/16 17/28/18
f 26/42/27 17/28/18 18/29/19
f 5/7/5 29/45/30 30/46/32
f 1/2/1 19/31/20 5/7/31
f 25/41/26 33/49/35 32/48/34
f 23/38/24 42/63/44 25/41/26
f 35/51/37 33/49/35 41/61/138
f 34/50/36 33/49/35 35/51/37
f 28/44/29 38/57/40 140/197/148
f 26/42/27 25/41/26 37/56/39
f 25/41/26 32/48/34 37/56/39
f 37/56/39 34/50/36 39/58/41
f 21/34/22 20/32/21 43/65/45
f 43/65/45 40/59/42 42/63/44
f 21/34/22 43/65/45 23/38/24
f 46/69/48 141/198/149 39/58/41
f 142/199/150 51/76/53 45/68/47
f 141/198/149 46/69/48 45/68/47
f 140/197/148 141/198/149 45/68/47
f 44/66/46 71/107/74 34/50/36
f 47/70/49 46/69/48 71/107/74
f 71/107/74 46/69/48 39/58/41
f 71/107/74 39/58/41 34/50/36
f 50/75/52 49/73/51 65/97/68
f 51/76/53 142/199/150 49/73/51
f 48/72/50 53/79/55 51/76/53
f 49/73/51 142/199/150 47/70/49
f 47/70/49 142/199/150 45/68/47
f 140/197/148 38/57/40 141/198/149
f 38/57/40 39/58/41 141/198/149
f 27/43/28 140/197/148 45/68/47
f 27/43/28 45/68/47 51/76/53
f 55/81/57 54/80/56 59/87/61
f 61/89/63 55/81/57 59/87/61
f 61/89/63 57/84/59 55/81/57
f 9/14/9 30/46/32 56/82/58
f 29/45/30 56/82/58 30/46/32
f 96/143/99 56/82/58 57/84/59
f 140/197/148 27/43/28 28/44/29
f 27/43/28 53/79/55 15/26/16
f 64/94/67 63/92/66 50/75/52
f 63/92/66 97/145/100 57/84/59
f 61/89/63 63/92/66 57/84/59
f 48/72/50 61/89/63 62/90/64
f 70/105/73 68/102/71 67/101/70
f 69/103/72 74/111/77 70/105/73
f 70/105/73 74/111/77 68/102/71
f 44/67/46 70/105/73 47/71/49
f 113/167/117 73/109/76 75/114/78
f 73/109/76 66/100/69 75/114/78
f 47/71/49 67/101/70 52/78/54
f 49/74/51 52/78/54 65/98/68
f 76/115/79 72/108/75 73/109/76
f 72/108/75 52/78/54 66/100/69
f 83/124/86 78/119/81 80/121/83
f 80/121/83 78/119/81 81/122/84
f 85/128/88 79/120/82 78/119/81
f 77/117/80 89/135/92 78/119/81
f 89/135/92 81/122/84 78/119/81
f 95/142/98 80/121/83 9/15/9
f 93/140/96 80/121/151 95/142/98
f 92/139/95 82/123/85 83/124/86
f 9/15/9 81/122/84 10/17/10
f 105/154/132 79/120/82 86/129/89
f 107/158/111 86/129/89 85/128/88
f 127/182/134 77/117/80 87/130/90
f 87/130/90 79/120/82 105/154/132
f 90/136/93 89/135/92 77/117/80
f 96/144/99 91/138/94 93/140/96
f 56/83/58 95/142/98 9/15/9
f 96/144/99 57/85/59 97/146/100
f 63/93/66 98/147/102 97/146/100
f 82/123/152 92/139/95 94/141/97
f 82/123/85 94/141/97 107/158/111
f 107/158/111 94/141/97 100/149/104
f 94/141/97 91/138/94 100/149/104
f 110/161/114 108/159/112 99/148/103
f 114/169/120 115/170/119 108/159/112
f 114/169/120 108/159/112 110/161/114
f 109/160/153 108/159/112 115/170/119
f 65/99/68 76/116/79 64/95/67
f 73/110/76 114/169/120 110/161/114
f 113/168/117 114/169/120 73/110/76
f 106/156/110 86/129/89 116/171/121
f 138/194/146 106/156/110 116/171/121
f 138/194/146 116/171/121 112/164/116
f 14/25/15 121/176/127 117/172/123
f 120/175/126 118/173/124 117/172/123
f 22/37/23 7/10/7 20/33/21
f 7/10/7 123/178/129 20/33/21
f 7/10/7 119/174/125 122/177/128
f 8/12/14 119/174/125 7/10/7
f 119/174/125 118/173/124 122/177/128
f 122/177/128 118/173/124 101/150/106
f 90/137/93 127/183/134 120/175/126
f 77/118/80 127/183/134 90/137/93
f 13/23/13 90/137/93 121/176/127
f 8/12/14 14/25/15 119/174/125
f 106/157/110 124/179/130 105/155/132
f 125/180/131 126/181/133 118/173/154
f 125/180/131 118/173/154 120/175/126
f 87/131/90 105/155/109 127/183/134
f 143/200/155 130/186/137 104/153/105
f 143/200/155 104/153/105 129/185/136
f 130/186/137 101/150/106 104/153/105
f 40/60/42 123/178/129 143/200/155
f 123/178/129 130/186/137 143/200/155
f 40/60/42 143/200/155 129/185/136
f 132/188/140 101/150/106 131/187/139
f 126/181/133 101/150/106 118/173/124
f 69/104/72 35/52/37 128/184/135
f 35/52/37 41/62/138 128/184/135
f 138/195/146 135/191/143 134/190/142
f 128/184/135 133/189/141 69/104/72
f 136/192/144 139/196/147 69/104/72
f 136/192/144 135/191/143 139/196/147
f 133/189/141 136/192/144 69/104/72
f 132/188/140 134/190/142 136/192/144
f 124/179/130 134/190/142 132/188/140
f 111/163/115 74/112/77 139/196/147
f 111/163/115 137/193/145 138/195/146
f 112/165/116 111/163/115 138/195/146
