# Blender 3.3.1
# www.blender.org
mtllib Pedra3Low.mtl
o rock3_Low
v 0.194875 0.254456 -1.267666
v 0.620911 0.276278 -1.803590
v 0.416830 0.167951 -1.194534
v 0.806840 0.283166 -1.549546
v 0.249984 0.627388 -1.375498
v 0.601958 0.087946 -1.353698
v 0.663062 0.558641 -1.626482
v 0.412438 0.377796 -1.140550
v 0.432082 0.141632 -1.768348
v 0.444282 0.404530 -1.909513
v 0.617901 0.629905 -1.292351
v 0.582700 0.686271 -1.388582
v 0.553964 0.618888 -1.809104
v 0.278205 0.636139 -1.320431
v 0.118864 0.425563 -1.600621
v 0.294368 0.617834 -1.803703
v 0.051598 0.244924 -1.650024
v 0.095693 0.232669 -1.728790
v 0.306036 0.227469 -1.828394
v 0.692812 0.200139 -1.734988
v 0.316454 0.465568 -1.934289
v 0.654976 0.517698 -1.295183
v 0.445276 0.781552 -1.435939
v 0.136232 0.101901 -1.514975
v 0.663785 0.382275 -1.219924
v 0.489204 0.427684 -1.124166
v 0.457145 0.601959 -1.167746
v 0.657056 0.135312 -1.723393
v 0.787689 0.286955 -1.415837
v 0.769753 0.224173 -1.648266
v 0.166729 0.482855 -1.390561
v 0.286354 0.631620 -1.480369
v 0.613918 0.159212 -1.287811
v 0.522902 0.063577 -1.576268
v 0.422931 0.685176 -1.209949
v 0.430593 0.089391 -1.595969
v 0.583084 0.660958 -1.524377
v 0.403000 0.433419 -1.156518
v 0.303449 0.344665 -1.197015
v 0.523837 0.551518 -1.163594
v 0.393194 0.536952 -1.179112
v 0.483733 0.118812 -1.241850
v 0.487267 0.079061 -1.298353
v 0.394043 0.087559 -1.303033
v 0.296371 0.059433 -1.438599
v 0.135272 0.132887 -1.456500
v 0.097143 0.140254 -1.620507
v 0.769437 0.140550 -1.613130
v 0.705977 0.062986 -1.475517
v 0.770552 0.105907 -1.485694
v 0.614121 0.044207 -1.458269
v 0.768634 0.187503 -1.402024
v 0.575745 0.069881 -1.573627
v 0.703025 0.093600 -1.603001
v 0.434658 0.329777 -1.918486
v 0.362288 0.406621 -1.936625
v 0.510173 0.514541 -1.838098
v 0.498098 0.280466 -1.888701
v 0.522662 0.390044 -1.859240
v 0.508324 0.737756 -1.273085
v 0.531875 0.637190 -1.203288
v 0.537650 0.749896 -1.332732
v 0.736762 0.432292 -1.595755
v 0.545349 0.711730 -1.761654
v 0.592170 0.716097 -1.637253
v 0.309809 0.622101 -1.263840
v 0.321100 0.563059 -1.242862
v 0.333291 0.721153 -1.301031
v 0.241366 0.492609 -1.292133
v 0.043028 0.339453 -1.610000
v 0.119967 0.399232 -1.387348
v 0.176838 0.482603 -1.534658
v 0.279507 0.559470 -1.648947
v 0.186028 0.479122 -1.684116
v 0.367308 0.658064 -1.826998
v 0.245237 0.555546 -1.807041
v 0.423628 0.651660 -1.848452
v 0.297617 0.529895 -1.889543
v 0.380594 0.219530 -1.168198
v 0.263767 0.428312 -1.237399
v 0.572810 0.414074 -1.152442
v 0.562376 0.293153 -1.181024
v 0.431060 0.295754 -1.141646
v 0.413146 0.064124 -1.372475
v 0.191027 0.184503 -1.332179
v 0.280143 0.133135 -1.275253
v 0.388364 0.040790 -1.449321
v 0.517925 0.028935 -1.420331
v 0.175311 0.099274 -1.589228
v 0.289470 0.163963 -1.717655
v 0.187648 0.166832 -1.736419
v 0.355409 0.082327 -1.553538
v 0.249369 0.098556 -1.584340
v 0.094655 0.294657 -1.379125
v 0.095329 0.192768 -1.440798
v 0.033786 0.264905 -1.504416
v 0.056317 0.187295 -1.516533
v 0.542183 0.153151 -1.808533
v 0.366982 0.179874 -1.785767
v 0.578523 0.173025 -1.824117
v 0.564178 0.110069 -1.731953
v 0.397805 0.120901 -1.674294
v 0.664283 0.058801 -1.537838
v 0.692989 0.217765 -1.309927
v 0.704639 0.108784 -1.403290
v 0.814788 0.171696 -1.515523
v 0.183360 0.266937 -1.819540
v 0.288473 0.282851 -1.874351
v 0.224916 0.433854 -1.902339
v 0.295497 0.349772 -1.911240
v 0.470154 0.622293 -1.841454
v 0.423728 0.211205 -1.857642
v 0.675206 0.471661 -1.269724
v 0.622616 0.517771 -1.214610
v 0.473542 0.774086 -1.341621
v 0.628985 0.579724 -1.381865
v 0.720243 0.406263 -1.382409
v 0.681069 0.482343 -1.491694
v 0.729783 0.341210 -1.318285
v 0.698633 0.330653 -1.720443
v 0.640544 0.465043 -1.713778
v 0.757692 0.322340 -1.645054
v 0.631218 0.583542 -1.549630
v 0.600988 0.630785 -1.753147
v 0.572058 0.394247 -1.798213
v 0.580224 0.512061 -1.773308
v 0.485982 0.721592 -1.792907
v 0.521772 0.741346 -1.541628
v 0.520337 0.757158 -1.703044
v 0.212468 0.356843 -1.272851
v 0.404996 0.751918 -1.272321
v 0.352930 0.754596 -1.384399
v 0.072507 0.363716 -1.519870
v 0.131875 0.436039 -1.490439
v 0.358078 0.694112 -1.580873
v 0.279091 0.579370 -1.551181
v 0.098309 0.372536 -1.741247
v 0.129949 0.420368 -1.738567
v 0.182181 0.460833 -1.819084
v 0.458747 0.752982 -1.562125
v 0.433552 0.756449 -1.738723
v 0.360309 0.712627 -1.687274
v 0.419998 0.568124 -1.880050
vn -0.0480 -0.2282 0.9724
vn -0.3540 0.0399 0.9344
vn -0.5179 0.0389 0.8546
vn -0.4317 0.1829 0.8833
vn 0.4047 -0.3383 0.8495
vn 0.0497 0.0482 0.9976
vn -0.6898 0.1909 0.6984
vn -0.6365 0.2112 0.7419
vn 0.7124 -0.0349 0.7009
vn 0.4553 -0.0143 0.8902
vn -0.2484 -0.3413 0.9065
vn 0.0122 -0.5850 0.8110
vn -0.4978 0.1766 0.8491
vn -0.6504 0.2057 0.7312
vn 0.0673 -0.9878 0.1405
vn 0.0844 -0.8697 0.4863
vn -0.1377 -0.9391 0.3149
vn -0.1585 -0.8787 0.4503
vn 0.1752 -0.6752 0.7165
vn -0.8303 -0.0244 0.5568
vn -0.6792 -0.4922 0.5445
vn -0.6672 -0.1873 0.7210
vn -0.5887 -0.6888 0.4230
vn -0.4272 -0.6815 0.5942
vn -0.4802 -0.8701 0.1113
vn -0.2571 -0.9610 0.1017
vn -0.0188 -0.9628 -0.2696
vn -0.1564 -0.9876 -0.0122
vn 0.4762 -0.5307 0.7011
vn 0.6176 -0.3768 0.6904
vn 0.3594 -0.7716 0.5248
vn -0.1523 -0.9626 -0.2242
vn -0.6387 -0.7140 -0.2868
vn -0.2364 -0.7858 -0.5716
vn -0.7277 -0.3588 -0.5846
vn -0.4955 -0.4212 -0.7597
vn -0.0409 -0.9488 -0.3131
vn -0.1116 -0.9375 -0.3296
vn -0.0669 -0.8910 -0.4491
vn -0.9766 -0.0252 0.2135
vn -0.9310 -0.2073 -0.3006
vn -0.8673 -0.4704 0.1631
vn -0.7460 -0.4454 0.4951
vn -0.2585 -0.5255 -0.8106
vn -0.2394 -0.8638 -0.4434
vn -0.2799 -0.8239 -0.4928
vn -0.1153 -0.6348 -0.7640
vn 0.4474 -0.7240 -0.5251
vn 0.3809 -0.4946 -0.7812
vn 0.6957 -0.2114 -0.6865
vn 0.0995 -0.9155 -0.3899
vn 0.3461 -0.2035 -0.9159
vn 0.0995 -0.9572 -0.2719
vn 0.5247 -0.6353 0.5666
vn 0.7112 -0.6860 0.1535
vn 0.7783 -0.3181 0.5413
vn 0.9644 -0.2642 0.0135
vn 0.1807 -0.9506 -0.2522
vn 0.4308 -0.8909 0.1439
vn 0.1713 -0.9808 0.0937
vn 0.7441 -0.5295 -0.4074
vn 0.3537 -0.8700 -0.3436
vn 0.8504 -0.0550 -0.5232
vn 0.7201 0.2228 -0.6571
vn 0.6366 0.0743 -0.7676
vn 0.4322 0.1466 -0.8898
vn 0.1766 -0.2053 -0.9626
vn 0.0592 -0.0302 -0.9978
vn -0.5949 0.1384 -0.7918
vn -0.2696 -0.3199 -0.9083
vn -0.2156 -0.7378 -0.6396
vn 0.6350 0.1734 -0.7528
vn 0.5840 0.1232 -0.8023
vn -0.1443 0.2173 -0.9654
vn 0.3193 0.2724 -0.9077
vn 0.6942 0.2370 -0.6797
vn 0.3693 0.7393 0.5631
vn 0.8424 0.4694 0.2647
vn 0.5931 0.7873 0.1684
vn 0.8816 0.3199 0.3472
vn 0.6803 0.3042 0.6668
vn 0.9118 0.4099 -0.0244
vn 0.9243 0.3772 -0.0576
vn 0.3401 0.2949 0.8930
vn 0.8511 0.5216 -0.0597
vn 0.4967 0.8674 0.0294
vn 0.1268 0.9776 0.1679
vn -0.0901 0.3418 0.9354
vn 0.4337 0.4877 0.7577
vn -0.2013 0.5133 0.8343
vn 0.8709 0.4545 -0.1869
vn 0.8472 0.5208 0.1050
vn 0.8846 0.4440 0.1426
vn 0.8602 0.4930 0.1304
vn 0.8837 0.1192 0.4527
vn 0.9317 0.1685 0.3219
vn 0.9691 0.2159 -0.1192
vn 0.8380 0.2474 -0.4864
vn 0.7650 0.2194 -0.6055
vn 0.9107 0.3958 -0.1179
vn -0.7260 0.6816 -0.0915
vn -0.6914 0.7219 -0.0289
vn -0.7673 0.6261 -0.1390
vn -0.7288 0.6836 -0.0393
vn -0.0365 0.9933 -0.1092
vn -0.1476 0.9869 -0.0649
vn 0.8446 0.5260 0.0998
vn 0.8262 0.2743 -0.4921
vn 0.7556 0.6546 0.0216
vn 0.7070 0.0245 -0.7068
vn 0.0453 0.5260 -0.8493
vn 0.1869 0.6873 -0.7019
vn 0.3797 0.2694 -0.8850
vn 0.5829 0.1873 -0.7906
vn 0.5955 0.6084 -0.5247
vn 0.3310 0.9273 -0.1746
vn -0.8166 0.3516 0.4578
vn -0.8454 0.5244 0.1009
vn -0.7459 0.3042 0.5925
vn -0.6578 0.6289 0.4145
vn -0.7358 0.2187 0.6409
vn -0.8355 0.4652 0.2924
vn -0.8122 0.3958 0.4286
vn -0.7078 0.7023 -0.0760
vn -0.5460 0.8372 -0.0316
vn -0.7668 0.5882 -0.2570
vn -0.2305 0.8227 0.5196
vn -0.8719 0.2756 -0.4048
vn -0.9324 0.3455 -0.1059
vn -0.7772 0.6283 0.0354
vn -0.7527 0.6104 -0.2467
vn -0.7745 0.6323 0.0207
vn -0.7879 0.5007 -0.3584
vn -0.6846 0.7289 -0.0030
vn -0.6755 0.6438 -0.3593
vn -0.7597 0.5978 -0.2559
vn -0.3805 0.6725 -0.6348
vn -0.2502 0.9232 -0.2918
vn -0.4391 0.5293 -0.7260
vn -0.1577 -0.9329 -0.3237
vn -0.2195 -0.9157 -0.3366
vn 0.0340 -0.7868 -0.6163
vn -0.8467 0.5131 0.1408
vt 0.956431 0.377111
vt 0.661420 0.375251
vt 0.000048 0.443062
vt 0.331216 0.051243
vt 0.333540 0.105447
vt 0.712458 0.714172
vt 0.331216 0.875125
vt 0.821376 0.272941
vt 0.655592 0.208281
vt 0.475633 0.029179
vt 0.479026 0.883242
vt 0.083719 0.176496
vt 0.583343 0.121787
vt 0.437601 0.698804
vt 0.885888 0.188304
vt 0.399196 0.237304
vt 0.888775 0.723282
vt 0.599605 0.643793
vt 0.558732 0.591705
vt 0.368162 0.620789
vt 0.061086 0.161667
vt 0.173660 0.332842
vt 0.281647 0.197234
vt 0.481052 0.443611
vt 0.211466 0.475034
vt 0.417634 0.440690
vt 0.283713 0.485297
vt 0.901780 0.552494
vt 0.355515 0.348677
vt 0.384717 0.083389
vt 0.981002 0.676750
vt 0.331069 0.322784
vt 0.603630 0.709196
vt 0.530178 0.491376
vt 0.136677 0.010591
vt 0.536624 0.358932
vt 0.721962 0.129617
vt 0.651328 0.011257
vt 0.656359 0.823278
vt 0.861453 0.136867
vt 0.659093 0.571647
vt 0.013637 0.032621
vt 0.960812 0.032497
vt 0.414984 0.112774
vt 0.553393 0.018571
vt 0.556366 0.879859
vt 0.393737 0.907747
vt 0.425701 0.050142
vt 0.424271 0.904445
vt 0.066681 0.285749
vt 0.129587 0.155004
vt 0.623403 0.091752
vt 0.488729 0.175644
vt 0.627433 0.528979
vt 0.041984 0.039227
vt 0.483326 0.221124
vt 0.498744 0.593914
vt 0.914802 0.167727
vt 0.928882 0.256784
vt 0.657059 0.657720
vt 0.843069 0.080656
vt 0.906371 0.042309
vt 0.966301 0.102414
vt 0.005408 0.117643
vt 0.787606 0.255235
vt 0.630724 0.168740
vt 0.608704 0.172939
vt 0.616532 0.221202
vt 0.571885 0.276250
vt 0.567333 0.362442
vt 0.490662 0.394629
vt 0.458175 0.071053
vt 0.520399 0.089333
vt 0.511905 0.070815
vt 0.536070 0.123479
vt 0.558255 0.040544
vt 0.596023 0.903755
vt 0.487582 0.147020
vt 0.463009 0.096708
vt 0.868242 0.675452
vt 0.933158 0.680259
vt 0.885088 0.802742
vt 0.337023 0.662981
vt 0.331216 0.183605
vt 0.805336 0.676491
vt 0.824500 0.755198
vt 0.596624 0.549092
vt 0.076918 0.017518
vt 0.633408 0.611112
vt 0.576812 0.557218
vt 0.455689 0.792869
vt 0.404309 0.568286
vt 0.445345 0.576389
vt 0.040305 0.150371
vt 0.990266 0.152170
vt 0.020648 0.182979
vt 0.073451 0.095437
vt 0.026426 0.265656
vt 0.167599 0.411725
vt 0.060063 0.351287
vt 0.147947 0.260715
vt 0.206050 0.212032
vt 0.219377 0.287305
vt 0.287755 0.147611
vt 0.282169 0.263386
vt 0.386186 0.518070
vt 0.299757 0.107245
vt 0.315475 0.266324
vt 0.662229 0.254606
vt 0.854254 0.277313
vt 0.983476 0.258412
vt 0.000643 0.289471
vt 0.806540 0.117903
vt 0.666472 0.769741
vt 0.758919 0.173299
vt 0.659458 0.088330
vt 0.847082 0.209510
vt 0.662533 0.145598
vt 0.587609 0.214130
vt 0.632922 0.351536
vt 0.889432 0.334941
vt 0.632499 0.284529
vt 0.556588 0.232001
vt 0.568897 0.174839
vt 0.506727 0.349999
vt 0.428226 0.315362
vt 0.426137 0.380313
vt 0.515251 0.267103
vt 0.504363 0.310138
vt 0.641645 0.421887
vt 0.036668 0.424451
vt 0.054112 0.457668
vt 0.585945 0.399303
vt 0.547172 0.439099
vt 0.109029 0.456783
vt 0.542825 0.409415
vt 0.372686 0.178430
vt 0.380368 0.284705
vt 0.360179 0.150256
vt 0.749869 0.670594
vt 0.405659 0.163892
vt 0.448627 0.245890
vt 0.498303 0.107608
vt 0.616940 0.038433
vt 0.554619 0.076657
vt 0.499861 0.048628
vt 0.517624 0.907747
vt 0.346030 0.448954
vt 0.982920 0.491506
vt 0.328474 0.483908
vt 0.336872 0.408894
vt 0.933586 0.563219
vt 0.997228 0.606696
vt 0.325537 0.373529
vt 0.947969 0.610349
vt 0.312434 0.073228
vt 0.967808 0.865477
vt 0.350785 0.556163
vt 0.346514 0.257891
vt 0.844054 0.602269
vt 0.622693 0.759850
vt 0.642655 0.714053
vt 0.566782 0.513411
vt 0.106151 0.011954
vt 0.563848 0.663661
vt 0.567961 0.795408
vt 0.511740 0.735178
vt 0.614127 0.847157
vt 0.365739 0.046207
vt 0.368107 0.860223
vt 0.388627 0.751789
vt 0.421792 0.860747
vt 0.485560 0.662403
vt 0.393106 0.636317
vt 0.770931 0.777840
vt 0.337893 0.778964
vt 0.361810 0.714774
vt 0.398452 0.532102
vt 0.257407 0.044076
vt 0.493407 0.527669
vt 0.429215 0.536659
vt 0.982400 0.340536
vt 0.004765 0.346958
vt 0.577420 0.504936
vt 0.076064 0.041681
vt 0.113327 0.062755
vt 0.124610 0.380020
vt 0.112869 0.317600
vt 0.186535 0.089246
vt 0.165743 0.187998
vt 0.246272 0.403635
vt 0.244613 0.354337
vt 0.297252 0.346518
vt 0.486357 0.483927
vt 0.183081 0.005851
vt 0.422621 0.506653
vt 0.244985 0.056342
vt 0.231840 0.108404
vt 0.327336 0.132145
vt 0.979563 0.813441
s 1
f 83/117/1 8/15/2 39/59/3
f 39/59/3 8/15/2 38/58/4
f 82/115/5 26/40/6 83/117/1
f 38/58/4 8/15/2 26/40/6
f 130/182/7 39/59/3 80/111/8
f 25/37/9 81/113/10 82/115/5
f 83/117/1 79/110/11 3/8/12
f 41/63/13 38/58/4 26/40/6
f 80/111/8 38/58/4 67/95/14
f 38/58/4 41/63/13 67/95/14
f 88/124/15 43/67/16 84/119/17
f 44/68/18 43/67/16 42/66/19
f 94/130/20 85/120/21 1/2/22
f 46/70/23 86/122/24 85/120/21
f 24/36/25 45/69/26 46/70/23
f 45/69/26 44/68/18 86/122/24
f 44/68/18 3/9/12 86/122/24
f 86/122/24 3/9/12 79/109/11
f 34/53/27 88/124/15 87/123/28
f 87/123/28 84/119/17 45/69/26
f 42/66/19 33/52/29 82/116/5
f 82/116/5 104/144/30 25/38/9
f 42/66/19 6/13/31 33/52/29
f 43/67/16 88/124/15 6/13/31
f 42/66/19 43/67/16 6/13/31
f 89/125/32 47/71/33 91/127/34
f 91/127/34 18/26/35 107/148/36
f 45/69/26 93/129/37 92/128/38
f 93/129/37 90/126/39 92/128/38
f 93/129/37 89/125/32 91/127/34
f 96/134/40 17/24/41 97/136/42
f 17/24/41 47/71/33 97/136/42
f 97/136/42 47/71/33 24/36/25
f 95/133/43 97/136/42 46/70/23
f 108/151/44 91/127/34 107/148/36
f 9/16/45 99/138/46 112/159/47
f 28/44/48 100/139/49 20/30/50
f 101/141/51 100/139/49 28/44/48
f 100/139/49 112/159/47 58/84/52
f 34/53/27 101/141/51 53/78/53
f 105/145/54 50/74/55 52/76/56
f 52/76/56 50/74/55 106/146/57
f 103/143/58 49/73/59 51/75/60
f 48/72/61 49/73/59 54/79/62
f 54/79/62 49/73/59 103/143/58
f 105/145/54 52/76/56 33/52/29
f 33/52/29 6/13/31 105/145/54
f 6/13/31 49/73/59 105/145/54
f 6/13/31 51/75/60 49/73/59
f 53/78/53 54/79/62 103/143/58
f 103/143/58 51/75/60 53/78/53
f 51/75/60 6/13/31 88/124/15
f 30/48/63 48/72/61 20/30/50
f 120/169/64 20/30/50 2/4/65
f 48/72/61 28/44/48 20/30/50
f 28/44/48 54/79/62 53/78/53
f 10/17/66 55/80/67 56/81/68
f 58/85/52 55/80/67 10/17/66
f 107/149/36 109/153/69 110/155/70
f 107/149/36 110/155/70 108/152/44
f 19/28/71 108/152/44 112/160/47
f 59/86/72 10/17/66 57/82/73
f 56/81/68 21/31/74 143/200/75
f 10/17/66 56/81/68 143/200/75
f 2/6/65 59/86/72 125/175/76
f 2/6/65 58/85/52 59/86/72
f 112/160/47 110/155/70 55/80/67
f 60/87/77 11/18/78 62/90/79
f 113/161/80 114/162/81 25/39/9
f 116/165/82 11/18/78 22/33/83
f 114/162/81 40/60/84 81/114/10
f 62/90/79 12/19/85 128/180/86
f 60/87/77 62/90/79 115/163/87
f 116/165/82 12/19/85 11/18/78
f 27/41/88 40/60/84 61/89/89
f 27/41/88 61/89/89 35/54/90
f 40/60/84 114/162/81 61/89/89
f 63/91/91 118/167/92 117/166/93
f 118/167/92 63/91/91 123/173/94
f 119/168/95 29/46/96 117/166/93
f 52/77/56 29/46/96 119/168/95
f 29/46/96 4/11/97 63/91/91
f 113/161/80 117/166/93 22/33/83
f 117/166/93 118/167/92 22/33/83
f 120/170/64 63/91/91 122/172/98
f 121/171/99 63/91/91 120/170/64
f 120/170/64 122/172/98 30/47/63
f 121/171/99 7/14/100 63/91/91
f 72/101/101 74/103/102 138/192/103 15/22/104
f 122/172/98 63/91/91 4/11/97
f 23/34/105 128/180/86 140/194/106
f 116/165/82 37/57/107 12/19/85
f 124/174/108 7/14/100 121/171/99
f 65/93/109 7/14/100 124/174/108
f 126/177/110 121/171/99 125/176/76
f 125/176/76 121/171/99 120/170/64
f 57/83/73 126/177/110 125/176/76
f 77/106/111 127/178/112 111/158/113
f 111/158/113 127/178/112 13/20/114
f 127/178/112 64/92/115 13/20/114
f 128/180/86 65/93/109 129/181/116
f 37/57/107 65/93/109 128/180/86
f 37/57/107 7/14/100 65/93/109
f 65/93/109 64/92/115 129/181/116
f 64/92/115 127/178/112 129/181/116
f 14/21/117 5/12/118 69/98/119
f 68/97/120 14/21/117 66/94/121
f 31/50/122 71/100/123 130/183/7
f 67/96/14 14/21/117 69/98/119
f 27/42/88 35/55/90 41/64/13
f 35/55/90 68/97/120 66/94/121
f 41/64/13 66/94/121 67/96/14
f 135/189/124 132/186/125 23/35/105
f 135/189/124 32/51/126 132/186/125
f 23/35/105 132/186/125 131/185/127
f 132/186/125 68/97/120 131/185/127
f 137/191/128 15/22/104 138/192/103
f 137/191/128 70/99/129 15/22/104
f 94/131/20 71/100/123 96/135/40
f 94/131/20 96/135/40 95/132/43
f 31/50/122 134/188/130 71/100/123
f 31/50/122 72/101/101 134/188/130
f 96/135/40 70/99/129 17/25/41
f 136/190/131 32/51/126 135/189/124
f 73/102/132 136/190/131 135/189/124
f 74/103/102 72/101/101 73/102/132
f 72/101/101 32/51/126 136/190/131
f 107/150/36 18/27/35 109/154/69
f 17/25/41 70/99/129 137/191/128
f 139/193/133 138/192/103 74/103/102
f 142/198/134 16/23/135 76/105/136
f 75/104/137 16/23/135 141/197/138
f 138/192/103 139/193/133 137/191/128
f 73/102/132 76/105/136 74/103/102
f 76/105/136 139/193/133 74/103/102
f 78/108/139 21/32/74 109/154/69
f 141/197/138 142/198/134 140/195/106
f 142/198/134 135/189/124 140/195/106
f 143/199/75 21/32/74 77/107/111
f 143/199/75 77/107/111 111/156/113
f 78/108/139 75/104/137 77/107/111
f 78/108/139 16/23/135 75/104/137
f 83/117/1 26/40/6 8/15/2
f 1/1/22 39/59/3 130/182/7
f 79/110/11 39/59/3 1/1/22
f 86/121/24 79/110/11 1/1/22
f 79/110/11 83/117/1 39/59/3
f 80/111/8 39/59/3 38/58/4
f 81/113/10 40/61/84 26/40/6
f 82/115/5 81/113/10 26/40/6
f 42/65/19 83/117/1 3/8/12
f 41/63/13 26/40/6 27/43/88
f 27/43/88 26/40/6 40/62/84
f 84/119/17 43/67/16 44/68/18
f 85/120/21 86/122/24 1/2/22
f 46/70/23 45/69/26 86/122/24
f 3/9/12 44/68/18 42/66/19
f 53/78/53 51/75/60 88/124/15
f 92/128/38 87/123/28 45/69/26
f 87/123/28 88/124/15 84/119/17
f 45/69/26 84/119/17 44/68/18
f 82/116/5 33/52/29 104/144/30
f 83/118/1 42/66/19 82/116/5
f 24/36/25 47/71/33 89/125/32
f 46/70/23 97/136/42 24/36/25
f 18/26/35 47/71/33 17/24/41
f 91/127/34 47/71/33 18/26/35
f 87/123/28 92/128/38 36/56/140
f 45/69/26 24/36/25 93/129/37
f 24/36/25 89/125/32 93/129/37
f 93/129/37 91/127/34 90/126/39
f 85/120/21 94/130/20 95/133/43
f 95/133/43 96/134/40 97/136/42
f 85/120/21 95/133/43 46/70/23
f 99/138/46 102/142/141 90/126/39
f 98/137/142 101/141/51 9/16/45
f 102/142/141 99/138/46 9/16/45
f 36/56/140 102/142/141 9/16/45
f 108/151/44 19/29/71 91/127/34
f 112/159/47 99/138/46 19/29/71
f 19/29/71 99/138/46 90/126/39
f 19/29/71 90/126/39 91/127/34
f 20/30/50 100/139/49 2/5/65
f 101/141/51 98/137/142 100/139/49
f 28/44/48 53/78/53 101/141/51
f 100/139/49 98/137/142 112/159/47
f 112/159/47 98/137/142 9/16/45
f 36/56/140 92/128/38 102/142/141
f 92/128/38 90/126/39 102/142/141
f 34/53/27 36/56/140 9/16/45
f 34/53/27 9/16/45 101/141/51
f 50/74/55 105/145/54 49/73/59
f 48/72/61 50/74/55 49/73/59
f 48/72/61 106/146/57 50/74/55
f 25/38/9 104/144/30 52/76/56
f 33/52/29 52/76/56 104/144/30
f 29/45/96 52/76/56 106/146/57
f 36/56/140 34/53/27 87/123/28
f 34/53/27 53/78/53 88/124/15
f 120/169/64 30/48/63 20/30/50
f 30/48/63 4/10/97 106/146/57
f 48/72/61 30/48/63 106/146/57
f 28/44/48 48/72/61 54/79/62
f 110/155/70 56/81/68 55/80/67
f 109/153/69 21/31/74 110/155/70
f 110/155/70 21/31/74 56/81/68
f 108/152/44 110/155/70 112/160/47
f 111/157/113 57/82/73 143/200/75
f 57/82/73 10/17/66 143/200/75
f 112/160/47 55/80/67 58/85/52
f 100/140/49 58/85/52 2/6/65
f 125/175/76 59/86/72 57/82/73
f 59/86/72 58/85/52 10/17/66
f 22/33/83 11/18/78 113/161/80
f 113/161/80 11/18/78 114/162/81
f 12/19/85 62/90/79 11/18/78
f 60/87/77 61/89/89 11/18/78
f 61/89/89 114/162/81 11/18/78
f 119/168/95 113/161/80 25/39/9
f 117/166/93 113/161/80 119/168/95
f 118/167/92 116/165/82 22/33/83
f 25/39/9 114/162/81 81/114/10
f 23/34/105 62/90/79 128/180/86
f 37/57/107 128/180/86 12/19/85
f 131/184/127 60/87/77 115/163/87
f 115/163/87 62/90/79 23/34/105
f 35/54/90 61/89/89 60/87/77
f 29/46/96 63/91/91 117/166/93
f 52/77/56 119/168/95 25/39/9
f 29/46/96 106/147/57 4/11/97
f 30/49/63 122/172/98 4/11/97
f 116/165/82 118/167/92 123/173/94
f 116/165/82 123/173/94 37/57/107
f 37/57/107 123/173/94 7/14/100
f 123/173/94 63/91/91 7/14/100
f 126/177/110 124/174/108 121/171/99
f 13/20/114 64/92/115 124/174/108
f 13/20/114 124/174/108 126/177/110
f 65/93/109 124/174/108 64/92/115
f 2/7/65 125/176/76 120/170/64
f 57/83/73 13/20/114 126/177/110
f 111/158/113 13/20/114 57/83/73
f 140/194/106 128/180/86 129/181/116
f 141/196/138 140/194/106 129/181/116
f 141/196/138 129/181/116 127/178/112
f 67/96/14 66/94/121 14/21/117
f 68/97/120 5/12/118 14/21/117
f 1/3/22 130/183/7 94/131/20
f 130/183/7 71/100/123 94/131/20
f 130/183/7 69/98/119 31/50/122
f 80/112/8 69/98/119 130/183/7
f 69/98/119 5/12/118 31/50/122
f 31/50/122 5/12/118 72/101/101
f 35/55/90 131/185/127 68/97/120
f 60/88/77 131/185/127 35/55/90
f 41/64/13 35/55/90 66/94/121
f 80/112/8 67/96/14 69/98/119
f 140/195/106 135/189/124 23/35/105
f 132/186/125 32/51/126 5/12/118
f 132/186/125 5/12/118 68/97/120
f 115/164/87 23/35/105 131/185/127
f 133/187/143 134/188/130 15/22/104
f 133/187/143 15/22/104 70/99/129
f 134/188/130 72/101/101 15/22/104
f 96/135/40 71/100/123 133/187/143
f 71/100/123 134/188/130 133/187/143
f 96/135/40 133/187/143 70/99/129
f 73/102/132 72/101/101 136/190/131
f 32/51/126 72/101/101 5/12/118
f 109/154/69 18/27/35 137/191/128
f 18/27/35 17/25/41 137/191/128
f 141/197/138 16/23/135 142/198/134
f 137/191/128 139/193/133 109/154/69
f 76/105/136 78/108/139 109/154/69
f 76/105/136 16/23/135 78/108/139
f 139/193/133 76/105/136 109/154/69
f 73/102/132 142/198/134 76/105/136
f 135/189/124 142/198/134 73/102/132
f 77/107/111 21/32/74 78/108/139
f 77/107/111 75/104/137 141/197/138
f 127/179/112 77/107/111 141/197/138
