# Blender 3.4.1
# www.blender.org
mtllib Piramide2.mtl
o Cube.011
v -2.314233 22.744244 -4.803026
v -6.513367 22.744244 -4.803026
v -10.712500 22.744244 -4.803026
v -11.017445 10.846262 13.278999
v -2.009289 10.846262 13.278999
vn -0.0000 0.8354 0.5497
vt 0.000000 0.000000
vt 0.000000 0.000000
vt 0.000000 0.000000
vt 0.000000 0.000000
vt 0.000000 0.000000
s 0
usemtl porta
f 5/5/1 1/1/1 2/2/1 3/3/1 4/4/1
o Cube.005
v -23.309900 2.700403 -4.803026
v -23.309900 22.744244 -4.803026
v -23.309900 2.700403 -38.396095
v -23.309900 22.744244 -38.396095
v 10.283167 2.700403 -4.803026
v 10.283167 22.744244 -4.803026
v 10.283167 2.700403 -38.396095
v 10.283167 22.744244 -38.396095
v -23.309900 22.744244 -9.002159
v -23.309900 22.744244 -13.201293
v -23.309900 22.744244 -17.400427
v -23.309900 22.744244 -21.599560
v -23.309900 22.744244 -25.798693
v -23.309900 22.744244 -29.997826
v -23.309900 22.744244 -34.196960
v -19.110767 22.744244 -38.396095
v -14.911633 22.744244 -38.396095
v -10.712500 22.744244 -38.396095
v -6.513367 22.744244 -38.396095
v -2.314233 22.744244 -38.396095
v 1.884900 22.744244 -38.396095
v 6.084034 22.744244 -38.396095
v 10.283167 22.744244 -34.196960
v 10.283167 22.744244 -29.997826
v 10.283167 22.744244 -25.798693
v 10.283167 22.744244 -21.599560
v 10.283167 22.744244 -17.400427
v 10.283167 22.744244 -13.201293
v 10.283167 22.744244 -9.002159
v 6.084034 22.744244 -4.803026
v 1.884900 22.744244 -4.803026
v -2.314233 22.744244 -4.803026
v -6.513367 22.744244 -4.803026
v -10.712500 22.744244 -4.803026
v -14.911633 22.744244 -4.803026
v -19.110767 22.744244 -4.803026
v 6.084034 22.744244 -34.196960
v 6.084034 22.744244 -29.997826
v 6.084034 22.744244 -25.798693
v 6.084034 22.744244 -21.599560
v 6.084034 22.744244 -17.400427
v 6.084034 22.744244 -13.201293
v 6.084034 22.744244 -9.002159
v 1.884900 22.744244 -34.196960
v 1.884900 22.744244 -29.997826
v 1.884900 22.744244 -25.798693
v 1.884900 22.744244 -21.599560
v 1.884900 22.744244 -17.400427
v 1.884900 22.744244 -13.201293
v 1.884900 22.744244 -9.002159
v -2.314233 22.744244 -34.196960
v -2.314233 22.744244 -29.997826
v -2.314233 22.744244 -25.798693
v -2.314233 22.744244 -21.599560
v -2.314233 22.744246 -17.400427
v -2.314233 22.744246 -13.201293
v -2.314233 22.744246 -9.002159
v -6.513367 22.744244 -34.196960
v -6.513367 22.744244 -29.997826
v -6.513367 22.744244 -25.798693
v -6.513367 22.744244 -21.599560
v -6.513367 22.744244 -17.400427
v -6.513367 22.744244 -13.201293
v -6.513367 22.744244 -9.002159
v -10.712500 22.744244 -34.196960
v -10.712500 22.744244 -29.997826
v -10.712500 22.744244 -25.798693
v -10.712500 22.744244 -21.599560
v -10.712500 22.744244 -17.400427
v -10.712500 22.744244 -13.201293
v -10.712500 22.744244 -9.002159
v -14.911633 22.744244 -34.196960
v -14.911633 22.744244 -29.997826
v -14.911633 22.744244 -25.798693
v -14.911633 22.744244 -21.599560
v -14.911633 22.744244 -17.400427
v -14.911633 22.744244 -13.201293
v -14.911633 22.744244 -9.002159
v -19.110767 22.744244 -34.196960
v -19.110767 22.744244 -29.997826
v -19.110767 22.744244 -25.798693
v -19.110767 22.744244 -21.599560
v -19.110767 22.744244 -17.400427
v -19.110767 22.744244 -13.201293
v -19.110767 22.744244 -9.002159
v 6.084034 35.705242 -34.196960
v 6.084034 35.705242 -29.997826
v 6.084034 35.705242 -25.798693
v 6.084034 35.705242 -17.400427
v 6.084034 35.705242 -13.201293
v 6.084034 35.705242 -9.002159
v 1.884900 35.705242 -34.196960
v 1.884900 35.705242 -25.798693
v 1.884900 35.705242 -17.400427
v 1.884900 35.705242 -9.002159
v -2.314233 35.705242 -34.196960
v -2.314233 35.705242 -29.997826
v -2.314233 35.705242 -25.798693
v -2.314233 35.705238 -17.400427
v -2.314233 35.705238 -13.201293
v -2.314233 35.705238 -9.002159
v -10.712500 35.705242 -34.196960
v -10.712500 35.705242 -29.997826
v -10.712500 35.705242 -25.798693
v -10.712500 35.705242 -17.400427
v -10.712500 35.705242 -13.201293
v -10.712500 35.705242 -9.002159
v -14.911633 35.705242 -34.196960
v -14.911633 35.705242 -25.798693
v -14.911633 35.705242 -17.400427
v -14.911633 35.705242 -9.002159
v -19.110767 35.705242 -34.196960
v -19.110767 35.705242 -29.997826
v -19.110767 35.705242 -25.798693
v -19.110767 35.705242 -17.400427
v -19.110767 35.705242 -13.201293
v -19.110767 35.705242 -9.002159
v -16.591288 2.700403 -4.803026
v -9.872674 2.700403 -4.803026
v -3.154060 2.700403 -4.803026
v 3.564554 2.700403 -4.803026
v -23.309900 10.846262 -4.803026
v 10.283167 10.846262 -4.803026
v -16.591288 10.846262 -4.803026
v -11.350144 10.846262 -4.803026
v -1.676589 10.846262 -4.803026
v 3.564554 10.846262 -4.803026
v -11.017445 10.846262 13.278999
v -2.009289 10.846262 13.278999
v -24.317638 35.705238 -6.015181
v -24.317638 42.175117 -6.015181
v -24.249447 35.705238 -36.091324
v -24.249447 42.175117 -36.091324
v 10.014578 35.705238 -6.015181
v 10.014578 42.175117 -6.015181
v 9.946386 35.705238 -36.091324
v 9.946386 42.175117 -36.091324
v 3.564554 2.700403 28.593887
v 10.283167 2.700403 28.593887
v -23.309900 2.700403 28.593887
v -16.591288 2.700403 28.593887
v -9.872674 2.700403 28.593887
v -3.154060 2.700403 28.593887
v 3.564554 10.846262 28.593887
v 10.283167 10.846262 28.593887
v -23.309900 10.846262 28.593887
v -16.591288 10.846262 28.593887
v -11.350144 10.846262 28.593887
v -1.676589 10.846262 28.593887
vn -1.0000 -0.0000 -0.0000
vn -0.0000 -0.0000 -1.0000
vn 1.0000 -0.0000 -0.0000
vn -0.0000 -0.0000 1.0000
vn -0.0000 1.0000 -0.0000
vn 0.9984 0.0535 0.0184
vn -0.9984 0.0535 0.0184
vn -1.0000 -0.0000 -0.0023
vn 1.0000 -0.0000 -0.0023
vn -0.0000 -1.0000 -0.0000
vt 5.128689 0.514114
vt 0.021710 -5.185263
vt 3.961113 3.888591
vt 5.128689 0.105644
vt 0.021710 -4.366737
vt -3.053024 5.860213
vt 5.968037 0.514114
vt 15.945687 -0.798253
vt 5.968037 0.105644
vt 15.945687 -0.237198
vt -3.053024 4.525446
vt 10.039513 3.365306
vt 0.988229 -5.185263
vt 7.942241 2.483927
vt 10.039513 3.942628
vt 0.988228 -4.366737
vt -4.387792 5.860213
vt 15.095840 -0.798253
vt 10.969498 3.365306
vt 15.095840 -0.237198
vt 10.969498 3.942629
vt -4.387792 4.525446
vt 5.233607 0.105644
vt -3.053024 5.693367
vt 5.338525 0.105644
vt -3.053024 5.526522
vt 5.443443 0.105644
vt -3.053024 5.359675
vt 5.548362 0.105644
vt -3.053024 5.192829
vt 5.653280 0.105644
vt -3.053024 5.025984
vt 5.758198 0.105644
vt -3.053024 4.859138
vt 5.863119 0.105644
vt -3.053024 4.692292
vt 15.839458 -0.237198
vt -3.219870 4.525446
vt 15.733227 -0.237198
vt -3.386716 4.525446
vt 15.626996 -0.237198
vt -3.553562 4.525446
vt 15.520760 -0.237198
vt -3.720408 4.525446
vt 15.414530 -0.237198
vt -3.887254 4.525446
vt 15.308300 -0.237198
vt -4.054100 4.525446
vt 15.202069 -0.237198
vt -4.220946 4.525446
vt 10.853249 3.942629
vt -4.387792 4.692292
vt 10.737001 3.942629
vt -4.387792 4.859138
vt 10.620753 3.942629
vt -4.387792 5.025984
vt 10.504505 3.942629
vt -4.387792 5.192829
vt 10.388257 3.942628
vt -4.387792 5.359675
vt 10.272009 3.942628
vt -4.387792 5.526521
vt 10.155762 3.942628
vt -4.387792 5.693367
vt 0.867414 -4.366737
vt -4.220946 5.860213
vt 0.746599 -4.366737
vt -4.054100 5.860213
vt 0.625784 -4.366737
vt -3.887254 5.860213
vt -6.042828 -2.519549
vt 0.504969 -4.366737
vt -3.720408 5.860213
vt 0.384155 -4.366737
vt -3.553562 5.860213
vt -5.130931 -3.624026
vt 0.263340 -4.366737
vt -3.386716 5.860213
vt 0.142525 -4.366737
vt -3.219870 5.860213
vt -4.220946 4.692292
vt 4.087307 0.131314
vt 4.864012 -2.937597
vt -4.220946 4.859138
vt 4.581082 -2.937597
vt -4.220946 5.025984
vt 4.298153 -2.937597
vt 5.920324 0.272797
vt -4.220946 5.192829
vt -4.220946 5.359675
vt 4.830239 3.279037
vt 6.195746 -3.885259
vt -4.220946 5.526521
vt 4.563710 3.279037
vt -4.220946 5.693367
vt 4.297172 3.279037
vt 5.006193 2.226215
vt -4.054100 4.692292
vt 4.363160 0.131314
vt -4.054100 4.859138
vt -4.054100 5.025984
vt 5.585875 0.272797
vt -4.054100 5.192829
vt -4.054100 5.359675
vt 6.737603 -3.885259
vt -4.054100 5.526522
vt -4.054100 5.693367
vt 4.793051 2.226215
vt -3.887254 4.692292
vt 4.639005 0.131314
vt 4.813933 -3.169655
vt -3.887254 4.859138
vt 4.449698 -3.169655
vt -3.887254 5.025984
vt 5.251425 0.272797
vt 4.085474 -3.169653
vt -3.887254 5.192829
vt -3.887254 5.359675
vt 7.279460 -3.885259
vt 6.012057 1.027917
vt -3.887254 5.526522
vt 6.504494 1.027915
vt -3.887254 5.693367
vt 4.579902 2.226215
vt 6.996931 1.027915
vt -3.720408 4.692292
vt -3.720408 4.859138
vt -3.720408 5.025984
vt -3.720408 5.192829
vt -3.720408 5.359675
vt -3.720408 5.526522
vt -3.720408 5.693367
vt -3.553562 4.692292
vt -7.230392 1.015704
vt -4.867752 0.004799
vt -3.553562 4.859138
vt -7.539183 1.015704
vt -3.553562 5.025984
vt -7.847966 1.015704
vt -7.248107 -1.994165
vt -3.553562 5.192829
vt -3.553562 5.359675
vt 2.698878 1.104080
vt 1.126539 6.142060
vt -3.553562 5.526522
vt 2.505950 1.104080
vt 2.500290 1.100722
vt -3.553562 5.693367
vt 5.473755 2.128638
vt 2.307365 1.100722
vt -3.386716 4.692292
vt -4.474814 0.004799
vt -3.386716 4.859138
vt -3.386716 5.025984
vt -7.472072 -1.994165
vt -3.386716 5.192829
vt -3.386716 5.359675
vt 1.500725 6.142060
vt -3.386716 5.526522
vt -3.386716 5.693367
vt 5.247349 2.128638
vt -3.219870 4.692292
vt -4.081877 0.004799
vt -7.972598 1.038550
vt -3.219870 4.859138
vt -7.635457 1.038550
vt -3.219870 5.025984
vt -7.696031 -1.994165
vt -7.298316 1.038550
vt -3.219870 5.192829
vt -3.219870 5.359675
vt 1.874906 6.142060
vt 4.814312 1.837470
vt -3.219870 5.526522
vt 4.416495 1.837470
vt -3.219870 5.693367
vt 5.020944 2.128638
vt 4.018679 1.837470
vt 4.087307 0.893715
vt 4.864012 -2.034405
vt 0.636915 0.416606
vt 4.581082 -2.034405
vt 0.620154 0.416606
vt 4.298153 -2.034405
vt 5.920324 0.950657
vt 0.603393 0.416606
vt 4.830239 3.983406
vt 6.195746 -3.021389
vt 0.569871 0.416606
vt 4.563702 3.983406
vt 0.569871 0.433367
vt 4.297172 3.983406
vt 5.006193 2.973864
vt 0.569871 0.450127
vt 4.363160 0.893715
vt 0.636915 0.433367
vt 5.585875 0.950657
vt 0.603393 0.433367
vt 6.737603 -3.021389
vt 0.586632 0.416606
vt 4.793044 2.973864
vt 0.586632 0.450127
vt 4.639005 0.893715
vt 4.813933 -3.985026
vt 0.636915 0.450127
vt 4.449698 -3.985026
vt 0.620154 0.450127
vt 5.251425 0.950657
vt 4.085474 -3.985026
vt 0.603393 0.450127
vt 7.279460 -3.021389
vt 6.012057 2.030480
vt 0.603393 0.416606
vt 6.504494 2.030480
vt 0.603393 0.433367
vt 4.579902 2.973864
vt 6.996931 2.030480
vt 0.603393 0.450127
vt -7.230392 1.839420
vt -4.867763 0.904873
vt 0.536349 0.416606
vt -7.539183 1.839420
vt 0.536349 0.433367
vt -7.847966 1.839420
vt -7.248113 -1.048665
vt 0.536349 0.450127
vt 2.698875 1.902724
vt 1.126539 6.937296
vt 0.670437 0.416606
vt 2.505950 1.902724
vt 2.500290 1.899365
vt 0.653676 0.416606
vt 5.473755 2.914499
vt 2.307365 1.899365
vt 0.636915 0.416606
vt -4.474814 0.904873
vt 0.553110 0.416606
vt -7.472072 -1.048665
vt 0.553110 0.450127
vt 1.500725 6.937296
vt 0.670437 0.433367
vt 5.247349 2.914499
vt 0.636915 0.433367
vt -4.081877 0.904873
vt -7.972598 1.753817
vt 0.569871 0.416606
vt -7.635457 1.753817
vt 0.569871 0.433367
vt -7.696031 -1.048665
vt -7.298316 1.753817
vt 0.569871 0.450127
vt 1.874906 6.937296
vt 4.814312 1.039630
vt 0.670437 0.450127
vt 4.416495 1.039630
vt 0.653676 0.450127
vt 5.020944 2.914499
vt 4.018679 1.039630
vt 0.636915 0.450127
vt 0.215014 -5.185263
vt 0.408318 -5.185263
vt 0.601621 -5.185263
vt 0.794925 -5.185263
vt 3.961113 3.672629
vt 0.043432 6.975457
vt 0.920445 6.988265
vt 7.942241 2.762591
vt 0.218834 6.978019
vt -5.130931 -2.519549
vt 0.355666 6.980017
vt -6.042828 -3.624026
vt 0.608212 6.983706
vt 0.745043 6.985703
vt -6.042828 -2.519557
vt -6.954725 -3.624018
vt 3.010486 0.204457
vt 1.044527 -1.863511
vt 0.134087 0.650135
vt 3.010486 0.062874
vt 1.044527 -1.645666
vt 3.030436 5.830782
vt 3.962590 0.204457
vt 7.967268 -1.890586
vt 0.254137 0.650135
vt 3.962590 0.062874
vt 7.967268 -1.698654
vt 3.722887 5.830782
vt 4.998787 0.533345
vt 1.936429 -1.863511
vt 0.134087 0.786628
vt 4.998787 0.713152
vt 1.936429 -1.645666
vt 3.030436 5.043483
vt 7.009191 -1.890586
vt 5.966947 0.533345
vt 0.254137 0.786628
vt 7.009191 -1.698654
vt 5.966947 0.713152
vt 3.722887 5.043483
vt -4.202478 0.619768
vt 7.027073 2.483927
vt -4.022840 0.619768
vt 3.155788 3.888591
vt -4.921021 0.619768
vt -4.741385 0.619768
vt -4.561748 0.619768
vt -4.382113 0.619768
vt 0.757776 6.113811
vt -4.202478 0.939092
vt 0.933178 6.116372
vt 7.027073 2.762591
vt -4.022840 0.939092
vt 3.155788 3.672629
vt 0.056165 6.103564
vt -4.921021 0.939092
vt 0.231567 6.106126
vt -4.741385 0.939092
vt 0.368399 6.108124
vt -4.601253 0.939092
vt 0.620945 6.111812
vt -4.342608 0.939092
s 0
usemtl Rock_mat
f 6/6/2 7/9/2 14/28/2 15/30/2 16/32/2 17/34/2 18/36/2 19/38/2 20/40/2 9/14/2 8/12/2
f 8/13/3 9/15/3 21/42/3 22/44/3 23/46/3 24/48/3 25/50/3 26/52/3 27/54/3 13/25/3 12/23/3
f 12/24/4 13/26/4 28/56/4 29/58/4 30/60/4 31/62/4 32/64/4 33/66/4 34/68/4 11/20/4 10/17/4
f 10/18/5 11/21/5 35/70/5 36/72/5 37/74/5 38/77/5 39/79/5 40/82/5 41/84/5 7/10/5 6/7/5 123/265/5 124/266/5 125/267/5 126/268/5
f 90/181/6 14/29/6 7/11/6 41/85/6
f 34/69/6 48/100/6 35/71/6 11/22/6
f 48/100/6 55/112/6 36/73/6 35/71/6
f 55/112/6 62/128/6 37/75/6 36/73/6
f 62/128/6 69/137/6 38/78/6 37/75/6
f 69/137/6 76/153/6 39/80/6 38/78/6
f 76/153/6 83/165/6 40/83/6 39/80/6
f 83/165/6 90/181/6 41/85/6 40/83/6
f 13/27/6 27/55/6 42/86/6 28/57/6
f 28/57/6 42/86/6 43/89/6 29/59/6
f 29/59/6 43/89/6 44/91/6 30/61/6
f 30/61/6 44/91/6 45/94/6 31/63/6
f 31/63/6 45/94/6 46/95/6 32/65/6
f 32/65/6 46/95/6 47/98/6 33/67/6
f 33/67/6 47/98/6 48/100/6 34/69/6
f 27/55/6 26/53/6 49/103/6 42/86/6
f 42/86/6 49/103/6 50/105/6 43/89/6
f 43/89/6 50/105/6 51/106/6 44/91/6
f 44/91/6 51/106/6 52/108/6 45/94/6
f 45/94/6 52/108/6 53/109/6 46/95/6
f 46/95/6 53/109/6 54/111/6 47/98/6
f 47/98/6 54/111/6 55/112/6 48/100/6
f 26/53/6 25/51/6 56/114/6 49/103/6
f 49/103/6 56/114/6 57/117/6 50/105/6
f 50/105/6 57/117/6 58/119/6 51/106/6
f 51/106/6 58/119/6 59/122/6 52/108/6
f 52/108/6 59/122/6 60/123/6 53/109/6
f 53/109/6 60/123/6 61/126/6 54/111/6
f 54/111/6 61/126/6 62/128/6 55/112/6
f 25/51/6 24/49/6 63/131/6 56/114/6
f 56/114/6 63/131/6 64/132/6 57/117/6
f 57/117/6 64/132/6 65/133/6 58/119/6
f 58/119/6 65/133/6 66/134/6 59/122/6
f 59/122/6 66/134/6 67/135/6 60/123/6
f 60/123/6 67/135/6 68/136/6 61/126/6
f 61/126/6 68/136/6 69/137/6 62/128/6
f 24/49/6 23/47/6 70/138/6 63/131/6
f 63/131/6 70/138/6 71/141/6 64/132/6
f 64/132/6 71/141/6 72/143/6 65/133/6
f 65/133/6 72/143/6 73/146/6 66/134/6
f 66/134/6 73/146/6 74/147/6 67/135/6
f 67/135/6 74/147/6 75/150/6 68/136/6
f 68/136/6 75/150/6 76/153/6 69/137/6
f 23/47/6 22/45/6 77/156/6 70/138/6
f 70/138/6 77/156/6 78/158/6 71/141/6
f 71/141/6 78/158/6 79/159/6 72/143/6
f 72/143/6 79/159/6 80/161/6 73/146/6
f 73/146/6 80/161/6 81/162/6 74/147/6
f 74/147/6 81/162/6 82/164/6 75/150/6
f 75/150/6 82/164/6 83/165/6 76/153/6
f 22/45/6 21/43/6 84/167/6 77/156/6
f 77/156/6 84/167/6 85/170/6 78/158/6
f 78/158/6 85/170/6 86/172/6 79/159/6
f 79/159/6 86/172/6 87/175/6 80/161/6
f 80/161/6 87/175/6 88/176/6 81/162/6
f 81/162/6 88/176/6 89/179/6 82/164/6
f 82/164/6 89/179/6 90/181/6 83/165/6
f 21/43/6 9/16/6 20/41/6 84/167/6
f 84/167/6 20/41/6 19/39/6 85/170/6
f 85/170/6 19/39/6 18/37/6 86/172/6
f 86/172/6 18/37/6 17/35/6 87/175/6
f 87/175/6 17/35/6 16/33/6 88/176/6
f 88/176/6 16/33/6 15/31/6 89/179/6
f 89/179/6 15/31/6 14/29/6 90/181/6
f 49/104/3 56/115/3 101/208/3 97/200/3
f 43/90/4 92/187/4 93/189/4 44/92/4
f 76/154/5 112/238/5 116/247/5 83/166/5
f 77/157/3 84/168/3 117/249/3 113/241/3
f 57/118/2 102/211/2 101/209/2 56/116/2
f 51/107/5 98/202/5 103/213/5 58/120/5
f 57/118/2 58/121/2 103/214/2 102/211/2
f 47/99/4 46/96/4 94/192/4 95/195/4
f 79/160/5 114/243/5 119/254/5 86/173/5
f 53/110/3 60/124/3 104/216/3 99/204/3
f 47/99/4 95/195/4 96/197/4 48/101/4
f 71/142/4 70/139/4 107/224/4 108/227/4
f 81/163/3 88/177/3 120/257/3 115/245/3
f 71/142/4 108/227/4 109/229/4 72/144/4
f 61/127/2 105/219/2 104/217/2 60/125/2
f 55/113/5 100/206/5 106/221/5 62/129/5
f 42/87/3 49/104/3 97/200/3 91/184/3
f 61/127/2 62/130/2 106/222/2 105/219/2
f 85/171/2 118/252/2 117/250/2 84/169/2
f 83/166/5 116/247/5 122/262/5 90/182/5
f 70/140/3 77/157/3 113/241/3 107/225/3
f 85/171/2 86/174/2 119/255/2 118/252/2
f 75/151/4 74/148/4 110/232/4 111/235/4
f 44/93/5 93/190/5 98/202/5 51/107/5
f 75/152/4 111/236/4 112/239/4 76/155/4
f 72/145/5 109/230/5 114/243/5 79/160/5
f 46/97/3 53/110/3 99/204/3 94/193/3
f 89/180/2 121/260/2 120/258/2 88/178/2
f 74/149/3 81/163/3 115/245/3 110/233/3
f 89/180/2 90/183/2 122/263/2 121/260/2
f 43/90/4 42/88/4 91/185/4 92/187/4
f 48/102/5 96/198/5 100/206/5 55/113/5
f 92/188/6 91/186/6 97/201/6 101/210/6 102/212/6 103/215/6 98/203/6 93/191/6
f 95/196/6 94/194/6 99/205/6 104/218/6 105/220/6 106/223/6 100/207/6 96/199/6
f 108/228/6 107/226/6 113/242/6 117/251/6 118/253/6 119/256/6 114/244/6 109/231/6
f 111/237/6 110/234/6 115/246/6 120/259/6 121/261/6 122/264/6 116/248/6 112/240/6
f 6/8/2 145/308/2 151/318/2 127/269/2
f 134/280/7 131/276/7 37/76/7
f 133/279/8 39/81/8 130/274/8
f 135/281/9 136/284/9 138/290/9 137/287/9
f 137/288/3 138/291/3 142/302/3 141/299/3
f 141/300/10 142/303/10 140/296/10 139/293/10
f 139/294/5 140/297/5 136/285/5 135/282/5
f 137/289/11 141/301/11 139/295/11 135/283/11
f 142/304/6 138/292/6 136/286/6 140/298/6
f 127/270/6 151/319/6 152/321/6 153/323/6 154/325/6 149/313/6 150/315/6 128/271/6 132/278/6 131/277/6 130/275/6 129/273/6
f 10/19/4 128/272/4 150/316/4 144/306/4
f 148/312/5 143/305/5 144/307/5 150/317/5 149/314/5 154/326/5 153/324/5 152/322/5 151/320/5 145/309/5 146/310/5 147/311/5
