# Blender 3.5.1
# www.blender.org
mtllib PedronaLowPoly2.mtl
o rock.001
v -0.635830 0.172081 -1.047826
v 0.820421 -1.263363 0.757993
v -0.104069 -1.826325 -0.151177
v 0.565075 -1.679662 -0.472448
v 0.923698 -1.418271 -0.493500
v 0.639999 -0.946064 -0.830235
v -0.949636 0.311629 0.141820
v -0.832095 0.934932 -0.727310
v -0.766628 -0.447783 0.854044
v -0.876562 0.013846 0.645504
v -0.847772 1.105724 -0.570759
v -0.246535 1.965643 0.969801
v 0.706161 1.309663 -0.040651
v 0.823085 1.389887 -0.624780
v -0.085810 -1.544054 0.419919
v 0.589643 -1.848792 -0.086559
v 0.471031 -1.556100 0.547988
v 0.322780 -1.863637 0.285567
v -0.463178 -1.524304 -0.151583
v 0.233201 -1.850614 -0.764194
v -0.904620 -0.189686 -0.539162
v -0.607541 -1.035148 -0.722466
v -0.223041 -0.932861 -0.987754
v -1.148851 1.159490 0.273044
v -1.051471 0.494433 -0.374627
v -0.173923 1.579668 1.047041
v -0.885407 1.415468 0.854450
v -0.537707 1.786016 0.884120
v -0.560891 1.167880 1.149969
v -0.480134 1.500489 1.182367
v 0.283673 -0.486838 1.213637
v 0.125647 -0.178357 1.171825
v 0.917048 -0.699343 0.916338
v 0.967692 -0.499932 -0.178044
v 0.991941 -0.424837 0.110340
v 0.845141 1.040828 0.543084
v 0.953061 -1.116703 -0.123113
v 0.431196 -0.434189 -1.242715
v 0.333328 0.365597 -1.320036
v 0.060724 0.592092 -1.248227
v 0.048652 0.852222 -1.154682
v -0.185897 0.033174 -1.191440
v -0.392247 -0.405788 -1.012280
v -0.062085 -1.495916 -1.081894
v -0.380622 1.178972 -0.910159
v 0.672063 1.717611 0.337519
v -0.735845 1.894566 0.038132
v 0.004071 2.200461 0.288090
v -0.458342 1.363332 -0.544070
v 0.125269 -1.863190 0.078466
v 0.196849 -1.656380 0.510250
v -0.375323 -1.309101 0.791671
v -0.498750 -1.496683 0.331340
v -0.199650 -1.760537 0.102199
v 0.262219 -1.281018 0.956261
v 0.788885 -1.234658 0.144542
v 0.660841 -1.731824 0.292688
v -0.577602 -1.514747 -0.547657
v -0.076721 -1.838021 -0.866389
v 0.172881 -1.816487 -0.442963
v -0.232074 -1.948226 -0.475905
v -0.837118 -1.253375 -0.042053
v -0.303996 -1.551112 -0.745119
v -1.025358 -0.812096 -0.169182
v -0.580824 -0.326417 -0.759459
v -0.640349 -1.043816 -0.506719
v -0.656902 -0.813342 -0.875294
v -0.918235 -0.638996 -0.549197
v -0.699905 -0.959695 0.263140
v -1.052936 -0.514276 0.361006
v -0.884563 -0.207976 -0.150036
v -1.047310 0.087817 -0.118555
v -0.856838 0.344522 -0.614213
v -0.365100 -1.239879 -0.919294
v -1.125485 0.330895 0.575989
v -1.240052 0.661605 0.553334
v -1.078112 0.955275 0.052551
v -1.089932 0.633544 -0.064951
v -0.880498 1.288433 -0.026150
v -1.143571 0.787250 0.834804
v -1.029915 0.029866 0.272751
v -0.750001 1.646497 0.642511
v -0.997479 1.760236 0.220053
v -1.127505 1.331579 0.643695
v -0.748091 1.453010 -0.381206
v -0.835384 1.473859 -0.103120
v -0.581129 0.015127 1.071540
v 0.246680 1.374700 0.896701
v 0.062942 1.109043 0.960583
v -0.217436 1.097336 1.142454
v -0.612222 0.924056 1.145269
v -0.148157 0.241744 0.970875
v -0.865065 0.338703 0.926675
v -0.345726 0.610335 1.161080
v 0.476458 1.222353 0.674077
v 0.462910 0.936225 1.013549
v 0.443390 0.606650 1.178344
v -0.081068 0.671513 1.173456
v 0.032619 -0.913051 1.062560
v 0.354657 0.296634 1.163639
v 0.537551 -0.123576 1.066032
v 0.391169 -0.889199 0.981357
v 0.553712 -0.548854 1.158352
v -0.646986 -0.826377 0.732353
v -0.251882 -0.533972 0.872933
v -0.168776 -1.327290 0.925136
v -0.207512 -0.160141 1.102549
v 1.039809 0.854213 0.123342
v 1.106837 0.565421 0.384660
v 1.056275 0.634081 -0.507249
v 1.206336 0.567675 -0.159983
v 1.021073 0.435992 0.657248
v 0.950790 0.229460 -0.726100
v 1.133241 0.210907 -0.130444
v 1.180114 -0.097961 -0.123863
v 1.030753 0.125972 0.249858
v 1.031494 0.105904 0.604882
v 1.107849 -0.163278 -0.575255
v 1.114040 -0.317287 0.582758
v 1.001158 -0.699768 -0.110570
v 1.079904 -0.871652 0.313226
v 0.774137 0.803167 -0.834429
v 0.923243 1.171726 -0.510319
v 1.068545 1.004946 -0.268957
v 0.805540 1.198368 0.117443
v 0.757143 0.789945 0.654730
v 0.739327 0.278451 0.890497
v 0.904976 -0.233043 0.857254
v 0.957047 -1.056374 0.725717
v 0.890596 -0.633126 -0.793387
v 0.989067 -0.963249 -0.543562
v 0.723319 -0.408118 -0.905153
v 0.688148 -0.184511 -1.098645
v 0.581017 -0.783728 -1.131381
v 0.508059 -1.182350 -1.087540
v 0.326578 -0.941386 -1.306919
v 0.036124 -1.010642 -1.192560
v -0.230871 0.472164 -1.131532
v 0.108359 -0.043115 -1.350292
v 0.140820 -0.565669 -1.370406
v 0.708643 0.538721 -0.904306
v 0.823130 0.108949 -1.069462
v 0.337419 -1.571945 -0.957184
v -0.386465 -0.626107 -1.090327
v -0.688430 0.514388 -0.821830
v -0.305259 0.746169 -0.869179
v 0.091911 1.301149 -1.135512
v 0.568115 0.707690 -1.029514
v 0.057461 1.805357 -0.729833
v 0.428052 1.800045 -0.312290
v 0.428772 1.706667 -0.664732
v -0.375172 2.066266 -0.336800
v -0.257547 2.132483 -0.219252
v 0.234338 2.030652 0.279450
v -0.462335 1.942680 0.271066
v 0.490633 1.827030 0.542032
v -0.329092 2.064731 0.469009
v 0.585139 1.180829 -0.956293
v 0.112942 1.486494 -0.970770
v -0.143779 1.360742 -0.984263
v -0.252724 1.630793 -0.659301
v -0.656120 1.966006 0.551226
v 0.061588 2.015214 0.869426
v 0.749613 1.334118 0.443477
v 0.688192 1.591404 -0.249833
v -0.735845 1.894566 0.038132
v 0.004071 2.200461 0.288090
v 0.234338 2.030652 0.279450
v -0.462335 1.942680 0.271066
v -0.329092 2.064731 0.469009
vn -0.3193 -0.8352 0.4477
vn -0.5889 -0.5190 0.6195
vn -0.6298 -0.6876 0.3613
vn -0.1822 -0.9697 0.1628
vn -0.1437 -0.8089 0.5702
vn 0.6429 -0.6861 0.3405
vn 0.4148 -0.9015 -0.1237
vn 0.8660 -0.4170 -0.2762
vn -0.2493 -0.9567 0.1504
vn 0.4416 -0.8710 -0.2153
vn 0.1680 -0.4890 0.8560
vn 0.2131 -0.7280 0.6516
vn -0.0195 -0.9139 0.4055
vn -0.8130 -0.4295 0.3931
vn -0.6155 -0.3993 0.6795
vn -0.3358 -0.5310 0.7780
vn 0.5580 -0.5296 0.6388
vn 0.8732 -0.3271 0.3612
vn 0.9037 -0.4195 0.0861
vn -0.8179 -0.4820 -0.3143
vn -0.3576 -0.9333 0.0326
vn -0.6421 -0.7567 0.1227
vn -0.6360 -0.3249 -0.7000
vn -0.2583 -0.7229 -0.6409
vn 0.3521 -0.8689 -0.3479
vn 0.3175 -0.9227 0.2188
vn -0.8725 -0.4765 0.1077
vn 0.4066 -0.5459 -0.7325
vn -0.9471 -0.2301 0.2238
vn -0.9564 -0.2754 -0.0968
vn -0.9727 -0.1587 -0.1694
vn -0.8824 -0.3209 -0.3440
vn -0.8993 -0.0747 -0.4310
vn -0.6333 0.0217 -0.7736
vn -0.8552 -0.0373 -0.5169
vn -0.6088 0.2038 -0.7667
vn -0.7235 -0.1035 -0.6825
vn -0.8477 -0.1472 -0.5096
vn -0.7176 -0.1864 -0.6710
vn -0.5698 -0.0347 -0.8210
vn -0.9865 -0.1230 -0.1083
vn -0.6889 0.1989 -0.6970
vn -0.9339 -0.0309 -0.3563
vn -0.8839 -0.3262 -0.3351
vn -0.5860 -0.2482 -0.7714
vn -0.5031 -0.2796 -0.8178
vn -0.9177 -0.3462 0.1950
vn -0.9961 0.0183 0.0868
vn -0.8453 -0.2170 0.4882
vn -0.6231 -0.2294 0.7477
vn -0.9873 -0.1263 0.0961
vn -0.9949 -0.0996 -0.0126
vn -0.7029 0.5616 0.4366
vn -0.8198 0.5547 -0.1419
vn -0.8708 0.3547 0.3404
vn -0.7701 0.4439 -0.4582
vn -0.9207 0.2037 -0.3328
vn -0.8776 0.2561 -0.4052
vn -0.7371 0.3881 -0.5533
vn -0.8981 0.1798 -0.4014
vn -0.5735 0.7747 -0.2664
vn -0.9875 -0.0200 -0.1566
vn -0.9481 0.1654 -0.2714
vn -0.5846 -0.2522 0.7712
vn -0.5459 0.8006 0.2470
vn -0.6211 0.5634 0.5448
vn -0.2182 -0.1110 0.9696
vn -0.0951 -0.1726 0.9804
vn -0.3548 -0.1584 0.9214
vn 0.0043 0.0273 0.9996
vn -0.3176 -0.0669 0.9459
vn 0.2682 0.2264 0.9364
vn 0.3720 0.1672 0.9130
vn 0.2797 0.0964 0.9552
vn -0.6533 0.4481 0.6102
vn -0.3091 0.0367 0.9503
vn -0.2118 0.2705 0.9391
vn -0.0950 0.7020 0.7058
vn -0.7982 -0.0332 0.6014
vn -0.1853 -0.1420 0.9724
vn -0.3550 -0.2273 0.9068
vn 0.7810 0.3724 0.5013
vn 0.6476 0.3968 0.6505
vn 0.4896 0.4019 0.7738
vn 0.5096 0.2071 0.8351
vn 0.3448 0.6963 0.6295
vn 0.3985 0.1443 0.9057
vn -0.2267 -0.1719 0.9587
vn -0.1442 -0.0147 0.9894
vn 0.2444 -0.3339 0.9104
vn -0.0159 -0.0927 0.9956
vn 0.6800 0.1285 0.7219
vn 0.4291 0.0980 0.8979
vn 0.6832 -0.1578 0.7130
vn 0.3508 -0.1518 0.9241
vn 0.2910 -0.0489 0.9555
vn 0.8442 0.1456 0.5160
vn 0.6094 0.1095 0.7853
vn 0.7292 0.2454 0.6388
vn 0.8594 0.4625 0.2181
vn 0.9387 0.1357 0.3169
vn 0.8990 0.4354 -0.0466
vn 0.9945 0.0283 -0.1004
vn 0.8768 0.0765 -0.4747
vn 0.8622 0.5051 0.0378
vn 0.7885 0.2213 -0.5739
vn 0.8791 0.1991 -0.4330
vn 0.9996 -0.0126 -0.0251
vn 0.9396 -0.1170 -0.3218
vn 0.9303 0.1039 0.3519
vn 0.9664 0.0118 0.2568
vn 0.9856 0.0494 0.1619
vn 0.7273 -0.0909 -0.6803
vn 0.8232 -0.1293 -0.5528
vn 0.9941 -0.1080 0.0059
vn 0.9845 -0.1603 -0.0713
vn 0.9692 -0.2174 -0.1154
vn 0.9226 -0.1107 -0.3695
vn 0.9671 -0.2543 -0.0040
vn 0.9926 0.0457 -0.1127
vn 0.9356 -0.3370 0.1056
vn 0.9002 0.4350 0.0204
vn 0.8455 0.3037 0.4393
vn 0.7992 -0.2304 -0.5551
vn 0.7228 0.0521 -0.6891
vn 0.5301 0.2277 -0.8168
vn 0.5324 0.0150 -0.8463
vn 0.6392 -0.2267 -0.7349
vn 0.7461 -0.1204 -0.6549
vn 0.6631 -0.3070 -0.6827
vn -0.1538 0.1885 -0.9699
vn 0.5353 0.2824 -0.7960
vn 0.1998 0.2050 -0.9582
vn -0.1499 0.2263 -0.9625
vn 0.2247 -0.2334 -0.9460
vn -0.4403 0.2920 -0.8490
vn -0.0875 0.0392 -0.9954
vn -0.0880 -0.0547 -0.9946
vn -0.3143 -0.3915 -0.8648
vn -0.4527 -0.2072 -0.8672
vn -0.4854 0.1851 -0.8545
vn -0.4298 -0.0135 -0.9028
vn -0.6595 0.0095 -0.7516
vn 0.7416 0.0980 -0.6637
vn -0.5620 0.2711 -0.7814
vn -0.4549 0.4713 -0.7556
vn -0.0058 0.3605 -0.9327
vn 0.4498 0.7538 -0.4790
vn 0.8017 0.4700 -0.3693
vn 0.0786 0.6134 -0.7859
vn 0.0163 0.7595 -0.6503
vn -0.5561 0.4511 -0.6981
vn -0.4289 0.7822 -0.4520
vn 0.8476 0.5295 -0.0349
vn 0.5154 0.8307 -0.2105
vn -0.0992 0.9756 -0.1960
vn 0.8351 0.5303 0.1465
vn 0.2018 0.9794 -0.0012
vn 0.5434 0.8385 -0.0416
vn -0.3898 0.9183 -0.0695
vn -0.3251 0.9410 0.0936
vn 0.8566 0.1811 -0.4833
vn -0.5767 0.4150 -0.7037
vn 0.6863 0.5707 0.4508
vn -0.4341 -0.8560 0.2807
vt 0.599232 0.355882
vt 0.151823 0.226252
vt 0.172454 0.041725
vt 0.359082 0.022739
vt 0.649010 0.029927
vt 0.796799 0.030177
vt 0.332915 0.125516
vt 0.301426 0.179535
vt 0.364006 0.239080
vt 0.748067 0.366973
vt 0.651557 0.438781
vt 0.845232 0.283175
vt 0.814683 0.336298
vt 0.668285 0.456218
vt 0.856974 0.581461
vt 0.101516 0.645589
vt 0.246823 0.518387
vt 0.309510 0.521792
vt 0.865176 0.091691
vt 0.288511 0.086014
vt 0.223895 0.123668
vt 0.144824 0.170780
vt 0.165227 0.123714
vt 0.672982 0.091861
vt 0.761475 0.088032
vt 0.393592 0.108607
vt 0.663369 0.306041
vt 0.616276 0.193232
vt 0.549707 0.208728
vt 0.759994 0.455927
vt 0.691098 0.388598
vt 0.898494 0.542817
vt 0.072553 0.595105
vt 0.821020 0.487726
vt 0.833552 0.540282
vt 0.873035 0.474723
vt 0.870060 0.511986
vt 0.067800 0.306068
vt 0.042085 0.344746
vt 0.968094 0.312117
vt 0.145113 0.287370
vt 0.269017 0.301302
vt 0.237250 0.311046
vt 0.184377 0.481534
vt 0.255586 0.227854
vt 0.428480 0.305557
vt 0.478086 0.402463
vt 0.445816 0.416755
vt 0.521387 0.424821
vt 0.466631 0.466308
vt 0.450773 0.503740
vt 0.536909 0.459210
vt 0.541253 0.345086
vt 0.572318 0.283837
vt 0.460388 0.145150
vt 0.522718 0.131515
vt 0.608799 0.481542
vt 0.205980 0.558436
vt 0.736207 0.537580
vt 0.198114 0.650519
vt 0.651011 0.501587
vt 0.166343 0.086647
vt 0.843852 0.022739
vt 0.899961 0.063917
vt 0.124947 0.136828
vt 0.877152 0.162127
vt 0.818077 0.126209
vt 0.817859 0.063483
vt 0.089179 0.205047
vt 0.218462 0.212382
vt 0.186579 0.159360
vt 0.626103 0.124561
vt 0.545236 0.077433
vt 0.434237 0.093425
vt 0.366753 0.077621
vt 0.409972 0.037023
vt 0.601291 0.051399
vt 0.710000 0.148753
vt 0.744679 0.155091
vt 0.580346 0.118755
vt 0.713366 0.220719
vt 0.613638 0.290557
vt 0.644480 0.185470
vt 0.606207 0.227484
vt 0.661007 0.247705
vt 0.789207 0.198834
vt 0.777910 0.271379
vt 0.711493 0.301614
vt 0.718333 0.341352
vt 0.655632 0.372148
vt 0.571753 0.167751
vt 0.794393 0.376699
vt 0.787484 0.410006
vt 0.736188 0.436902
vt 0.724867 0.402901
vt 0.723954 0.474605
vt 0.813362 0.424704
vt 0.765979 0.336269
vt 0.803894 0.517101
vt 0.757615 0.511901
vt 0.793848 0.472231
vt 0.687285 0.495864
vt 0.718139 0.494115
vt 0.876535 0.339951
vt 0.115995 0.541885
vt 0.078389 0.520440
vt 0.033598 0.533223
vt 0.917671 0.477544
vt 0.872915 0.447054
vt 0.926856 0.363175
vt 0.840870 0.377974
vt 0.906646 0.411099
vt 0.150874 0.515917
vt 0.114857 0.479637
vt 0.095317 0.441918
vt 0.031906 0.466923
vt 0.942704 0.419668
vt 0.949434 0.209884
vt 0.042357 0.243389
vt 0.079629 0.406071
vt 0.099931 0.352050
vt 0.090850 0.255154
vt 0.099002 0.301707
vt 0.846898 0.230377
vt 0.906213 0.262128
vt 0.910597 0.154437
vt 0.040769 0.172719
vt 0.921672 0.315382
vt 0.233158 0.456730
vt 0.206943 0.424901
vt 0.302955 0.434538
vt 0.263897 0.425269
vt 0.176999 0.410617
vt 0.333883 0.391289
vt 0.263031 0.386226
vt 0.262231 0.351588
vt 0.219620 0.377247
vt 0.180906 0.374752
vt 0.312514 0.344222
vt 0.185976 0.327486
vt 0.259358 0.278286
vt 0.209381 0.265797
vt 0.348010 0.462225
vt 0.299481 0.495063
vt 0.273862 0.471389
vt 0.230059 0.502003
vt 0.164688 0.456742
vt 0.135254 0.397440
vt 0.148621 0.337429
vt 0.163496 0.249764
vt 0.343827 0.284271
vt 0.309267 0.243468
vt 0.370864 0.310755
vt 0.392169 0.341265
vt 0.400363 0.261406
vt 0.399616 0.209859
vt 0.437371 0.237961
vt 0.472209 0.214799
vt 0.503691 0.202638
vt 0.558120 0.400301
vt 0.478086 0.358062
vt 0.495451 0.340430
vt 0.470942 0.283065
vt 0.483113 0.269301
vt 0.364564 0.432683
vt 0.376799 0.377805
vt 0.403196 0.153019
vt 0.562471 0.254319
vt 0.625952 0.395374
vt 0.589802 0.433745
vt 0.552338 0.518873
vt 0.415984 0.562016
vt 0.386362 0.457548
vt 0.341827 0.626403
vt 0.613486 0.581155
vt 0.278105 0.588104
vt 0.321269 0.577585
vt 0.689311 0.573433
vt 0.262908 0.689951
vt 0.697257 0.593307
vt 0.205802 0.617332
vt 0.759308 0.570044
vt 0.181035 0.576960
vt 0.161904 0.689951
vt 0.784310 0.593307
vt 0.361057 0.513639
vt 0.387843 0.585664
vt 0.571856 0.546266
vt 0.588923 0.513530
vt 0.636272 0.540029
vt 0.790179 0.550475
vt 0.135885 0.621162
vt 0.193181 0.516732
vt 0.269584 0.548888
s 1
f 15/19/1 52/66/2 53/67/3
f 50/63/4 51/64/5 15/19/1
f 57/71/6 16/21/7 5/8/8
f 16/20/7 3/4/9 4/7/10
f 55/69/11 51/65/5 17/22/12
f 16/21/7 50/62/4 3/3/9
f 17/22/12 51/65/5 18/23/13
f 69/86/14 52/66/2 104/124/15
f 15/19/1 106/126/16 52/66/2
f 5/8/8 16/20/7 4/7/10
f 55/69/11 17/22/12 2/2/17
f 129/150/18 57/71/6 56/70/19
f 58/72/20 61/77/21 19/24/22
f 63/80/23 59/73/24 58/72/20
f 59/74/24 20/26/25 61/76/21
f 60/75/26 3/4/9 61/76/21
f 60/75/26 61/76/21 20/26/25
f 62/79/27 53/67/3 69/86/14
f 4/7/10 3/4/9 60/75/26
f 20/26/25 143/167/28 5/8/8
f 70/87/29 64/81/30 69/86/14
f 70/87/29 71/88/31 64/81/30
f 62/78/27 64/81/30 66/83/32
f 71/88/31 21/27/33 64/81/30
f 1/1/34 73/90/35 145/169/36
f 1/1/34 21/27/33 73/90/35
f 1/1/34 65/82/37 21/27/33
f 66/83/32 68/85/38 67/84/39
f 67/84/39 68/85/38 65/82/37
f 144/168/40 67/84/39 65/82/37
f 68/85/38 21/27/33 65/82/37
f 70/87/29 72/89/41 71/88/31
f 72/89/41 21/27/33 71/88/31
f 69/86/14 64/81/30 62/79/27
f 62/78/27 66/83/32 58/72/20
f 19/24/22 62/78/27 58/72/20
f 145/169/36 73/90/35 8/11/42
f 73/90/35 25/31/43 8/11/42
f 73/90/35 72/89/41 25/31/43
f 22/28/44 67/84/39 74/91/45
f 74/91/45 67/84/39 23/29/46
f 75/92/47 81/98/48 10/13/49
f 93/111/50 76/93/51 75/92/47
f 75/92/47 7/10/52 81/98/48
f 82/99/53 83/100/54 84/101/55
f 11/14/56 77/94/57 79/96/58
f 85/102/59 11/14/56 79/96/58
f 86/103/60 83/100/54 47/59/61
f 76/93/51 78/95/62 7/10/52
f 24/30/63 77/94/57 76/93/51
f 24/30/63 84/101/55 83/100/54
f 10/13/49 70/87/29 9/12/64
f 93/111/50 75/92/47 10/13/49
f 10/13/49 81/98/48 70/87/29
f 81/98/48 72/89/41 70/87/29
f 162/191/65 82/99/53 28/35/66
f 162/191/65 83/100/54 82/99/53
f 8/11/42 78/95/62 11/14/56
f 72/89/41 7/10/52 78/95/62
f 25/31/43 72/89/41 78/95/62
f 92/110/67 94/112/68 87/104/69
f 98/117/70 94/112/68 92/110/67
f 98/117/70 91/109/71 94/112/68
f 89/106/72 26/33/73 90/107/74
f 27/34/75 29/36/76 30/37/77
f 28/35/66 30/37/77 12/15/78
f 94/112/68 91/109/71 80/97/79
f 107/128/80 87/104/69 105/125/81
f 87/104/69 93/111/50 10/13/49
f 36/44/82 95/113/83 96/114/84
f 95/113/83 88/105/85 96/114/84
f 163/192/86 26/33/73 88/105/85
f 88/105/85 26/33/73 89/106/72
f 97/115/87 96/114/84 89/106/72
f 105/125/81 99/118/88 32/40/89
f 102/122/90 31/38/91 99/119/88
f 128/149/92 101/121/93 33/41/94
f 33/41/94 101/121/93 103/123/95
f 100/120/96 112/133/97 97/115/87
f 32/39/89 101/121/93 100/120/96
f 100/120/96 101/121/93 127/148/98
f 103/123/95 31/38/91 102/122/90
f 52/66/2 105/125/81 104/124/15
f 55/69/11 102/122/90 99/119/88
f 129/150/18 33/41/94 2/2/17
f 2/2/17 102/122/90 55/69/11
f 96/114/84 126/147/99 36/44/82
f 98/116/70 100/120/96 97/115/87
f 32/39/89 100/120/96 98/116/70
f 97/115/87 112/133/97 126/147/99
f 108/129/100 109/130/101 124/145/102
f 124/145/102 111/132/103 110/131/104
f 36/44/82 108/129/100 125/146/105
f 36/44/82 109/130/101 108/129/100
f 126/147/99 109/130/101 36/44/82
f 141/165/106 110/131/104 113/134/107
f 110/131/104 111/132/103 114/135/108
f 110/131/104 114/135/108 113/134/107
f 109/130/101 114/135/108 111/132/103
f 114/135/108 118/139/109 113/134/107
f 117/138/110 119/140/111 116/137/112
f 132/153/113 118/139/109 130/151/114
f 115/136/115 34/42/116 118/139/109
f 115/136/115 35/43/117 34/42/116
f 119/140/111 35/43/117 115/136/115
f 34/42/116 131/152/118 130/151/114
f 35/43/117 121/142/119 120/141/120
f 119/140/111 121/142/119 35/43/117
f 121/142/119 37/45/121 120/141/120
f 13/17/122 125/146/105 124/145/102
f 125/146/105 108/129/100 124/145/102
f 95/113/83 36/44/82 164/193/123
f 126/147/99 112/133/97 109/130/101
f 128/149/92 33/41/94 119/140/111
f 33/41/94 121/142/119 119/140/111
f 121/142/119 129/150/18 56/70/19
f 56/70/19 5/8/8 37/45/121
f 131/152/118 37/45/121 5/8/8
f 131/152/118 5/8/8 6/9/124
f 131/152/118 6/9/124 130/151/114
f 141/165/106 142/166/125 148/173/126
f 132/153/113 38/46/127 133/154/128
f 134/155/129 38/46/127 132/153/113
f 6/9/124 135/156/130 134/155/129
f 148/173/126 41/51/131 158/186/132
f 142/166/125 39/48/133 148/173/126
f 148/173/126 39/48/133 40/50/134
f 135/156/130 136/157/135 134/155/129
f 142/166/125 133/154/128 39/48/133
f 41/52/131 40/49/134 138/160/136
f 39/47/133 138/160/136 40/49/134
f 39/47/133 139/162/137 138/160/136
f 136/157/135 140/163/138 38/46/127
f 44/55/139 137/158/140 136/157/135
f 138/160/136 146/170/141 41/52/131
f 137/159/140 144/168/40 140/164/138
f 138/160/136 145/169/36 146/170/141
f 139/162/137 42/53/142 138/160/136
f 42/53/142 1/1/34 138/160/136
f 140/164/138 43/54/143 42/53/142
f 141/165/106 148/173/126 122/143/144
f 142/166/125 141/165/106 113/134/107
f 142/166/125 132/153/113 133/154/128
f 134/155/129 132/153/113 130/151/114
f 5/8/8 143/167/28 135/156/130
f 143/167/28 136/157/135 135/156/130
f 143/167/28 44/55/139 136/157/135
f 44/56/139 23/29/46 137/159/140
f 43/54/143 1/1/34 42/53/142
f 138/160/136 1/1/34 145/169/36
f 45/57/145 160/189/146 147/171/147
f 41/52/131 45/57/145 147/171/147
f 158/186/132 41/51/131 147/172/147
f 151/177/148 14/18/149 158/186/132
f 159/187/150 149/174/151 151/177/148
f 161/190/152 152/178/153 149/175/151
f 151/177/148 165/194/154 14/18/149
f 149/174/151 150/176/155 151/177/148
f 152/178/153 153/180/156 149/175/151
f 149/174/151 153/179/156 150/176/155
f 150/176/155 46/58/157 165/194/154
f 165/194/154 46/58/157 13/17/122
f 48/60/158 154/181/159 153/179/156
f 47/59/61 155/182/160 152/178/153
f 48/60/158 163/192/86 154/181/159
f 157/184/161 48/60/158 153/179/156
f 157/184/161 163/192/86 48/60/158
f 157/184/161 12/16/78 163/192/86
f 158/186/132 14/18/149 123/144/162
f 159/187/150 151/177/148 158/186/132
f 49/61/163 161/190/152 45/57/145
f 45/57/145 161/190/152 160/189/146
f 85/102/59 86/103/60 47/59/61
f 162/191/65 28/35/66 12/15/78
f 162/191/65 12/15/78 157/185/161
f 156/183/164 88/105/85 95/113/83
f 46/58/157 164/193/123 125/146/105
f 165/194/154 13/17/122 14/18/149
f 14/18/149 124/145/102 123/144/162
f 16/21/7 57/71/6 18/23/13
f 2/2/17 17/22/12 57/71/6
f 15/19/1 51/64/5 106/126/16
f 16/21/7 18/23/13 50/62/4
f 17/22/12 18/23/13 57/71/6
f 106/127/16 51/65/5 55/69/11
f 18/23/13 51/65/5 50/62/4
f 54/68/165 15/19/1 53/67/3
f 15/19/1 54/68/165 50/63/4
f 56/70/19 57/71/6 5/8/8
f 50/63/4 54/68/165 3/6/9
f 129/150/18 2/2/17 57/71/6
f 62/79/27 19/25/22 53/67/3
f 44/56/139 59/73/24 63/80/23
f 58/72/20 59/73/24 61/77/21
f 20/26/25 59/74/24 143/167/28
f 19/24/22 61/77/21 3/5/9
f 69/86/14 53/67/3 52/66/2
f 53/67/3 19/25/22 54/68/165
f 19/25/22 3/6/9 54/68/165
f 44/56/139 63/80/23 74/91/45
f 74/91/45 63/80/23 58/72/20
f 5/8/8 4/7/10 20/26/25
f 20/26/25 4/7/10 60/75/26
f 143/167/28 59/74/24 44/55/139
f 64/81/30 21/27/33 68/85/38
f 22/28/44 66/83/32 67/84/39
f 73/90/35 21/27/33 72/89/41
f 66/83/32 64/81/30 68/85/38
f 104/124/15 70/87/29 69/86/14
f 1/1/34 43/54/143 65/82/37
f 58/72/20 66/83/32 22/28/44
f 74/91/45 58/72/20 22/28/44
f 23/29/46 67/84/39 144/168/40
f 43/54/143 144/168/40 65/82/37
f 80/97/79 76/93/51 93/111/50
f 75/92/47 76/93/51 7/10/52
f 76/93/51 80/97/79 24/30/63
f 85/102/59 79/96/58 86/103/60
f 79/96/58 77/94/57 24/30/63
f 80/97/79 84/101/55 24/30/63
f 86/103/60 79/96/58 83/100/54
f 76/93/51 77/94/57 78/95/62
f 104/124/15 9/12/64 70/87/29
f 81/98/48 7/10/52 72/89/41
f 162/191/65 47/59/61 83/100/54
f 27/34/75 84/101/55 80/97/79
f 11/14/56 78/95/62 77/94/57
f 8/11/42 25/31/43 78/95/62
f 87/104/69 94/112/68 93/111/50
f 98/117/70 90/108/74 91/109/71
f 91/109/71 90/108/74 29/36/76
f 28/35/66 27/34/75 30/37/77
f 80/97/79 91/109/71 29/36/76
f 27/34/75 80/97/79 29/36/76
f 89/106/72 90/107/74 98/116/70
f 12/15/78 30/37/77 26/32/73
f 90/108/74 30/37/77 29/36/76
f 26/32/73 30/37/77 90/108/74
f 9/12/64 87/104/69 10/13/49
f 9/12/64 105/125/81 87/104/69
f 93/111/50 94/112/68 80/97/79
f 163/192/86 12/16/78 26/33/73
f 96/114/84 88/105/85 89/106/72
f 97/115/87 89/106/72 98/116/70
f 82/99/53 27/34/75 28/35/66
f 107/128/80 105/125/81 32/40/89
f 33/41/94 103/123/95 102/122/90
f 103/123/95 101/121/93 31/38/91
f 101/121/93 128/149/92 127/148/98
f 101/121/93 32/39/89 31/38/91
f 99/119/88 31/38/91 32/39/89
f 104/124/15 105/125/81 9/12/64
f 52/66/2 106/126/16 105/125/81
f 105/125/81 106/126/16 99/118/88
f 106/127/16 55/69/11 99/119/88
f 2/2/17 33/41/94 102/122/90
f 96/114/84 97/115/87 126/147/99
f 98/117/70 92/110/67 32/40/89
f 127/148/98 128/149/92 117/138/110
f 123/144/162 124/145/102 110/131/104
f 124/145/102 109/130/101 111/132/103
f 109/130/101 116/137/112 114/135/108
f 109/130/101 112/133/97 116/137/112
f 112/133/97 117/138/110 116/137/112
f 114/135/108 115/136/115 118/139/109
f 116/137/112 115/136/115 114/135/108
f 116/137/112 119/140/111 115/136/115
f 118/139/109 34/42/116 130/151/114
f 34/42/116 120/141/120 131/152/118
f 35/43/117 120/141/120 34/42/116
f 120/141/120 37/45/121 131/152/118
f 37/45/121 121/142/119 56/70/19
f 14/18/149 13/17/122 124/145/102
f 164/193/123 36/44/82 125/146/105
f 127/148/98 117/138/110 112/133/97
f 117/138/110 128/149/92 119/140/111
f 33/41/94 129/150/18 121/142/119
f 6/9/124 5/8/8 135/156/130
f 142/166/125 113/134/107 118/139/109
f 132/153/113 142/166/125 118/139/109
f 122/143/144 123/144/162 110/131/104
f 141/165/106 122/143/144 110/131/104
f 41/51/131 148/173/126 40/50/134
f 38/46/127 139/161/137 133/154/128
f 39/48/133 133/154/128 139/161/137
f 139/161/137 38/46/127 140/163/138
f 134/155/129 136/157/135 38/46/127
f 136/157/135 137/158/140 140/163/138
f 139/162/137 140/164/138 42/53/142
f 41/52/131 146/170/141 45/57/145
f 140/164/138 144/168/40 43/54/143
f 137/159/140 23/29/46 144/168/40
f 130/151/114 6/9/124 134/155/129
f 23/29/46 44/56/139 74/91/45
f 146/170/141 145/169/36 8/11/42
f 146/170/141 8/11/42 45/57/145
f 159/188/150 147/171/147 160/189/146
f 159/187/150 158/186/132 147/172/147
f 158/186/132 122/143/144 148/173/126
f 160/189/146 161/190/152 149/175/151
f 159/188/150 160/189/146 149/175/151
f 161/190/152 85/102/59 152/178/153
f 151/177/148 150/176/155 165/194/154
f 85/102/59 47/59/61 152/178/153
f 153/179/156 154/181/159 150/176/155
f 13/17/122 46/58/157 125/146/105
f 152/178/153 155/182/160 153/180/156
f 150/176/155 154/181/159 46/58/157
f 46/58/157 154/181/159 156/183/164
f 155/182/160 157/185/161 153/180/156
f 155/182/160 162/191/65 157/185/161
f 154/181/159 163/192/86 156/183/164
f 122/143/144 158/186/132 123/144/162
f 49/61/163 45/57/145 11/14/56
f 45/57/145 8/11/42 11/14/56
f 49/61/163 85/102/59 161/190/152
f 49/61/163 11/14/56 85/102/59
f 47/59/61 162/191/65 155/182/160
f 156/183/164 163/192/86 88/105/85
f 156/183/164 164/193/123 46/58/157
f 164/193/123 156/183/164 95/113/83
f 84/101/55 27/34/75 82/99/53
f 83/100/54 79/96/58 24/30/63
f 87/104/69 107/128/80 92/110/67
f 112/133/97 100/120/96 127/148/98
f 32/40/89 92/110/67 107/128/80
l 169 170
l 166 169
l 167 168
l 167 170
