# Blender 3.5.1
# www.blender.org
mtllib Crystal.mtl
o Cube.002
v -0.212924 -0.359130 -1.090561
v -0.107632 -0.516877 -1.541139
v 0.321517 -0.325600 -0.977410
v 0.388047 1.639157 -1.628238
v 0.426809 -0.483347 -1.427988
v 0.510202 1.486573 -2.181336
v -0.287455 -0.445982 -1.342775
v 0.501340 -0.396495 -1.175774
v -0.371951 0.997167 -1.458814
v -0.207835 0.755164 -2.154495
v 0.452169 1.048871 -1.284333
v 0.731853 1.163063 -1.667950
v -0.479082 1.090626 -1.928139
v -0.420627 1.366924 -2.016491
v -0.263142 1.666298 -1.751188
v 0.142555 1.823925 -2.079846
v -0.030620 1.558619 -2.355971
v 0.112956 0.774847 -2.086090
v 0.532126 1.343478 -2.138846
v 0.533790 -0.213865 -1.583427
v 0.443487 0.954142 -2.057239
v 0.549707 0.847194 -1.947368
v 0.624758 1.067848 -1.934769
v 0.626842 0.758898 -1.823246
v 0.445571 0.645192 -1.945717
v 0.443604 1.703256 -1.786072
v 0.636683 1.537199 -1.860439
v 0.527653 1.552995 -2.129695
v 0.301376 1.814468 -2.048284
v -0.650132 -0.317912 -0.650132
v 0.650132 -0.317912 0.650132
v 0.052352 5.242983 -0.922351
v 0.000000 -0.317912 1.084954
v -1.066718 3.799338 0.735610
v -1.002435 3.480344 -1.049895
v 1.282133 3.646333 -0.857304
v -0.013509 4.507501 1.827117
v -0.370472 5.750478 1.192860
v -0.860636 5.126058 -0.089499
v -1.026626 4.350479 0.747046
v -0.389602 5.158780 -0.791852
v -0.862073 4.446897 -0.912065
v -0.844591 5.087472 -0.276766
v 0.113655 2.975645 -1.735719
v -0.697362 3.978280 -1.368784
v 0.969106 3.786837 -1.165027
v -0.108444 3.662493 -1.700876
v 0.354901 4.314798 -1.446504
v 0.380179 3.700190 -1.662418
v 1.312702 3.690848 0.140066
v 1.095624 4.684476 0.899302
v 0.626925 4.140649 1.462591
v 1.187275 2.831639 0.966001
v 0.973907 5.112546 0.383634
v 0.655093 5.430679 0.996631
v 0.773106 1.523176 -0.690443
v 0.650132 -0.317912 0.132008
v 0.000000 -0.317912 -1.084954
v 0.686150 0.332408 -0.432855
v 0.561412 0.021034 -0.598463
v 0.459713 -0.317912 -0.548405
v 0.495731 0.332408 -0.789295
v 0.973146 5.074912 0.176764
v 1.189006 4.051079 -0.816326
v 0.227764 5.247772 -0.809058
v 1.020048 4.694224 -0.425349
v 0.864525 4.835105 -0.528328
v 0.803614 4.746880 -0.719626
v 0.737339 5.043469 -0.419786
v -0.046382 5.890203 0.973581
v -0.052963 5.573807 1.531700
v 0.254392 5.751760 1.225657
v -0.454672 0.226737 0.734284
v -0.844339 1.803938 0.689981
v -0.658677 0.287545 0.263444
v 0.591757 -0.351916 0.619609
v 0.606940 -0.572859 1.492492
v 1.380849 2.122559 1.402263
v 0.181340 -0.474514 1.389211
v 0.302677 1.528327 1.370823
v 0.933226 1.479523 0.804422
v 1.567577 1.260321 1.676098
v 0.344134 1.532910 2.143968
v 0.615689 2.078008 1.954331
v 0.820129 2.075898 1.325945
v 0.388399 1.707687 1.444223
v 1.196419 2.128018 1.279101
v 1.009732 1.907380 1.003694
v 0.878949 2.090640 1.270991
v 1.483095 1.114992 0.921239
v 1.184988 1.693043 0.866451
v 1.598962 1.382182 1.486799
v 1.461344 1.481900 0.931239
v 1.561738 1.730419 1.244439
v 1.598482 1.437425 1.116942
v 1.217053 1.239127 2.001685
v 1.016766 1.552694 2.263305
v 0.608745 1.366962 2.217672
v 0.798003 0.821652 2.120570
v 0.959918 1.836813 2.215221
v 0.926283 -0.514342 1.043795
v 0.796568 -0.564842 1.331700
v 0.946512 -0.434476 0.710912
v 1.446537 1.822206 1.761122
v 0.806315 2.110518 2.014117
v 0.571404 1.938162 2.150733
v 0.792078 1.993576 2.181976
v 0.186129 -0.149767 1.179565
v 0.207424 0.629594 1.210635
v 0.301786 -0.086505 0.969410
vn 0.3241 0.5256 -0.7866
vn -0.1838 0.4484 0.8747
vn -0.9278 0.2684 0.2590
vn 0.8974 -0.4248 -0.1189
vn -0.6564 -0.0586 -0.7522
vn -0.9691 -0.0372 0.2437
vn 0.2249 -0.2801 -0.9332
vn -0.2154 0.2323 0.9485
vn 0.7801 0.0732 0.6214
vn -0.0275 0.9144 0.4038
vn -0.7848 -0.3105 -0.5364
vn -0.6118 0.7040 -0.3606
vn 0.9270 0.0445 -0.3724
vn 0.3345 -0.3180 -0.8871
vn 0.6460 -0.2548 -0.7196
vn 0.8960 -0.1454 -0.4196
vn 0.6463 -0.2562 -0.7188
vn 0.1367 -0.4149 -0.8995
vn 0.2638 -0.2502 -0.9316
vn 0.9868 -0.1462 -0.0697
vn 0.2141 -0.4105 -0.8864
vn 0.6459 0.7630 -0.0267
vn 0.6381 0.4743 0.6064
vn 0.7029 0.4386 0.5600
vn 0.9241 0.0284 -0.3811
vn -0.0305 0.9298 0.3669
vn 0.1854 0.6479 -0.7388
vn 0.6952 0.6769 -0.2418
vn -0.7051 0.3521 -0.6155
vn 0.5982 0.2470 0.7623
vn 0.7043 -0.1469 -0.6946
vn -0.7316 0.0391 0.6806
vn -0.9914 0.1120 -0.0676
vn 0.9668 0.2539 -0.0294
vn 0.6645 0.3311 -0.6700
vn -0.9122 0.3746 0.1663
vn -0.6698 0.5320 -0.5180
vn 0.0615 0.2001 -0.9778
vn 0.5927 0.2886 -0.7520
vn 0.9769 0.0558 0.2063
vn 0.8554 0.4794 0.1961
vn 0.8719 -0.1514 -0.4658
vn 0.9287 -0.2802 -0.2428
vn 0.7192 -0.2760 -0.6376
vn 0.9791 -0.1616 -0.1236
vn 0.7347 0.5997 -0.3172
vn 0.7459 0.4788 -0.4630
vn 0.6162 0.6238 -0.4808
vn -0.3653 0.8830 -0.2948
vn -0.3279 0.3812 -0.8644
vn -0.2176 0.4849 -0.8471
vn -0.2145 0.4734 -0.8543
vn -0.0276 0.8697 0.4927
vn 0.4445 0.8718 -0.2058
vn -0.9938 -0.1104 -0.0161
vn 0.4751 -0.1463 0.8677
vn -0.5587 -0.1399 -0.8175
vn -0.5605 -0.1557 -0.8134
vn 0.4170 -0.1608 0.8945
vn 0.6152 0.2570 0.7453
vn 0.6261 0.4366 -0.6460
vn 0.5278 0.5270 -0.6661
vn 0.9663 0.2518 -0.0533
vn 0.9765 0.2092 -0.0525
vn -0.9790 0.1581 -0.1289
vn -0.5048 0.8362 -0.2144
vn -0.7214 0.1390 0.6784
vn -0.6857 -0.0929 0.7219
vn -0.8222 -0.4805 0.3051
vn -0.6561 -0.1225 0.7446
vn -0.9948 -0.1008 0.0154
vn -0.9062 -0.2136 0.3650
vn 0.5001 0.8390 -0.2144
vn 0.4323 0.8675 -0.2461
vn 0.7377 0.0607 0.6724
vn 0.5447 0.8164 -0.1916
vn 0.0612 0.5732 -0.8171
vn -0.1767 0.1032 0.9788
vn 0.9463 -0.3204 -0.0425
vn -0.9085 0.4153 0.0463
vn -0.5720 0.4864 -0.6605
vn 0.6790 0.0353 0.7333
vn 0.9571 0.2023 0.2073
vn -0.6672 0.7118 -0.2195
vn -0.0795 0.8036 -0.5899
vn 0.8111 0.1874 -0.5541
vn 0.9929 0.1175 0.0163
vn 0.5347 -0.3133 0.7848
vn 0.7400 -0.4128 0.5310
vn -0.0612 0.9981 -0.0087
vn 0.4880 0.5102 -0.7082
vn 0.5641 0.5492 -0.6166
vn 0.5562 0.5642 -0.6102
vn -0.2871 0.8040 0.5207
vn 0.5183 0.6681 0.5339
vn -0.6462 0.1998 -0.7366
vn -0.3706 -0.3164 0.8732
vn 0.2469 0.0490 -0.9678
vn 0.2333 0.0282 -0.9720
vn -0.4258 -0.2998 0.8537
vn -0.1338 0.1134 0.9845
vn 0.9193 0.3679 0.1396
vn 0.7697 -0.0400 0.6372
vn 0.6643 0.2520 0.7037
vn -0.6783 0.4069 -0.6119
vn -0.1849 0.9813 -0.0531
vn -0.8816 0.4658 0.0764
vn -0.9940 0.0960 0.0527
vn -0.8226 -0.2800 -0.4948
vn -0.9947 0.0389 0.0951
vn -0.6533 0.1861 -0.7339
vn -0.8807 0.0429 -0.4718
vn 0.5122 0.6968 0.5020
vn -0.0261 -0.1840 0.9826
vn 0.9444 -0.3272 -0.0331
vn 0.5976 -0.3970 0.6966
vn 0.9726 -0.1917 -0.1314
vn 0.9863 -0.1647 -0.0132
vn 0.6613 -0.2083 -0.7206
vn 0.6505 -0.1643 -0.7416
vt 0.862393 0.739826
vt 0.743269 0.726632
vt 0.920770 0.738218
vt 0.933697 0.933617
vt 0.679703 0.730837
vt 0.688072 0.934340
vt 0.833062 0.738482
vt 0.773437 0.724252
vt 0.949166 0.734470
vt 0.646913 0.728105
vt 0.859025 0.879618
vt 0.752471 0.868971
vt 0.936073 0.871741
vt 0.977221 0.895446
vt 0.632976 0.899154
vt 0.817504 0.907220
vt 0.793044 0.896991
vt 0.823768 0.939359
vt 0.784505 0.928930
vt 0.778711 0.979983
vt 0.870403 0.955070
vt 0.921043 0.988187
vt 0.716830 0.972871
vt 0.732258 0.936991
vt 0.720839 0.867913
vt 0.684647 0.920948
vt 0.677166 0.764719
vt 0.689079 0.884204
vt 0.676130 0.871864
vt 0.666692 0.893047
vt 0.663532 0.860113
vt 0.687281 0.852491
vt 0.942114 0.948825
vt 0.970079 0.941449
vt 0.655300 0.942904
vt 0.683933 0.940986
vt 0.936519 0.980444
vt 0.698163 0.973744
vt 0.190734 0.052533
vt 0.681625 0.048248
vt 0.159296 0.642114
vt 0.831013 0.651175
vt 0.596775 0.038211
vt 0.399158 0.046915
vt 0.332518 0.466248
vt 0.172136 0.443593
vt 0.819201 0.457313
vt 0.518469 0.531647
vt 0.484313 0.547933
vt 0.368139 0.650495
vt 0.261945 0.581055
vt 0.333104 0.516388
vt 0.189212 0.606059
vt 0.189323 0.528805
vt 0.245599 0.579084
vt 0.033408 0.411311
vt 0.973881 0.407297
vt 0.141020 0.496338
vt 0.856017 0.478025
vt 0.072628 0.479831
vt 0.056046 0.572358
vt 0.903478 0.554040
vt 0.023107 0.501441
vt 0.935289 0.484797
vt 0.733110 0.453094
vt 0.661624 0.534520
vt 0.595994 0.490357
vt 0.663201 0.372455
vt 0.700492 0.575183
vt 0.646548 0.611575
vt 0.829020 0.251388
vt 0.740091 0.048603
vt 0.900893 0.038697
vt 0.104586 0.047616
vt 0.802064 0.121844
vt 0.822436 0.086261
vt 0.820440 0.046535
vt 0.846247 0.119404
vt 0.718390 0.573933
vt 0.813276 0.493282
vt 0.814838 0.636666
vt 0.774052 0.548076
vt 0.783606 0.567060
vt 0.803815 0.564449
vt 0.772821 0.589392
vt 0.351656 0.687985
vt 0.640803 0.693213
vt 0.561192 0.655788
vt 0.417084 0.656399
vt 0.395812 0.707586
vt 0.615316 0.660411
vt 0.344783 0.114881
vt 0.331616 0.281652
vt 0.290339 0.122093
vt 0.094990 0.689225
vt 0.485726 0.697928
vt 0.082433 0.973746
vt 0.558178 0.983574
vt 0.437742 0.692488
vt 0.195701 0.689124
vt 0.157961 0.881945
vt 0.084954 0.878722
vt 0.544298 0.893563
vt 0.408157 0.911222
vt 0.230901 0.912023
vt 0.176854 0.958534
vt 0.122683 0.934483
vt 0.156946 0.900922
vt 0.092913 0.953214
vt 0.093475 0.918452
vt 0.115609 0.935463
vt 0.616378 0.868885
vt 0.017550 0.865737
vt 0.071313 0.906002
vt 0.562227 0.904340
vt 0.038650 0.900599
vt 0.034522 0.947850
vt 0.586131 0.940715
vt 0.015252 0.912864
vt 0.599582 0.907573
vt 0.502717 0.892643
vt 0.475017 0.919007
vt 0.440570 0.899740
vt 0.466912 0.851129
vt 0.472674 0.944755
vt 0.546197 0.696607
vt 0.512043 0.697455
vt 0.053550 0.686474
vt 0.583051 0.693875
vt 0.532246 0.944578
vt 0.171267 0.978803
vt 0.471205 0.981679
vt 0.431210 0.961806
vt 0.202638 0.958994
vt 0.194487 0.985098
vt 0.458464 0.964769
vt 0.168416 0.722093
vt 0.160196 0.800928
vt 0.142301 0.724253
s 0
f 6/6/1 17/24/1 29/38/1 28/36/1
f 11/13/2 4/4/2 15/21/2 9/11/2
f 9/11/3 15/21/3 14/18/3 13/16/3
f 5/5/4 20/27/4 8/10/4
f 13/17/5 14/19/5 17/24/5 10/12/5
f 1/1/6 9/11/6 13/16/6 7/7/6
f 10/12/7 17/24/7 21/28/7 18/25/7
f 3/3/8 11/13/8 9/11/8 1/1/8
f 8/9/9 12/14/9 11/13/9 3/3/9
f 26/33/10 29/37/10 16/22/10 15/21/10
f 7/8/11 13/17/11 10/12/11 2/2/11
f 14/19/12 15/20/12 16/23/12 17/24/12
f 12/15/13 6/6/13 28/36/13 27/35/13
f 18/25/14 21/28/14 22/29/14 25/32/14
f 19/26/15 23/30/15 22/29/15 21/28/15
f 12/15/16 24/31/16 22/29/16 23/30/16
f 20/27/17 25/32/17 22/29/17 24/31/17
f 2/2/18 25/32/18 20/27/18 5/5/18
f 21/28/19 17/24/19 6/6/19 19/26/19
f 8/10/20 20/27/20 24/31/20 12/15/20
f 25/32/21 2/2/21 10/12/21 18/25/21
f 26/33/22 27/34/22 29/37/22
f 12/14/23 27/34/23 11/13/23
f 11/13/24 27/34/24 26/33/24 4/4/24
f 6/6/25 12/15/25 23/30/25 19/26/25
f 15/21/26 4/4/26 26/33/26
f 29/38/27 17/24/27 16/23/27
f 29/38/28 27/35/28 28/36/28
f 35/46/29 42/54/29 41/53/29 45/58/29
f 52/67/30 51/66/30 71/88/30 37/48/30
f 58/73/31 44/57/31 56/71/31 62/78/31
f 37/49/32 40/52/32 34/45/32
f 34/45/33 40/52/33 39/51/33 35/46/33
f 36/47/34 64/80/34 66/82/34 50/65/34
f 46/59/35 48/62/35 64/80/35 36/47/35
f 38/50/36 39/51/36 40/52/36
f 41/53/37 42/54/37 43/55/37
f 44/56/38 47/60/38 48/61/38 49/63/38
f 46/59/39 49/64/39 48/62/39
f 50/65/40 51/66/40 53/68/40
f 54/69/41 55/70/41 51/66/41
f 56/71/42 59/75/42 60/76/42 62/78/42
f 57/72/43 61/77/43 60/76/43 59/75/43
f 58/73/44 62/78/44 60/76/44 61/77/44
f 57/72/45 59/75/45 50/65/45
f 63/79/46 66/82/46 67/83/46 69/85/46
f 64/80/47 68/84/47 67/83/47 66/82/47
f 65/81/48 69/85/48 67/83/48 68/84/48
f 32/41/49 41/53/49 43/55/49 70/86/49
f 32/41/50 48/61/50 41/53/50
f 45/58/51 48/61/51 47/60/51
f 41/53/52 48/61/52 45/58/52
f 70/86/53 38/50/53 71/89/53 72/90/53
f 63/79/54 69/85/54 55/70/54 54/69/54
f 34/45/55 35/46/55 74/93/55
f 33/43/56 31/40/56 53/68/56 37/48/56
f 30/39/57 35/46/57 44/56/57 58/74/57
f 44/56/58 35/46/58 45/58/58 47/60/58
f 37/48/59 53/68/59 52/67/59
f 71/88/60 51/66/60 55/70/60 72/91/60
f 64/80/61 48/62/61 68/84/61
f 68/84/62 48/62/62 32/42/62 65/81/62
f 50/65/63 66/82/63 51/66/63
f 51/66/64 66/82/64 63/79/64 54/69/64
f 35/46/65 39/51/65 43/55/65 42/54/65
f 70/86/66 43/55/66 39/51/66 38/50/66
f 40/52/67 37/49/67 71/89/67 38/50/67
f 34/45/68 74/93/68 37/49/68
f 73/92/69 75/94/69 30/39/69 33/44/69
f 37/49/70 74/93/70 73/92/70 33/44/70
f 74/93/71 35/46/71 30/39/71 75/94/71
f 74/93/72 75/94/72 73/92/72
f 72/91/73 69/85/73 65/81/73
f 65/81/74 32/42/74 70/87/74 72/91/74
f 53/68/75 51/66/75 52/67/75
f 55/70/76 69/85/76 72/91/76
f 81/102/77 88/110/77 87/109/77 91/114/77
f 98/123/78 97/122/78 106/133/78 83/104/78
f 103/129/79 90/112/79 95/120/79 92/115/79
f 83/105/80 86/108/80 80/101/80
f 80/101/81 86/108/81 85/107/81 81/102/81
f 82/103/82 104/130/82 96/121/82
f 92/115/83 94/118/83 104/130/83 82/103/83
f 84/106/84 85/107/84 86/108/84
f 87/109/85 88/110/85 89/111/85
f 90/113/86 93/116/86 94/117/86 95/119/86
f 92/115/87 95/120/87 94/118/87
f 96/121/88 97/122/88 99/124/88
f 102/127/89 101/126/89 82/103/89 96/121/89
f 78/97/90 87/109/90 89/111/90 105/131/90
f 78/97/91 94/117/91 87/109/91
f 91/114/92 94/117/92 93/116/92
f 87/109/93 94/117/93 91/114/93
f 105/131/94 84/106/94 106/134/94 107/135/94
f 104/130/95 107/136/95 100/125/95
f 80/101/96 81/102/96 109/138/96
f 79/99/97 77/96/97 99/124/97 83/104/97
f 76/95/98 81/102/98 90/113/98 103/128/98
f 90/113/99 81/102/99 91/114/99 93/116/99
f 83/104/100 99/124/100 98/123/100
f 106/133/101 97/122/101 100/125/101 107/136/101
f 104/130/102 94/118/102 78/98/102
f 96/121/103 104/130/103 97/122/103
f 97/122/104 104/130/104 100/125/104
f 81/102/105 85/107/105 89/111/105 88/110/105
f 105/131/106 89/111/106 85/107/106 84/106/106
f 86/108/107 83/105/107 106/134/107 84/106/107
f 80/101/108 109/138/108 83/105/108
f 108/137/109 110/139/109 76/95/109 79/100/109
f 83/105/110 109/138/110 108/137/110 79/100/110
f 109/138/111 81/102/111 76/95/111 110/139/111
f 109/138/112 110/139/112 108/137/112
f 104/130/113 78/98/113 105/132/113 107/136/113
f 99/124/114 97/122/114 98/123/114
f 92/115/115 82/103/115 101/126/115 103/129/115
f 96/121/116 99/124/116 77/96/116 102/127/116
f 50/65/117 59/75/117 56/71/117 36/47/117
f 50/65/118 53/68/118 31/40/118 57/72/118
f 56/71/119 44/57/119 46/59/119 36/47/119
f 46/59/120 44/57/120 49/64/120
