# Blender 3.4.1
# www.blender.org
mtllib CasaQuadrada.mtl
o Cube.001
v -8.680292 17.733358 10.157928
v -8.680292 17.733358 -7.050410
v 8.854179 17.733358 10.157928
v 8.854179 17.733358 -7.050410
v -11.647470 17.175377 13.069912
v -11.647470 17.175377 -9.962395
v 11.821345 17.175377 -9.962395
v 11.821345 17.175377 13.069912
v 0.086938 28.349051 13.069912
v 0.086938 28.349051 -9.962395
v -12.270082 17.669052 13.069912
v -12.270082 17.669052 -9.962395
v 12.443957 17.669052 -9.962395
v 12.443957 17.669052 13.069912
v 0.086938 29.081442 13.069912
v 0.086938 29.081442 -9.962395
v 0.086938 28.349051 13.480808
v -11.647470 17.175377 13.480808
v 11.821345 17.175377 13.480808
v 0.086938 29.081442 13.480808
v -12.270082 17.669052 13.480808
v 12.443957 17.669052 13.480808
v 11.821345 17.175377 -10.582976
v 12.443957 17.669052 -10.582976
v 0.086938 28.349051 -10.582976
v -11.647470 17.175377 -10.582976
v 0.086938 29.081442 -10.582976
v -12.270082 17.669052 -10.582976
v -3.824531 25.803814 13.069912
v -7.736000 22.079254 13.069912
v -7.736000 22.079254 -9.962395
v -3.824531 25.803814 -9.962395
v -4.032069 26.456633 13.069912
v -8.151075 22.652502 13.069912
v -8.151075 22.652502 -9.962395
v -4.032069 26.456633 -9.962395
v -3.824531 25.803814 13.480808
v -7.736000 22.079254 13.480808
v -4.032069 26.456633 13.480808
v -8.151075 22.652502 13.480808
v -7.736000 22.079254 -10.582976
v -3.824531 25.803814 -10.582976
v -8.151075 22.652502 -10.582976
v -4.032069 26.456633 -10.582976
v 3.998407 25.803814 -9.962395
v 7.909875 22.079254 -9.962395
v 7.909875 22.079254 13.069912
v 3.998407 25.803814 13.069912
v 4.205945 26.456633 -9.962395
v 8.324951 22.652502 -9.962395
v 8.324951 22.652502 13.069912
v 4.205945 26.456633 13.069912
v 7.909875 22.079254 13.480808
v 3.998407 25.803814 13.480808
v 8.324951 22.652502 13.480808
v 4.205945 26.456633 13.480808
v 3.998407 25.803814 -10.582976
v 7.909875 22.079254 -10.582976
v 4.205945 26.456633 -10.582976
v 8.324951 22.652502 -10.582976
v -12.012259 16.832270 13.069912
v -12.012259 16.832270 -9.962395
v -12.634871 17.325945 13.069912
v -12.634871 17.325945 -9.962395
v -12.012259 16.832270 -10.582976
v -12.012259 16.832270 13.480808
v -12.634871 17.325945 13.480808
v -12.634871 17.325945 -10.582976
v 12.190839 16.648443 -9.962395
v 12.190839 16.648443 13.069912
v 12.813451 17.142120 -9.962395
v 12.813451 17.142120 13.069912
v 12.813451 17.142120 13.480808
v 12.190839 16.648443 13.480808
v 12.190839 16.648443 -10.582976
v 12.813451 17.142120 -10.582976
vn -0.0000 -0.9821 0.1882
vn -0.1848 -0.9828 -0.0000
vn 0.1848 -0.9828 -0.0000
vn -0.0000 -0.9821 -0.1882
vn -0.0000 -0.0000 -1.0000
vn -0.5454 -0.8382 -0.0000
vn -0.0000 -0.0000 1.0000
vn 0.7818 -0.6236 -0.0000
vn -0.6851 0.7284 -0.0000
vn 0.8188 0.5741 -0.0000
vn -0.7818 -0.6236 -0.0000
vn 0.5454 -0.8382 -0.0000
vn 0.5374 0.8433 -0.0000
vn -0.7708 0.6371 -0.0000
vn -0.5374 0.8433 -0.0000
vn 0.7708 0.6371 -0.0000
vn -0.8188 -0.5741 -0.0000
vn -0.6785 0.7346 -0.0000
vn 0.6896 -0.7242 -0.0000
vn 0.6785 0.7346 -0.0000
vn -0.6896 -0.7242 -0.0000
vn -0.6213 -0.7836 -0.0000
vn 0.6851 -0.7284 -0.0000
vn 0.6213 -0.7836 -0.0000
vt 2.990469 -2.618363
vt 2.990469 -0.194534
vt -2.145823 3.224433
vt 1.224300 -2.618363
vt 1.224300 -0.194534
vt -2.145822 0.800604
vt 3.350134 -3.028522
vt 5.201827 0.157749
vt 3.350134 0.215624
vt 0.986224 0.215624
vt 5.201827 -3.086398
vt -1.796525 0.390445
vt 0.986224 -3.028522
vt -1.796525 3.634593
vt 0.950784 -3.028522
vt -4.201827 3.634593
vt 3.424259 -1.464325
vt -4.201827 0.390445
vt 0.950784 0.215624
vt 0.876484 0.245160
vt 0.876484 -2.998988
vt -1.713274 0.215624
vt -1.713274 -3.028522
vt -4.201827 -3.028522
vt -1.616208 0.245160
vt -1.616208 -2.998988
vt -4.201827 0.215624
vt 0.950784 -3.086398
vt -4.201827 3.692467
vt -0.895915 2.046205
vt 0.895761 0.439730
vt 3.350134 -3.086398
vt 0.867406 3.683752
vt -1.796525 3.692467
vt -4.201827 -3.086398
vt -1.616208 0.303035
vt -1.012423 2.045185
vt 0.876484 0.303035
vt 0.817981 0.352981
vt 0.788120 3.769127
vt -1.713274 -3.086398
vt -1.796525 0.303035
vt 2.830614 0.440217
vt -1.713274 0.303035
vt 2.751328 0.354842
vt -4.201827 0.303035
vt 1.067292 2.077765
vt 0.950784 0.303035
vt 3.350134 0.303035
vt 2.858969 3.684240
vt -1.616208 -3.086398
vt 0.950784 2.078784
vt -4.201827 0.303035
vt 0.876484 -3.086398
vt 2.781189 3.770988
vt 1.622078 -3.028522
vt 2.421862 -3.028522
vt 4.421691 -0.382943
vt 2.421861 0.215624
vt 3.829170 -0.923633
vt 1.622078 0.215624
vt -0.920893 0.245160
vt -0.089995 0.245160
vt -0.089995 -2.998988
vt -0.920893 -2.998988
vt 1.622078 -3.086398
vt -0.486294 1.509073
vt 2.421862 -3.086398
vt 0.110931 0.973582
vt -0.920893 0.303035
vt -0.589893 1.479478
vt -0.089995 0.303035
vt 0.020240 0.915410
vt 2.074139 3.150388
vt 2.421861 0.303035
vt 1.476914 2.614897
vt 1.622078 0.303035
vt -0.089995 -3.086398
vt 1.983448 3.208560
vt -0.920893 -3.086398
vt 1.373315 2.644492
vt 3.829170 -2.005016
vt -3.534722 0.390445
vt 4.421691 -2.545707
vt -2.732955 0.390445
vt -2.732955 3.634593
vt -3.534722 3.634593
vt -3.516201 0.215624
vt -2.686684 0.215624
vt -2.686684 -3.028522
vt -3.516201 -3.028522
vt -2.732955 3.692467
vt 0.092027 3.136263
vt -3.534722 3.692467
vt -0.495746 2.590415
vt -2.686684 -3.086398
vt 0.000333 3.192841
vt -3.516201 -3.086398
vt -0.599847 2.618194
vt 1.467461 1.533555
vt -3.534722 0.303035
vt 2.055234 0.987707
vt -2.732955 0.303035
vt -3.516201 0.303035
vt 1.363361 1.505777
vt -2.686684 0.303035
vt 1.963541 0.931128
vt -1.128924 3.634593
vt 3.424259 -3.028522
vt -1.128924 0.390445
vt 3.424259 0.215624
vt -1.245220 3.634593
vt 0.950784 0.245160
vt -1.245220 0.390445
vt 0.950784 -2.998988
vt -1.128924 0.303035
vt 3.424259 0.303035
vt 2.913992 3.734187
vt 0.950784 0.389783
vt -1.128924 3.692467
vt 3.424259 -3.086398
vt 0.873002 0.303035
vt 0.950784 0.303035
vt -1.245220 3.692467
vt 0.950784 -3.086398
vt -1.245220 0.303035
vt 2.836210 3.820935
vt -1.012422 3.605057
vt -1.700793 0.390445
vt -1.012422 0.360910
vt -1.700793 3.634593
vt -1.128922 3.605057
vt -1.616208 0.215624
vt -1.128922 0.360910
vt -1.616208 -3.028522
vt 0.871498 3.820935
vt -1.616208 -3.086398
vt -1.128922 0.303035
vt 0.950784 3.735559
vt -1.012422 0.303035
vt -1.700793 3.692467
vt -1.012422 3.692467
vt -1.700793 0.303035
vt 2.913992 0.388411
vt -1.128922 3.692467
vt -1.616208 0.303035
vt 2.834706 0.303035
s 0
usemtl MadeiraColor
f 4/5/1 2/2/1 6/9/1 7/10/1
f 3/3/2 4/6/2 7/12/2 8/14/2
f 2/2/3 1/1/3 5/7/3 6/9/3
f 1/1/4 3/4/4 8/13/4 5/7/4
f 7/11/5 6/8/5 31/58/5 32/60/5 10/17/5 45/82/5 46/84/5
f 45/83/6 10/18/6 25/46/6 57/101/6
f 22/40/7 19/33/7 74/139/7 73/136/7
f 18/31/7 21/39/7 67/122/7 66/119/7
f 31/59/8 6/9/8 26/49/8 41/75/8
f 21/38/9 11/20/9 63/113/9 67/123/9
f 14/23/10 22/41/10 73/137/10 72/135/10
f 53/93/7 19/33/7 22/40/7 55/97/7
f 37/67/7 17/30/7 20/37/7 39/71/7
f 47/86/11 8/14/11 19/34/11 53/92/11
f 29/56/12 9/15/12 17/28/12 37/66/12
f 52/91/13 15/24/13 20/35/13 56/98/13
f 34/63/14 11/20/14 21/38/14 40/72/14
f 41/74/5 26/50/5 28/55/5 43/79/5
f 57/100/5 25/47/5 27/52/5 59/105/5
f 36/65/15 16/26/15 27/51/15 44/80/15
f 50/89/16 13/22/16 24/44/16 60/106/16
f 12/21/9 28/54/9 68/125/9 64/115/9
f 8/14/17 7/12/17 69/129/17 70/131/17
f 12/21/14 35/64/14 43/78/14 28/54/14
f 35/64/18 36/65/18 44/80/18 43/78/18
f 25/47/5 42/76/5 44/81/5 27/52/5
f 42/76/5 41/74/5 43/79/5 44/81/5
f 15/25/15 33/62/15 39/70/15 20/36/15
f 33/62/18 34/63/18 40/72/18 39/70/18
f 5/7/8 30/57/8 38/68/8 18/32/8
f 30/57/19 29/56/19 37/66/19 38/68/19
f 18/31/7 38/69/7 40/73/7 21/39/7
f 38/69/7 37/67/7 39/71/7 40/73/7
f 10/19/12 32/61/12 42/77/12 25/48/12
f 32/61/19 31/59/19 41/75/19 42/77/19
f 16/27/13 49/88/13 59/104/13 27/53/13
f 49/88/20 50/89/20 60/106/20 59/104/20
f 23/43/5 58/102/5 60/107/5 24/45/5
f 58/102/5 57/100/5 59/105/5 60/107/5
f 14/23/16 51/90/16 55/96/16 22/41/16
f 51/90/20 52/91/20 56/98/20 55/96/20
f 9/16/6 48/87/6 54/94/6 17/29/6
f 48/87/21 47/86/21 53/92/21 54/94/21
f 17/30/7 54/95/7 56/99/7 20/37/7
f 54/95/7 53/93/7 55/97/7 56/99/7
f 7/12/11 46/85/11 58/103/11 23/42/11
f 46/85/21 45/83/21 57/101/21 58/103/21
f 62/110/22 61/108/22 63/112/22 64/114/22
f 63/112/22 61/108/22 66/120/22 67/124/22
f 62/110/22 64/114/22 68/126/22 65/116/22
f 11/20/9 12/21/9 64/115/9 63/113/9
f 5/7/23 18/32/23 66/121/23 61/109/23
f 6/9/23 5/7/23 61/109/23 62/111/23
f 26/49/23 6/9/23 62/111/23 65/117/23
f 28/55/5 26/50/5 65/118/5 68/127/5
f 70/130/24 69/128/24 71/132/24 72/134/24
f 70/130/24 72/134/24 73/138/24 74/140/24
f 71/132/24 69/128/24 75/142/24 76/145/24
f 13/22/10 14/23/10 72/135/10 71/133/10
f 7/12/17 23/42/17 75/143/17 69/129/17
f 19/34/17 8/14/17 70/131/17 74/141/17
f 24/44/10 13/22/10 71/133/10 76/146/10
f 23/43/5 24/45/5 76/147/5 75/144/5
o Cube.002
v -9.240783 2.497320 10.230954
v -9.240783 17.733358 10.230954
v -9.240783 2.497320 -7.123438
v -9.240783 17.733358 -7.123438
v 9.414664 2.497320 10.230954
v 9.414664 17.733358 10.230954
v 9.414664 2.497320 -7.123438
v 9.414664 17.733358 -7.123438
v -3.045871 2.497320 10.230954
v -3.045871 17.733358 10.230954
v 3.184396 2.497320 10.230954
v 3.184397 17.733358 10.230954
v -3.045871 13.133946 10.230954
v 3.184396 13.133946 10.230954
v -3.045871 2.497320 10.499673
v 3.184396 2.497320 10.499673
vn -0.0000 -0.0000 -1.0000
vn -1.0000 -0.0000 -0.0000
vn 1.0000 -0.0000 -0.0000
vn -0.0000 -0.0000 1.0000
vn -0.0000 -1.0000 -0.0000
vt 2.852475 -1.381600
vt -1.944533 0.648051
vt 2.852475 0.648051
vt -1.944533 2.677702
vt 0.540630 -1.381600
vt 0.540630 0.648051
vt 0.540630 0.648051
vt 0.540630 2.677702
vt -1.944533 -1.381600
vt 2.852475 0.648051
vt -1.944533 0.648051
vt 2.852475 2.677702
vt -1.119285 0.648051
vt -0.669062 -1.417397
vt -1.119285 2.677702
vt -0.289327 0.648051
vt 0.160896 -1.417397
vt -0.289327 2.677702
vt -1.119285 2.064997
vt -0.289327 2.064997
vt -0.669062 -1.381600
vt 0.160896 -1.381600
s 0
usemtl Wood
f 80/153/25 84/158/25 83/156/25 79/152/25
f 77/148/26 78/150/26 80/153/26 79/152/26
f 83/157/27 84/159/27 82/155/27 81/154/27
f 90/167/28 88/165/28 86/162/28 89/166/28
f 85/160/28 89/166/28 86/162/28 78/151/28 77/149/28
f 81/154/28 82/155/28 88/165/28 90/167/28 87/163/28
f 85/161/29 87/164/29 92/169/29 91/168/29
o Cube.003
v -2.734840 12.602942 8.276913
v -2.734840 3.028324 8.276913
v 2.873368 3.028324 8.276913
v 2.873369 12.602942 8.276913
vn -0.0000 -0.0000 1.0000
vt 0.549531 0.916983
vt 0.375000 0.916983
vt 0.375000 0.833491
vt 0.549531 0.833491
s 0
usemtl MadeiraColor
f 95/172/30 96/173/30 93/170/30 94/171/30
o Cube.005
v -2.734840 12.602942 10.230954
v -2.734840 3.028324 10.230954
v -2.734840 12.602942 8.276913
v -2.734840 3.028324 8.276913
v -2.734840 12.602942 10.499673
v -2.734840 3.028324 10.499673
v -3.045871 2.497320 10.230954
v 3.184396 2.497320 10.230954
v -3.045871 13.133946 10.230954
v 3.184396 13.133946 10.230954
v -2.734840 12.602942 10.230954
v -2.734840 3.028324 10.230954
v 2.873368 3.028324 10.230954
v 2.873369 12.602942 10.230954
v -2.734840 12.602942 8.276913
v -2.734840 3.028324 8.276913
v 2.873368 3.028324 8.276913
v 2.873369 12.602942 8.276913
v -3.045871 13.133946 10.499673
v -3.045871 2.497320 10.499673
v 3.184396 2.497320 10.499673
v 3.184396 13.133946 10.499673
v -2.734840 12.602942 10.499673
v -2.734840 3.028324 10.499673
v 2.873368 3.028324 10.499673
v 2.873369 12.602942 10.499673
vn 1.0000 -0.0000 -0.0000
vn -1.0000 -0.0000 -0.0000
vn -0.0000 1.0000 -0.0000
vn -0.0000 -1.0000 -0.0000
vn -0.0000 -0.0000 1.0000
vt -0.669062 -1.417397
vt -1.944533 -1.417397
vt -0.669062 -1.677702
vt -1.944533 -1.677702
vt -0.669062 -1.381600
vt -1.944533 -1.381600
vt 0.375000 0.916983
vt 0.375000 0.833491
vt 0.549531 0.916983
vt 0.549531 0.833491
vt 0.549531 0.916983
vt 0.208017 0.750000
vt 0.375000 0.833491
vt 0.291509 0.750000
vt 0.549531 0.833491
vt 0.549531 0.916983
vt 0.208017 0.750000
vt 0.375000 0.833491
vt 0.291509 0.750000
vt 0.549531 0.833491
vt 0.549531 0.916983
vt 0.375000 0.916983
vt 0.208017 0.750000
vt 0.291509 0.750000
vt 0.375000 0.833491
vt 0.549531 0.833491
vt 0.549531 0.916983
vt 0.375000 0.916983
vt 0.208017 0.750000
vt 0.375000 0.833491
vt 0.291509 0.750000
vt 0.549531 0.833491
s 0
usemtl MadeiraColor
f 98/175/31 97/174/31 101/178/31 102/179/31
f 97/174/31 98/175/31 100/177/31 99/176/31
f 109/186/32 110/188/32 114/193/32 113/191/32
f 110/188/32 109/186/32 121/203/32 122/205/32
f 106/183/33 105/182/33 115/194/33 118/199/33
f 105/182/32 103/180/32 116/195/32 115/194/32
f 110/188/34 107/184/34 111/189/34 114/193/34
f 108/185/33 109/187/33 113/192/33 112/190/33
f 115/194/35 116/195/35 120/201/35 119/200/35
f 118/199/35 115/194/35 119/200/35 122/205/35
f 116/196/35 117/197/35 121/204/35 120/202/35
f 117/198/35 118/199/35 122/205/35 121/203/35
f 107/184/34 110/188/34 122/205/34 119/200/34
f 104/181/31 106/183/31 118/199/31 117/198/31
f 109/187/33 108/185/33 120/202/33 121/204/33
o Telhado
v -12.270082 17.669052 13.069912
v -12.270082 17.669052 -9.962395
v 12.443957 17.669052 -9.962395
v 12.443957 17.669052 13.069912
v 0.086938 29.081442 13.069912
v 0.086938 29.081442 -9.962395
v -4.032069 26.456633 13.069912
v -8.151075 22.652502 13.069912
v -8.151075 22.652502 -9.962395
v -4.032069 26.456633 -9.962395
v 4.205945 26.456633 -9.962395
v 8.324951 22.652502 -9.962395
v 8.324951 22.652502 13.069912
v 4.205945 26.456633 13.069912
vn 0.5374 0.8433 -0.0000
vn -0.5374 0.8433 -0.0000
vn -0.7708 0.6371 -0.0000
vn -0.6785 0.7346 -0.0000
vn 0.7708 0.6371 -0.0000
vn 0.6785 0.7346 -0.0000
vt 0.625000 0.000000
vt 0.625000 0.250000
vt 0.625000 0.500000
vt 0.625000 0.750000
vt 0.625000 0.750000
vt 0.625000 0.000000
vt 0.625000 0.500000
vt 0.625000 0.250000
vt 0.625000 0.000000
vt 0.625000 0.000000
vt 0.625000 0.250000
vt 0.625000 0.250000
vt 0.625000 0.500000
vt 0.625000 0.500000
vt 0.625000 0.750000
vt 0.625000 0.750000
s 0
f 136/221/36 133/218/36 128/212/36 127/210/36
f 132/217/37 129/214/37 127/211/37 128/213/37
f 124/207/38 123/206/38 130/215/38 131/216/38
f 131/216/39 130/215/39 129/214/39 132/217/39
f 126/209/40 125/208/40 134/219/40 135/220/40
f 135/220/41 134/219/41 133/218/41 136/221/41
o Cube.004
v -11.647470 17.175377 13.069912
v 11.821345 17.175377 13.069912
v 0.086938 28.349051 13.069912
v -3.824531 25.803814 13.069912
v -7.736000 22.079254 13.069912
v 7.909875 22.079254 13.069912
v 3.998407 25.803814 13.069912
vn -0.0000 -0.0000 1.0000
vt 4.691557 0.303035
vt 4.691557 3.547181
vt 2.913990 1.925108
vt 3.318901 1.384417
vt 3.911422 0.843726
vt 3.911422 3.006490
vt 3.318901 2.465799
s 0
usemtl Wood
f 137/222/42 138/223/42 142/227/42 143/228/42 139/224/42 140/225/42 141/226/42
