# Blender 3.5.1
# www.blender.org
mtllib Ilhinha_AguaCollider.mtl
o Plane.004
v -41.026379 115.588028 144.377075
v -41.028591 147.959152 144.332474
v -44.095554 147.959152 144.846985
v -43.973484 115.588028 144.855164
v -48.868301 147.959152 143.057526
v -49.172207 115.588028 142.759811
v -50.531357 147.959152 141.434280
v -54.035809 115.588028 140.555756
v -54.033707 147.959152 140.461609
v -57.594524 147.959152 135.833710
v -59.403522 147.959152 133.579544
v -57.652916 115.588028 135.896072
v -59.220299 115.588028 133.543488
v -58.109650 147.959152 131.365707
v -58.121040 115.588028 131.526947
v -58.330620 147.959152 123.452919
v -57.185684 147.959152 118.695808
v -58.389885 115.588028 123.563652
v -57.282394 115.588028 118.810951
v -53.531830 115.588028 114.306992
v -53.464211 147.959152 114.346130
v -51.681301 147.959152 110.475403
v -51.766567 115.588028 110.528343
v -47.694088 115.588028 107.886261
v -47.664021 147.959152 107.908264
v -42.400787 115.588028 105.441216
v -42.381077 147.959152 105.405960
v -37.424824 115.588028 105.603119
v -37.384346 147.959152 105.632240
v -31.767420 147.959152 101.242722
v -31.750490 115.588028 101.262924
v -29.079342 147.959152 99.747726
v -28.087381 115.588028 99.723282
v -24.375488 115.588028 103.436073
v -24.941589 147.959152 101.793770
v -23.305927 147.959152 109.300331
v -23.256214 115.588028 109.315186
v -21.881239 147.959152 114.621590
v -21.848797 115.588028 114.828316
v -19.612617 115.588028 122.717712
v -19.520130 147.959152 122.894066
v -20.029770 147.959152 125.538742
v -20.047697 115.588028 125.275810
v -22.280643 115.588028 127.858467
v -21.940775 147.959152 127.809853
v -24.521013 147.959152 131.304855
v -24.455544 115.588028 131.518845
v -30.528645 147.959152 139.197693
v -29.172401 115.588028 137.703506
v -33.176071 115.588028 140.807159
vn 0.7899 -0.0026 -0.6132
vn 0.7685 -0.0000 0.6399
vn 0.5443 -0.0011 0.8389
vn -0.0325 0.0011 0.9995
vn 0.3875 0.0112 0.9218
vn -0.7070 0.0235 0.7068
vn -0.9824 -0.0014 0.1870
vn -0.9689 0.0006 0.2474
vn -0.9621 0.0013 0.2727
vn -0.8597 -0.0051 -0.5108
vn -0.7951 -0.0053 -0.6064
vn -0.6126 0.0108 -0.7903
vn -0.4140 -0.0013 -0.9103
vn 0.3630 0.0031 -0.9318
vn 0.3550 -0.0131 -0.9348
vn 0.6985 -0.0000 -0.7156
vn 0.8066 0.0013 -0.5911
vn 0.7925 -0.0018 -0.6098
vn 0.8704 0.0033 0.4924
vn 0.9995 -0.0012 -0.0308
vn 0.9731 -0.0015 0.2305
vn 0.9072 -0.0021 0.4208
vn 0.7598 -0.0024 0.6501
vn 0.4237 -0.0001 0.9058
vn 0.5385 -0.0000 0.8426
vn -0.1628 -0.0011 -0.9867
vn 0.6117 -0.0003 0.7911
vn -0.0452 -0.0008 0.9990
vn -0.9839 0.0029 -0.1787
vn 0.4860 0.0008 0.8739
vn -0.4432 -0.0143 0.8963
vn -0.9771 -0.0063 0.2129
vn -0.9660 -0.0014 0.2586
vn -0.9616 0.0008 0.2745
vn -0.7605 0.0064 -0.6493
vn -0.8045 0.0076 -0.5939
vn -0.7957 -0.0056 -0.6057
vn -0.4393 -0.0087 -0.8983
vt 0.767182 0.132322
vt 0.741720 0.121685
vt 0.767145 0.132308
vt 0.741343 0.121583
vt 0.780875 0.138078
vt 0.715096 0.122268
vt 0.739686 0.121163
vt 0.715096 0.122268
vt 0.739686 0.121163
vt 0.713854 0.122728
vt 0.698077 0.131263
vt 0.713854 0.122728
vt 0.678639 0.142760
vt 0.697149 0.131931
vt 0.678639 0.142760
vt 0.694273 0.133958
vt 0.650947 0.165017
vt 0.676721 0.143400
vt 0.654534 0.159632
vt 0.676721 0.143400
vt 0.654900 0.159184
vt 0.648078 0.170285
vt 0.644133 0.181518
vt 0.653695 0.160657
vt 0.644102 0.181619
vt 0.637586 0.196400
vt 0.648059 0.170342
vt 0.644133 0.181518
vt 0.644102 0.181619
vt 0.637586 0.196400
vt 0.640408 0.196419
vt 0.640768 0.231023
vt 0.640417 0.196425
vt 0.640768 0.231023
vt 0.640719 0.234017
vt 0.643564 0.257894
vt 0.653732 0.283973
vt 0.644230 0.260726
vt 0.657533 0.289079
vt 0.640719 0.234017
vt 0.643564 0.257894
vt 0.653695 0.283917
vt 0.644230 0.260726
vt 0.654452 0.285067
vt 0.674104 0.313531
vt 0.657805 0.289437
vt 0.674104 0.313531
vt 0.658559 0.290429
vt 0.674584 0.314823
vt 0.690867 0.330221
vt 0.700656 0.334802
vt 0.674584 0.314823
vt 0.690949 0.330255
vt 0.701665 0.335511
vt 0.726330 0.351341
vt 0.701674 0.335517
vt 0.726330 0.351341
vt 0.693069 0.330977
vt 0.747715 0.355814
vt 0.726609 0.351428
vt 0.748201 0.355808
vt 0.726609 0.351428
vt 0.753472 0.355545
vt 0.748733 0.355801
vt 0.776497 0.361114
vt 0.753462 0.355546
vt 0.776497 0.361114
vt 0.755776 0.355273
vt 0.777381 0.361690
vt 0.808183 0.385600
vt 0.812953 0.387911
vt 0.777381 0.361690
vt 0.808175 0.385595
vt 0.814074 0.388260
vt 0.808581 0.385829
vt 0.825083 0.388024
vt 0.814117 0.388273
vt 0.834242 0.382903
vt 0.825477 0.387887
vt 0.837237 0.379843
vt 0.848409 0.344388
vt 0.847618 0.350928
vt 0.835627 0.381491
vt 0.826385 0.387573
vt 0.847617 0.350936
vt 0.848830 0.341517
vt 0.847746 0.349835
vt 0.851135 0.330364
vt 0.848835 0.341481
vt 0.854785 0.316265
vt 0.851338 0.329570
vt 0.855126 0.314920
vt 0.852767 0.324199
vt 0.864760 0.283295
vt 0.855166 0.314762
vt 0.866679 0.277667
vt 0.864750 0.283327
vt 0.866821 0.277228
vt 0.871691 0.244224
vt 0.866821 0.277226
vt 0.871691 0.244224
vt 0.865415 0.281331
vt 0.871358 0.242769
vt 0.867359 0.232098
vt 0.871358 0.242769
vt 0.867359 0.232098
vt 0.848185 0.210194
vt 0.867212 0.231565
vt 0.854741 0.219801
vt 0.867212 0.231565
vt 0.854786 0.219854
vt 0.847690 0.209192
vt 0.853802 0.218666
vt 0.836639 0.189225
vt 0.847632 0.209073
vt 0.830773 0.181518
vt 0.836650 0.189241
vt 0.830210 0.180852
vt 0.798638 0.148543
vt 0.835979 0.188314
vt 0.781734 0.138598
vt 0.830223 0.180867
vt 0.799522 0.149022
vt 0.798680 0.148565
vt 0.768822 0.132927
vt 0.781572 0.138500
s 0
f 12/27/1 10/22/1 8/17/1
f 20/44/2 17/37/2 19/42/2
f 24/54/3 25/56/3 23/51/3
f 28/64/4 27/61/4 26/59/4
f 33/77/5 32/74/5 31/71/5
f 34/80/6 35/83/6 33/78/6
f 37/89/7 36/86/7 34/81/7
f 39/95/8 38/92/8 37/90/8
f 40/98/9 41/100/9 39/96/9
f 47/115/10 46/112/10 44/107/10
f 49/122/11 48/118/11 47/116/11
f 50/124/12 48/119/12 49/123/12
f 1/1/13 2/3/13 50/125/13
f 3/6/14 4/8/14 6/12/14 5/10/14
f 7/15/15 6/13/15 8/18/15 9/20/15
f 6/14/16 7/16/16 5/11/16
f 10/23/17 12/28/17 13/29/17 11/25/17
f 8/19/18 10/24/18 9/21/18
f 11/26/19 13/30/19 15/33/19 14/31/19
f 14/32/20 15/34/20 18/40/20 16/35/20
f 16/36/21 18/41/21 19/43/21 17/38/21
f 21/47/22 20/45/22 23/52/22 22/49/22
f 20/46/23 21/48/23 17/39/23
f 25/57/24 24/55/24 26/60/24 27/62/24
f 23/53/25 25/58/25 22/50/25
f 2/4/26 1/2/26 4/9/26 3/7/26
f 29/67/27 28/65/27 31/72/27 30/69/27
f 28/66/28 29/68/28 27/63/28
f 41/101/29 40/99/29 43/105/29 42/103/29
f 31/73/30 32/75/30 30/70/30
f 33/79/31 35/84/31 32/76/31
f 34/82/32 36/87/32 35/85/32
f 37/91/33 38/93/33 36/88/33
f 39/97/34 41/102/34 38/94/34
f 42/104/35 43/106/35 44/108/35 45/110/35
f 44/109/36 46/113/36 45/111/36
f 47/117/37 48/120/37 46/114/37
f 50/126/38 2/5/38 48/121/38
