# Blender 3.5.1
# www.blender.org
mtllib Ilhona2_AguaCollider.mtl
o Plane.003
v -100.419312 219.444931 26.349033
v -61.240349 219.444931 131.583069
v -98.798592 219.444931 23.005337
v -146.734619 219.444931 51.196827
v -156.224976 219.450958 108.556702
v -92.210533 219.444931 15.183174
v -148.881042 219.444931 63.771385
v -61.507046 219.444931 123.344398
v -61.293758 162.930496 123.461693
v -92.227814 162.930496 15.143021
v -156.242767 162.935547 108.548965
v -146.753235 162.930496 57.493813
v -73.179916 162.930496 144.496643
v -98.434982 162.930496 21.974869
v -61.294559 162.930496 131.526978
v -100.572960 162.930496 26.568707
v -69.941803 162.930496 139.897095
v -76.299789 162.930496 148.413696
v -128.659927 162.930496 47.780010
v -73.839294 162.930496 145.686737
v -146.737885 162.930496 51.209038
v -136.964417 162.930496 43.487827
v -60.123386 162.930496 128.269058
v -152.534805 162.930496 88.237923
v -139.296799 162.930496 128.894363
v -102.759323 162.930496 36.747311
v -36.128647 162.930496 73.755257
v -24.467926 162.930496 85.307152
v -27.697861 162.930496 12.445091
v -64.163368 162.930496 107.137741
v -154.479095 162.930496 71.546860
v -118.479012 162.930496 51.683380
v -35.777153 162.930496 11.010597
v -107.182205 162.930496 57.709854
v -64.511337 162.930496 134.836487
v -152.060791 162.930496 116.627502
v -10.487617 162.930496 74.419487
v -13.688347 162.930496 78.788078
v -52.516403 162.930496 90.611694
v -51.745968 162.930496 77.066193
v -51.674377 162.930496 86.803322
v -154.475006 162.930496 100.832802
v -74.319618 162.930496 12.419487
v -143.438782 162.930496 39.582935
v -40.902943 162.930496 71.968582
v -48.069416 162.930496 74.739792
v -126.905396 162.930496 139.528198
v -128.149063 162.930496 49.030975
v -122.597031 162.930496 139.709869
v -130.274750 162.930496 134.491089
v -131.971954 162.930496 134.564041
v -148.545349 162.930496 63.326324
v -52.334785 162.930496 82.937325
v -86.028847 162.930496 148.378571
v -113.271805 162.930496 58.721100
v -130.061218 162.930496 137.323792
v -88.220276 162.930496 151.253494
v -55.210999 162.930496 12.830971
v -84.057533 162.930496 12.678566
v -6.078247 162.930496 48.820690
v -100.395844 162.930496 151.433746
v -141.136948 162.930496 40.260647
v -112.126945 162.930496 145.980804
v -7.062233 162.930496 42.636726
v -136.641724 162.930496 131.248657
v -32.592125 162.930496 77.956268
v -144.768036 162.930496 42.723145
v -99.579918 162.930496 25.698818
v -144.230499 162.930496 47.650547
v -145.425568 162.930496 124.781509
v -143.036514 162.930496 125.673157
v -102.644852 162.930496 42.599163
v -62.489975 162.930496 120.490761
v -23.696938 162.930496 19.636494
v -102.947571 162.930496 149.007477
v -62.295670 162.930496 114.495544
v -54.946972 162.930496 93.141853
v -63.496437 162.930496 12.806915
v -154.781464 162.930496 80.385757
v -152.611267 162.930496 67.944183
v -117.306686 162.930496 55.535694
v -149.271408 162.930496 120.216599
v -92.829674 162.930496 152.684418
v -44.248405 162.930496 74.016388
v -116.687668 162.930496 139.786652
v -63.206543 162.930496 101.799377
v -42.603985 162.930496 7.600540
v -153.523483 162.930496 94.390274
v -38.568714 162.930496 71.039116
v -47.820881 162.930496 10.785477
v -121.667542 162.930496 49.871880
v -79.517632 162.930496 12.609146
v -7.446144 162.930496 66.684616
v -156.522552 162.930496 103.737305
v -88.623688 162.930496 13.879356
v -133.001587 162.930496 45.801022
v -6.410553 162.930496 59.589798
v -14.307220 162.930496 25.517769
v -19.160843 162.930496 83.595261
v -18.529140 162.930496 21.885342
v -102.775879 162.930496 48.003441
v -10.865334 162.930496 36.645618
v -68.636360 162.930496 12.340454
v -29.166267 162.930496 83.577538
v -150.509018 162.930496 116.130966
v -81.065155 162.930496 147.747803
v -121.893829 162.930496 138.495087
v -105.742928 162.930496 148.644623
v -31.449306 162.930496 10.057678
v -155.674286 162.899643 111.123154
v -39.470493 162.930496 8.177689
v -149.854523 162.930496 64.359787
v -103.547813 162.930496 52.924480
v -150.509216 162.930496 67.321152
v -57.134418 162.930496 96.429947
v -69.949020 219.444931 139.906021
v -76.272530 219.444931 148.322693
v -128.649139 219.444931 47.775486
v -73.281891 219.444931 144.651001
v -100.469002 219.444931 151.181061
v -60.138172 219.444931 128.643646
v -139.303436 219.444931 128.879715
v -102.846329 219.444931 36.913597
v -36.123981 219.444931 73.787910
v -24.515030 219.444931 85.350319
v -27.660610 219.444931 12.615234
v -64.213211 219.444931 107.016319
v -35.885479 219.444931 10.967979
v -154.660126 219.444931 73.376518
v -119.385384 219.444931 50.534157
v -31.406406 219.444931 9.981590
v -107.144325 219.444931 57.740566
v -152.842911 219.444931 68.102242
v -64.386909 219.444931 134.598999
v -151.975708 219.444931 116.772766
v -10.502174 219.444931 74.630959
v -52.248291 219.444931 90.022522
v -51.789383 219.444931 77.112892
v -154.405304 219.444931 101.146667
v -72.914131 219.444931 12.800865
v -143.343323 219.444931 39.689224
v -47.797634 219.444931 74.636452
v -126.879143 219.444931 139.469193
v -6.109390 219.444931 48.674469
v -128.046265 219.444931 49.087646
v -122.388275 219.444931 139.664047
v -97.440613 219.444931 20.357826
v -101.796623 219.444931 30.559372
v -130.274445 219.444931 134.491013
v -131.880157 219.444931 134.572037
v -52.226013 219.444931 82.884163
v -85.878326 219.444931 148.275696
v -113.272797 219.444931 58.728657
v -130.194290 219.444931 137.136963
v -88.089127 219.444931 151.149963
v -55.204567 219.444931 12.836342
v -83.942848 219.444931 12.620949
v -56.932461 219.444931 96.355141
v -141.105713 219.444931 40.287697
v -111.597221 219.444931 146.309326
v -7.034210 219.444931 42.668224
v -23.506504 219.444931 19.537960
v -154.141754 219.444931 96.448517
v -136.593124 219.444931 131.410675
v -144.748489 219.444931 42.837906
v -6.728218 219.444931 63.954834
v -144.192093 219.444931 47.619190
v -63.080898 219.444931 101.550117
v -143.308258 219.444931 125.623795
v -102.450333 219.444931 41.016808
v -18.625454 219.444931 21.932228
v -102.866951 219.444931 149.046722
v -62.528824 219.444931 119.778870
v -62.395050 219.444931 114.017654
v -54.903030 219.444931 93.101212
v -146.760437 219.444931 57.545372
v -93.837166 219.444931 152.918274
v -154.789368 219.444931 80.397713
v -117.282135 219.444931 55.631874
v -148.924118 219.444931 121.058899
v -152.497910 219.444931 88.428986
v -32.364807 219.444931 78.421104
v -42.501812 219.444931 73.165848
v -116.183426 219.444931 140.104675
v -38.928303 219.444931 70.829956
v -47.808018 219.444931 10.787033
v -76.958542 219.444931 12.280251
v -156.560455 219.444931 103.780930
v -43.913513 219.444931 8.193558
v -88.658134 219.444931 13.880394
v -132.819946 219.444931 45.890285
v -136.415298 219.444931 43.743343
v -13.714195 219.444931 78.803131
v -19.107243 219.444931 83.566467
v -14.604065 219.444931 24.683914
v -102.639084 219.444931 47.318913
v -10.858665 219.444931 36.464443
v -63.372238 219.444931 12.784859
v -29.168453 219.444931 83.497444
v -150.529297 219.444931 116.149368
v -81.024963 219.444931 147.726746
v -121.819229 219.444931 138.524323
v -105.755615 219.444931 148.633942
v -155.677612 219.413895 111.102226
v -40.622231 219.444931 7.566841
v -103.479538 219.444931 53.012260
v -150.070282 219.444931 66.785233
vn 0.9764 -0.0055 0.2159
vn -0.9997 -0.0020 -0.0232
vn -0.3990 -0.0014 0.9169
vn -0.9276 -0.0027 0.3735
vn 0.3497 0.0009 -0.9369
vn -0.9428 -0.0041 -0.3333
vn 0.6589 0.0011 0.7522
vn 0.9558 0.0008 0.2939
vn -0.9992 -0.0025 -0.0405
vn -0.4148 0.0002 0.9099
vn -0.9995 -0.0006 -0.0308
vn -0.6086 -0.0006 0.7935
vn 0.8042 -0.0041 -0.5944
vn 0.3699 -0.0013 -0.9291
vn -0.9553 0.0011 0.2955
vn -0.0904 0.0006 0.9959
vn 0.7650 0.0003 -0.6440
vn 0.0139 -0.0071 0.9999
vn -0.5471 0.0023 -0.8370
vn 0.7765 0.0021 -0.6301
vn 0.6196 -0.0025 0.7849
vn 0.8173 -0.0042 0.5762
vn 0.8878 0.0024 0.4603
vn 0.1638 -0.0006 0.9865
vn 0.9873 -0.0012 0.1587
vn 0.7964 -0.0019 0.6048
vn 0.2150 0.0012 0.9766
vn 0.9777 0.0063 0.2100
vn -0.9995 -0.0011 -0.0324
vn -0.6522 0.0078 0.7580
vn 0.9998 -0.0040 -0.0196
vn 1.0000 -0.0001 0.0024
vn -0.7924 -0.0002 -0.6100
vn -0.9895 0.0056 -0.1444
vn 0.5211 0.0031 0.8535
vn -0.4940 0.0098 0.8694
vn -0.9857 0.0021 0.1684
vn 0.0365 0.0042 0.9993
vn 0.9209 -0.0023 0.3898
vn 0.9983 0.0007 -0.0580
vn -0.1811 0.0069 0.9834
vn 0.8053 -0.0038 -0.5929
vn 0.9893 0.0055 0.1461
vn 0.8539 0.0008 -0.5204
vn -0.8739 -0.0009 0.4862
vn -0.9792 -0.0013 -0.2028
vn 0.9512 0.0015 0.3086
vn 0.1631 0.0070 -0.9866
vn -0.5647 -0.0016 0.8253
vn -0.3102 0.0001 -0.9507
vn 0.9866 0.0010 0.1630
vn 0.9132 -0.0011 0.4075
vn -0.6454 0.0013 -0.7638
vn 0.8898 -0.0026 0.4564
vn -0.1193 -0.0009 -0.9929
vn 0.2534 -0.0040 -0.9674
vn -0.0046 0.0002 1.0000
vn 0.8163 -0.0001 0.5776
vn 0.8998 0.0083 0.4362
vn -0.6624 -0.0018 -0.7491
vn -0.9388 0.0016 -0.3444
vn -0.7408 -0.0017 -0.6717
vn 0.6732 0.0007 -0.7394
vn 0.2561 0.0017 -0.9667
vn -0.4404 0.0030 0.8978
vn 0.7740 -0.0000 0.6332
vn -0.9880 0.0001 0.1547
vn -0.8067 0.0020 -0.5910
vn -0.8798 0.0021 -0.4754
vn 0.1314 -0.0011 -0.9913
vn 0.0356 0.0026 0.9994
vn 0.2562 0.0003 0.9666
vn -0.6155 -0.0006 0.7881
vn 0.5571 -0.0008 -0.8305
vn 0.9986 0.0011 -0.0535
vn 0.7241 0.0031 0.6897
vn 0.9535 -0.0005 -0.3013
vn 0.9615 0.0002 -0.2747
vn -0.5308 0.0006 -0.8475
vn 0.9975 -0.0003 -0.0701
vn -0.9764 0.0024 -0.2159
vn 0.7344 0.0012 -0.6788
vn -0.9172 0.0007 0.3985
vn -0.5832 -0.0031 0.8123
vn -0.6861 -0.0008 -0.7275
vn 0.9996 0.0012 0.0272
vn -0.7050 -0.0000 -0.7092
vn -0.9961 0.0006 -0.0877
vn -0.9999 -0.0100 -0.0031
vn -0.3499 0.0016 -0.9368
vn -0.6610 0.0001 -0.7504
vn 0.3455 0.0010 -0.9384
vn 0.9454 -0.0075 0.3257
vn 0.0017 -0.0080 1.0000
vn -0.9686 -0.0000 0.2486
vn 0.9504 -0.0014 0.3109
vn 0.2151 0.0011 0.9766
vn 0.9996 -0.0024 0.0273
vn 0.1592 -0.0001 0.9873
vn 0.6776 -0.0014 -0.7354
vn -0.8575 0.0038 0.5145
vn 0.9954 0.0018 -0.0961
vn 0.6307 -0.0121 -0.7759
vn -0.9699 -0.0025 0.2437
vn -0.2951 -0.0012 -0.9555
vn -0.9530 -0.0005 0.3030
vn -0.9613 0.0028 0.2755
vn 0.7648 0.0049 -0.6443
vn 0.5789 0.0018 -0.8154
vn 0.9937 -0.0004 -0.1120
vn 1.0000 0.0001 0.0041
vn -0.9306 0.0011 -0.3659
vn -0.6021 0.0011 0.7985
vn 0.3376 -0.0003 0.9413
vn -0.8478 0.0010 0.5303
vn 0.6415 0.0011 -0.7671
vn -0.2706 -0.0008 0.9627
vn 0.5741 -0.0012 -0.8188
vn -0.8405 0.0013 -0.5418
vn 0.2669 -0.0001 0.9637
vn -0.4119 -0.0001 0.9112
vn -0.0466 0.0001 -0.9989
vn -0.7940 0.0009 -0.6080
vn 0.3778 0.0009 -0.9259
vn -0.7612 -0.0025 -0.6485
vn -0.5082 0.0007 0.8612
vn -0.2340 -0.0040 -0.9722
vn 0.5543 -0.0001 0.8323
vn 0.9771 -0.0002 -0.2130
vn 0.8367 -0.0000 -0.5477
vn -0.1494 -0.0031 0.9888
vn 0.0428 -0.0010 -0.9991
vn -0.8180 -0.0000 -0.5752
vn -0.3699 -0.0058 -0.9290
vn 0.1871 -0.0060 0.9823
vn -0.9391 -0.0041 0.3437
vn 0.1352 0.0002 -0.9908
vn -0.1277 -0.0035 0.9918
vn 0.8462 -0.0007 -0.5328
vn -0.8747 -0.0003 -0.4846
vn 0.9984 -0.0015 0.0560
vn -0.5221 0.0033 -0.8529
vn 0.9887 -0.0010 0.1502
vn 0.7904 -0.0009 0.6126
vn 0.9796 0.0034 0.2008
vn 0.9301 -0.0122 0.3670
vn 0.3698 0.0024 0.9291
vn -0.5565 -0.0003 0.8309
vn -0.9843 0.0014 -0.1764
vt 0.000000 0.000000
vt 0.000000 0.000000
vt 0.000000 0.000000
vt 0.000000 0.000000
vt 0.000000 0.000000
vt 0.000000 0.000000
vt 0.000000 0.000000
vt 0.000000 0.000000
vt 0.000000 0.000000
vt 0.000000 0.000000
vt 0.000000 0.000000
vt 0.000000 0.000000
vt 0.000000 0.000000
vt 0.000000 0.000000
vt 0.000000 0.000000
vt 0.000000 0.000000
vt 0.000000 0.000000
vt 0.514421 0.099010
vt 0.000000 0.000000
vt 0.000000 0.000000
vt 0.000000 0.000000
vt 0.000000 0.000000
vt 0.000000 0.000000
vt 0.000000 0.000000
vt 0.000000 0.000000
vt 0.000000 0.000000
vt 0.000000 0.000000
vt 0.000000 0.000000
vt 0.000000 0.000000
vt 0.000000 0.000000
vt 0.000000 0.000000
vt 0.000000 0.000000
vt 0.000000 0.000000
vt 0.000000 0.000000
vt 0.000000 0.000000
vt 0.000000 0.000000
vt 0.000000 0.000000
vt 0.000000 0.000000
vt 0.000000 0.000000
vt 0.000000 0.000000
vt 0.000000 0.000000
vt 0.000000 0.000000
vt 0.681767 0.467498
vt 0.000000 0.000000
vt 0.000000 0.000000
vt 0.000000 0.000000
vt 0.000000 0.000000
vt 0.000000 0.000000
vt 0.000000 0.000000
vt 0.000000 0.000000
vt 0.000000 0.000000
vt 0.000000 0.000000
vt 0.000000 0.000000
vt 0.000000 0.000000
vt 0.000000 0.000000
vt 0.485149 0.099010
vt 0.000000 0.000000
vt 0.000000 0.000000
vt 0.000000 0.000000
vt 0.000000 0.000000
vt 0.000000 0.000000
vt 0.000000 0.000000
vt 0.000000 0.000000
vt 0.415842 0.069307
vt 0.000000 0.000000
vt 0.000000 0.000000
vt 0.000000 0.000000
vt 0.336634 0.099010
vt 0.000000 0.000000
vt 0.000000 0.000000
vt 0.000000 0.000000
vt 0.000000 0.000000
vt 0.000000 0.000000
vt 0.000000 0.000000
vt 0.000000 0.000000
vt 0.000000 0.000000
vt 0.000000 0.000000
vt 0.000000 0.000000
vt 0.000000 0.000000
vt 0.000000 0.000000
vt 0.000000 0.000000
vt 0.000000 0.000000
vt 0.000000 0.000000
vt 0.000000 0.000000
vt 0.000000 0.000000
vt 0.000000 0.000000
vt 0.000000 0.000000
vt 0.430626 0.069307
vt 0.000000 0.000000
vt 0.000000 0.000000
vt 0.000000 0.000000
vt 0.000000 0.000000
vt 0.000000 0.000000
vt 0.000000 0.000000
vt 0.000000 0.000000
vt 0.000000 0.000000
vt 0.000000 0.000000
vt 0.000000 0.000000
vt 0.000000 0.000000
vt 0.000000 0.000000
vt 0.000000 0.000000
vt 0.000000 0.000000
vt 0.000000 0.000000
vt 0.917705 0.800054
vt 0.000000 0.000000
vt 0.000000 0.000000
vt 0.000000 0.000000
vt 0.000000 0.000000
vt 0.920792 0.792079
vt 0.000000 0.000000
vt 0.000000 0.000000
vt 0.000000 0.000000
vt 0.000000 0.000000
vt 0.493889 0.100251
vt 0.504951 0.099010
vt 0.000000 0.000000
vt 0.345381 0.099702
vt 0.000000 0.000000
vt 0.000000 0.000000
vt 0.000000 0.000000
vt 0.000000 0.000000
vt 0.000000 0.000000
vt 0.000000 0.000000
vt 0.000000 0.000000
vt 0.000000 0.000000
vt 0.000000 0.000000
vt 0.514421 0.099010
vt 0.000000 0.000000
vt 0.000000 0.000000
vt 0.000000 0.000000
vt 0.000000 0.000000
vt 0.000000 0.000000
vt 0.000000 0.000000
vt 0.000000 0.000000
vt 0.000000 0.000000
vt 0.000000 0.000000
vt 0.000000 0.000000
vt 0.000000 0.000000
vt 0.000000 0.000000
vt 0.000000 0.000000
vt 0.000000 0.000000
vt 0.000000 0.000000
vt 0.000000 0.000000
vt 0.000000 0.000000
vt 0.000000 0.000000
vt 0.000000 0.000000
vt 0.000000 0.000000
vt 0.000000 0.000000
vt 0.683168 0.465347
vt 0.000000 0.000000
vt 0.000000 0.000000
vt 0.000000 0.000000
vt 0.000000 0.000000
vt 0.000000 0.000000
vt 0.000000 0.000000
vt 0.000000 0.000000
vt 0.000000 0.000000
vt 0.000000 0.000000
vt 0.000000 0.000000
vt 0.000000 0.000000
vt 0.000000 0.000000
vt 0.000000 0.000000
vt 0.000000 0.000000
vt 0.680119 0.470026
vt 0.485149 0.099010
vt 0.000000 0.000000
vt 0.000000 0.000000
vt 0.000000 0.000000
vt 0.000000 0.000000
vt 0.000000 0.000000
vt 0.000000 0.000000
vt 0.000000 0.000000
vt 0.000000 0.000000
vt 0.000000 0.000000
vt 0.336634 0.099010
vt 0.000000 0.000000
vt 0.000000 0.000000
vt 0.000000 0.000000
vt 0.000000 0.000000
vt 0.000000 0.000000
vt 0.000000 0.000000
vt 0.000000 0.000000
vt 0.000000 0.000000
vt 0.000000 0.000000
vt 0.000000 0.000000
vt 0.000000 0.000000
vt 0.000000 0.000000
vt 0.000000 0.000000
vt 0.000000 0.000000
vt 0.000000 0.000000
vt 0.000000 0.000000
vt 0.426962 0.069307
vt 0.000000 0.000000
vt 0.000000 0.000000
vt 0.000000 0.000000
vt 0.000000 0.000000
vt 0.000000 0.000000
vt 0.000000 0.000000
vt 0.000000 0.000000
vt 0.000000 0.000000
vt 0.000000 0.000000
vt 0.000000 0.000000
vt 0.000000 0.000000
vt 0.000000 0.000000
vt 0.000000 0.000000
vt 0.000000 0.000000
vt 0.000000 0.000000
vt 0.000000 0.000000
vt 0.000000 0.000000
vt 0.000000 0.000000
vt 0.000000 0.000000
vt 0.000000 0.000000
vt 0.919780 0.794694
vt 0.000000 0.000000
vt 0.000000 0.000000
vt 0.000000 0.000000
vt 0.000000 0.000000
vt 0.493889 0.100251
vt 0.504951 0.099010
vt 0.000000 0.000000
vt 0.345381 0.099702
vt 0.000000 0.000000
vt 0.000000 0.000000
vt 0.000000 0.000000
vt 0.000000 0.000000
vt 0.000000 0.000000
s 0
f 112/122/1 207/226/1 114/124/1
f 76/81/2 173/188/2 174/189/2
f 100/107/3 171/186/3 74/79/3
f 9/9/4 8/8/4 73/78/4
f 70/75/5 169/184/5 71/76/5
f 93/99/6 136/147/6 166/181/6
f 68/73/7 1/1/7 16/16/7
f 14/14/8 3/3/8 68/73/8
f 97/103/9 166/181/9 144/156/9
f 19/20/10 118/129/10 96/102/10
f 97/103/11 144/156/11 60/63/11
f 33/34/12 128/139/12 111/121/12
f 63/67/13 184/200/13 160/174/13
f 104/112/14 199/216/14 125/136/14
f 102/109/15 197/213/15 98/104/15
f 78/83/16 198/215/16 103/111/16
f 27/28/17 124/135/17 66/71/17
f 103/111/18 140/152/18 43/45/18
f 45/47/19 183/199/19 185/201/19
f 66/71/20 124/135/20 182/198/20
f 52/54/21 7/7/21 112/122/21
f 42/44/22 139/151/22 94/100/22
f 80/85/23 133/144/23 31/32/23
f 34/35/24 132/143/24 55/58/24
f 24/25/25 181/197/25 88/94/25
f 113/123/26 206/225/26 34/35/26
f 109/119/27 131/142/27 33/34/27
f 16/16/28 148/160/28 26/27/28
f 73/78/29 173/188/29 76/81/29
f 98/105/30 195/211/30 100/107/30
f 26/27/31 170/185/31 72/77/31
f 21/22/32 4/4/32 12/12/32
f 38/39/33 193/209/33 136/147/33
f 93/99/34 166/181/34 97/103/34
f 87/93/35 189/205/35 90/96/35
f 32/33/36 130/141/36 91/97/36
f 41/42/37 151/163/37 53/55/37
f 43/45/38 187/203/38 92/98/38
f 44/46/39 141/153/39 67/72/39
f 94/100/40 188/204/40 11/11/40
f 111/121/41 205/224/41 87/93/41
f 85/91/42 184/200/42 63/67/42
f 88/94/43 163/178/43 42/44/43
f 66/71/44 182/198/44 104/112/44
f 74/79/45 126/137/45 29/30/45
f 30/31/46 127/138/46 168/183/46
f 7/7/47 52/54/47 12/12/47 176/191/47
f 83/88/48 61/64/48 177/192/48
f 100/107/49 195/211/49 171/186/49
f 125/136/50 194/210/50 99/106/50 28/29/50
f 26/27/51 148/160/51 123/134/51
f 67/72/52 141/153/52 165/180/52
f 115/125/53 168/183/53 158/172/53
f 14/14/54 147/159/54 3/3/54
f 152/165/55 201/218/55 106/114/55 54/56/55
f 61/65/56 120/131/56 177/193/56
f 198/215/57 78/83/57 58/61/57 156/170/57
f 4/4/58 21/22/58 69/74/58 167/182/58
f 68/73/59 3/3/59 1/1/59
f 115/125/60 86/92/60 168/183/60
f 121/132/61 23/24/61 15/15/61 2/2/61
f 175/190/62 137/148/62 39/40/62 77/82/62
f 122/133/63 164/179/63 65/70/63 25/26/63
f 202/220/64 184/200/64 85/91/64 107/116/64
f 74/79/65 171/186/65 162/177/65
f 94/100/66 139/151/66 188/204/66
f 144/156/67 161/176/67 64/69/67 60/63/67
f 37/38/68 38/39/68 136/147/68
f 146/158/69 202/220/69 107/116/69 49/51/69
f 201/219/70 117/127/70 18/18/70 106/115/70
f 157/171/71 59/62/71 92/98/71 187/203/71
f 190/206/72 95/101/72 59/62/72 157/171/72
f 179/195/73 81/86/73 55/58/73 153/167/73
f 51/53/74 164/179/74 150/162/74
f 154/168/75 56/59/75 50/52/75 149/161/75
f 147/159/76 14/14/76 10/10/76 6/6/76
f 180/196/77 82/87/77 105/113/77 200/217/77
f 181/197/78 24/25/78 79/84/78 178/194/78
f 138/150/79 142/154/79 46/48/79 40/41/79
f 11/11/80 188/204/80 5/5/80
f 41/42/81 39/40/81 137/148/81
f 185/201/82 124/135/82 27/28/82 89/95/82
f 118/129/83 19/20/83 48/50/83 145/157/83
f 111/121/84 128/139/84 205/224/84
f 116/126/85 134/145/85 35/36/85 17/17/85
f 178/194/86 79/84/86 31/32/86 129/140/86
f 134/145/87 2/2/87 15/15/87 35/36/87
f 151/163/88 138/150/88 40/41/88 53/55/88
f 41/43/89 137/149/89 151/164/89
f 135/146/90 200/217/90 105/113/90 36/37/90
f 194/210/91 193/209/91 38/39/91 99/106/91
f 28/29/92 104/112/92 125/136/92
f 31/32/93 133/144/93 129/140/93
f 103/111/94 198/215/94 140/152/94
f 127/138/95 30/31/95 76/81/95 174/189/95
f 16/16/96 1/1/96 148/160/96
f 33/34/97 131/142/97 128/139/97
f 196/212/98 101/108/98 72/77/98 170/185/98
f 55/58/99 132/143/99 153/167/99
f 120/131/100 61/65/100 75/80/100 172/187/100
f 74/79/101 162/177/101 126/137/101
f 26/27/102 123/134/102 170/185/102
f 70/75/103 180/196/103 169/184/103
f 8/8/104 9/9/104 23/24/104 121/132/104
f 177/193/105 155/169/105 57/60/105 83/89/105
f 98/105/106 197/214/106 195/211/106
f 73/78/107 8/8/107 173/188/107
f 70/75/108 82/87/108 180/196/108
f 51/53/109 65/70/109 164/179/109
f 167/182/110 69/74/110 67/72/110 165/180/110
f 12/12/111 4/4/111 176/191/111
f 93/99/112 37/38/112 136/147/112
f 159/173/113 62/66/113 22/23/113 192/208/113
f 6/6/114 10/10/114 95/101/114 190/206/114
f 197/214/115 102/110/115 64/69/115 161/176/115
f 122/133/116 25/26/116 71/76/116 169/184/116
f 141/153/117 44/46/117 62/66/117 159/173/117
f 143/155/118 47/49/118 56/59/118 154/168/118
f 158/172/119 175/190/119 77/82/119 115/125/119
f 156/170/120 58/61/120 90/96/120 186/202/120
f 96/102/121 118/129/121 191/207/121
f 149/161/122 50/52/122 51/53/122 150/162/122
f 155/169/123 152/166/123 54/57/123 57/60/123
f 160/175/124 203/221/124 108/117/124 63/68/124
f 117/128/125 119/130/125 20/21/125 18/19/125
f 192/208/126 22/23/126 96/102/126 191/207/126
f 142/154/127 183/199/127 84/90/127 46/48/127
f 90/96/128 189/205/128 186/202/128
f 204/223/129 110/120/129 11/11/129 5/5/129
f 135/146/130 36/37/130 110/120/130 204/223/130
f 145/157/131 48/50/131 91/97/131 130/141/131
f 143/155/132 146/158/132 49/51/132 47/49/132
f 119/130/133 116/126/133 17/17/133 13/13/133
f 89/95/134 45/47/134 185/201/134
f 87/93/135 205/224/135 189/205/135
f 179/195/136 130/141/136 32/33/136 81/86/136
f 203/222/137 172/187/137 75/80/137 108/118/137
f 43/45/138 140/152/138 187/203/138
f 104/112/139 182/198/139 199/216/139
f 13/13/140 20/21/140 119/130/140
f 42/44/141 163/178/141 139/151/141
f 45/47/142 84/90/142 183/199/142
f 206/225/143 113/123/143 101/108/143 196/212/143
f 34/35/144 206/225/144 132/143/144
f 88/94/145 181/197/145 163/178/145
f 112/122/146 7/7/146 207/226/146
f 133/144/147 80/85/147 114/124/147 207/226/147
f 131/142/148 109/119/148 29/30/148 126/137/148
f 86/92/149 30/31/149 168/183/149
