# Blender 3.4.1
# www.blender.org
mtllib arena_low.mtl
o Arena_Low
v -2.000000 0.000000 2.000000
v -2.000000 0.400000 2.000000
v -2.000000 0.000000 -2.000000
v -2.000000 0.400000 -2.000000
v 2.000000 0.000000 2.000000
v 2.000000 0.400000 2.000000
v 2.000000 0.000000 -2.000000
v 2.000000 0.400000 -2.000000
v 0.000000 0.000000 -2.600000
v 0.000000 0.400000 -2.600000
v 0.000000 0.000000 2.600000
v 0.000000 0.400000 2.600000
v -2.600000 0.000000 0.000000
v -2.600000 0.400000 0.000000
v 2.600000 0.000000 0.000000
v 2.600000 0.400000 0.000000
v 0.000000 0.400000 0.000000
v 0.000000 0.000000 0.000000
v -2.000000 0.100000 2.000000
v -2.000000 0.100000 -2.000000
v 2.000000 0.100000 -2.000000
v 2.000000 0.100000 2.000000
v 0.000000 0.100000 2.600000
v 0.000000 0.100000 -2.600000
v 2.600000 0.100000 0.000000
v -2.600000 0.100000 0.000000
v -2.000000 0.300000 2.000000
v -2.000000 0.300000 -2.000000
v 2.000000 0.300000 -2.000000
v 2.000000 0.300000 2.000000
v 0.000000 0.300000 2.600000
v 0.000000 0.300000 -2.600000
v 2.600000 0.300000 0.000000
v -2.600000 0.300000 0.000000
v -1.890000 0.300000 -1.890000
v -1.890000 0.100000 -1.890000
v 1.890000 0.300000 -1.890000
v 1.890000 0.100000 -1.890000
v 1.890000 0.300000 1.890000
v 1.890000 0.100000 1.890000
v -0.000000 0.300000 2.457000
v -0.000000 0.100000 2.457000
v -0.000000 0.300000 -2.457000
v -0.000000 0.100000 -2.457000
v 2.457000 0.300000 -0.000000
v 2.457000 0.100000 -0.000000
v -2.457000 0.300000 -0.000000
v -2.457000 0.100000 -0.000000
v -1.890000 0.100000 1.890000
v -1.890000 0.300000 1.890000
vn -0.9578 -0.0000 -0.2873
vn 0.2873 -0.0000 -0.9578
vn 0.9578 -0.0000 0.2873
vn -0.2873 -0.0000 0.9578
vn -0.0000 -1.0000 -0.0000
vn -0.0000 1.0000 -0.0000
vn 0.2873 -0.0000 0.9578
vn -0.2873 -0.0000 -0.9578
vn 0.9578 -0.0000 -0.2873
vn -0.9578 -0.0000 0.2873
vt 0.748337 0.415004
vt 0.872478 0.954398
vt 0.950710 0.344789
vt 0.895389 0.643976
vt 0.415004 0.531042
vt 0.942608 0.988544
vt 0.437916 0.321877
vt 0.950710 0.321877
vt 0.872478 0.643976
vt 0.942608 0.678123
vt 0.973622 0.655211
vt 0.104582 0.437916
vt 0.841464 0.104582
vt 0.950710 0.655211
vt 0.981724 0.678123
vt 0.973622 0.011456
vt 0.321877 0.841464
vt 0.895389 0.954398
vt 0.531042 0.011456
vt 0.981724 0.988544
vt 0.950710 0.011456
vt 0.973622 0.344789
vt 0.011456 0.748337
vt 0.973622 0.321877
vt 0.437916 0.152698
vt 0.950710 0.152698
vt 0.973622 0.486031
vt 0.011456 0.579158
vt 0.841464 0.273762
vt 0.950710 0.486031
vt 0.415004 0.700222
vt 0.895389 0.785218
vt 0.579158 0.415004
vt 0.872478 0.785218
vt 0.273762 0.437916
vt 0.942608 0.819365
vt 0.700222 0.011456
vt 0.981724 0.819365
vt 0.152698 0.841464
vt 0.973622 0.152698
vt 0.213230 0.639690
vt 0.639690 0.213230
vt 0.864375 0.954398
vt 0.942608 0.344789
vt 0.841464 0.531042
vt 0.942608 0.321877
vt 0.864375 0.643976
vt 0.531042 0.437916
vt 0.973622 0.988544
vt 0.942608 0.011456
vt 0.437916 0.748337
vt 0.942608 0.655211
vt 0.973622 0.678123
vt 0.748337 0.841464
vt 0.942608 0.486031
vt 0.841464 0.700222
vt 0.942608 0.152698
vt 0.437916 0.579158
vt 0.973622 0.819365
vt 0.579158 0.841464
vt 0.864375 0.785218
vt 0.700222 0.437916
vt 0.903492 0.643976
vt 0.950710 0.988544
vt 0.321877 0.415004
vt 0.950710 0.678123
vt 0.981724 0.655211
vt 0.011456 0.321877
vt 0.981724 0.344789
vt 0.981724 0.321877
vt 0.104582 0.011456
vt 0.981724 0.011456
vt 0.903492 0.954398
vt 0.415004 0.104582
vt 0.903492 0.785218
vt 0.415004 0.273762
vt 0.981724 0.486031
vt 0.011456 0.152698
vt 0.981724 0.152698
vt 0.273762 0.011456
vt 0.950710 0.819365
vt 0.152698 0.415004
vt 0.903492 0.304804
vt 0.864375 0.011456
vt 0.022553 0.315902
vt 0.919696 0.304804
vt 0.880580 0.011456
vt 0.537018 0.449013
vt 0.110558 0.022553
vt 0.864375 0.621064
vt 0.903492 0.011456
vt 0.880580 0.621064
vt 0.919696 0.011456
vt 0.449013 0.742362
vt 0.903492 0.621064
vt 0.864375 0.327716
vt 0.403906 0.110558
vt 0.919696 0.621064
vt 0.880580 0.327716
vt 0.742362 0.830366
vt 0.903492 0.461190
vt 0.403906 0.270433
vt 0.919696 0.461190
vt 0.830366 0.696892
vt 0.903492 0.144929
vt 0.022553 0.156027
vt 0.919696 0.144929
vt 0.449013 0.582487
vt 0.864375 0.461190
vt 0.270433 0.022553
vt 0.880580 0.461190
vt 0.582487 0.830366
vt 0.156027 0.403906
vt 0.864375 0.144929
vt 0.880580 0.144929
vt 0.696892 0.449013
vt 0.880580 0.304804
vt 0.919696 0.327716
vt 0.830366 0.537018
vt 0.864375 0.304804
vt 0.903492 0.327716
vt 0.315902 0.403906
s 0
f 34/81/1 14/36/1 4/10/1 28/66/1
f 32/77/2 10/27/2 8/22/2 29/69/2
f 33/79/3 16/40/3 6/16/3 30/72/3
f 31/75/4 12/32/4 2/4/4 27/63/4
f 18/42/5 15/37/5 5/13/5 11/29/5
f 17/41/6 14/35/6 2/5/6 12/31/6
f 16/39/6 17/41/6 12/31/6 6/17/6
f 13/33/5 18/42/5 11/29/5 1/1/5
f 30/73/7 6/18/7 12/32/7 31/75/7
f 28/67/8 4/11/8 10/27/8 32/77/8
f 3/7/5 9/25/5 18/42/5 13/33/5
f 8/23/6 10/28/6 17/41/6 16/39/6
f 10/28/6 4/12/6 14/35/6 17/41/6
f 9/25/5 7/19/5 15/37/5 18/42/5
f 29/70/9 8/24/9 16/40/9 33/79/9
f 27/64/10 2/6/10 14/36/10 34/81/10
f 1/2/10 19/43/10 26/61/10 13/34/10
f 7/20/9 21/49/9 25/59/9 15/38/9
f 3/8/8 20/46/8 24/57/8 9/26/8
f 5/14/7 22/52/7 23/55/7 11/30/7
f 11/30/4 23/55/4 19/44/4 1/3/4
f 15/38/3 25/59/3 22/53/3 5/15/3
f 9/26/2 24/57/2 21/50/2 7/21/2
f 13/34/1 26/61/1 20/47/1 3/9/1
f 23/56/6 22/54/6 40/100/6 42/104/6
f 29/71/5 33/80/5 45/110/5 37/89/5
f 24/58/6 20/48/6 36/88/6 44/108/6
f 27/65/5 34/82/5 47/113/5 50/122/5
f 25/60/6 21/51/6 38/94/6 46/112/6
f 34/82/5 28/68/5 35/85/5 47/113/5
f 26/62/6 19/45/6 49/119/6 48/116/6
f 32/78/5 29/71/5 37/89/5 43/106/5
f 49/117/10 50/120/10 47/114/10 48/115/10
f 38/92/9 37/90/9 45/109/9 46/111/9
f 36/86/8 35/83/8 43/105/8 44/107/8
f 40/98/7 39/95/7 41/101/7 42/103/7
f 42/103/4 41/101/4 50/121/4 49/118/4
f 46/111/3 45/109/3 39/96/3 40/99/3
f 44/107/2 43/105/2 37/91/2 38/93/2
f 48/115/1 47/114/1 35/84/1 36/87/1
f 28/68/5 32/78/5 43/106/5 35/85/5
f 19/45/6 23/56/6 42/104/6 49/119/6
f 30/74/5 31/76/5 41/102/5 39/97/5
f 22/54/6 25/60/6 46/112/6 40/100/6
f 31/76/5 27/65/5 50/122/5 41/102/5
f 21/51/6 24/58/6 44/108/6 38/94/6
f 33/80/5 30/74/5 39/97/5 45/110/5
f 20/48/6 26/62/6 48/116/6 36/88/6
