# Blender 3.4.1
# www.blender.org
mtllib TempleWall2x4.mtl
o 2x4
v 23.000000 1.000000 0.000000
v 43.000000 1.000000 0.000000
v 23.000000 21.000000 0.000000
v 22.000000 0.000000 0.000000
v 23.000000 1.000000 -1.000000
v 43.000000 1.000000 -1.000000
v 23.000000 21.000000 -1.000000
v 43.000000 21.000000 -1.000000
v 43.000000 21.000000 0.000000
v 44.000000 22.000000 0.000000
v 44.000000 0.000000 0.000000
v 22.000000 22.000000 0.000000
v 1.000000 45.000000 0.000000
v 1.000000 65.000000 0.000000
v 21.000000 45.000000 0.000000
v 21.000000 65.000000 0.000000
v 22.000000 66.000000 0.000000
v 22.000000 44.000000 0.000000
v 0.000000 44.000000 0.000000
v 0.000000 66.000000 0.000000
v 21.000000 65.000000 -1.000000
v 21.000000 45.000000 -1.000000
v 1.000000 45.000000 -1.000000
v 1.000000 65.000000 -1.000000
v 1.000000 67.000000 0.000000
v 21.000000 67.000000 0.000000
v 1.000000 87.000000 0.000000
v 0.000000 66.000000 0.000000
v 1.000000 67.000000 -1.000000
v 21.000000 67.000000 -1.000000
v 1.000000 87.000000 -1.000000
v 21.000000 87.000000 -1.000000
v 21.000000 87.000000 0.000000
v 22.000000 88.000000 0.000000
v 22.000000 66.000000 0.000000
v 0.000000 88.000000 0.000000
v 23.000000 45.000000 0.000000
v 43.000000 45.000000 0.000000
v 23.000000 65.000000 0.000000
v 22.000000 44.000000 0.000000
v 23.000000 45.000000 -1.000000
v 43.000000 45.000000 -1.000000
v 23.000000 65.000000 -1.000000
v 43.000000 65.000000 -1.000000
v 43.000000 65.000000 0.000000
v 44.000000 66.000000 0.000000
v 44.000000 44.000000 0.000000
v 22.000000 66.000000 0.000000
v 23.000000 67.000000 0.000000
v 43.000000 67.000000 0.000000
v 23.000000 87.000000 0.000000
v 22.000000 66.000000 0.000000
v 23.000000 67.000000 -1.000000
v 43.000000 67.000000 -1.000000
v 23.000000 87.000000 -1.000000
v 43.000000 87.000000 -1.000000
v 43.000000 87.000000 0.000000
v 44.000000 88.000000 0.000000
v 44.000000 66.000000 0.000000
v 22.000000 88.000000 0.000000
v 1.000000 1.000000 0.000000
v 21.000000 1.000000 0.000000
v 1.000000 21.000000 0.000000
v 0.000000 0.000000 0.000000
v 1.000000 1.000000 -1.000000
v 21.000000 1.000000 -1.000000
v 1.000000 21.000000 -1.000000
v 21.000000 21.000000 -1.000000
v 21.000000 21.000000 0.000000
v 22.000000 22.000000 0.000000
v 22.000000 0.000000 0.000000
v 0.000000 22.000000 0.000000
v 0.999996 23.000000 0.000000
v 20.999996 23.000000 0.000000
v 0.999996 43.000000 0.000000
v -0.000004 22.000000 0.000000
v 0.999996 23.000000 -1.000000
v 20.999996 23.000000 -1.000000
v 0.999996 43.000000 -1.000000
v 20.999996 43.000000 -1.000000
v 20.999996 43.000000 0.000000
v 21.999996 44.000000 0.000000
v 21.999996 22.000000 0.000000
v -0.000004 44.000000 0.000000
v 23.000000 23.000000 0.000001
v 43.000000 23.000000 -0.000001
v 23.000000 43.000000 0.000001
v 22.000000 22.000000 0.000001
v 23.000000 23.000000 -0.999998
v 43.000000 23.000000 -1.000001
v 23.000000 43.000000 -0.999998
v 43.000000 42.999996 -1.000001
v 43.000000 42.999996 -0.000001
v 44.000000 43.999996 -0.000001
v 44.000000 22.000000 -0.000001
v 22.000000 44.000000 0.000001
vn -0.0000 1.0000 -0.0000
vn -0.0000 -0.0000 1.0000
vn 1.0000 -0.0000 -0.0000
vn -0.0000 -1.0000 -0.0000
vn -1.0000 -0.0000 -0.0000
vt 0.703053 0.468594
vt 0.617230 0.008397
vt 0.031406 0.031406
vt 0.703053 0.008397
vt 0.600436 0.008397
vt 0.491603 0.031406
vt 0.617229 0.468594
vt 0.788876 0.008397
vt 0.031406 0.491603
vt 0.008397 0.008397
vt 0.772082 0.468594
vt 0.686259 0.008397
vt 0.508397 0.531407
vt 0.772082 0.008397
vt 0.968594 0.531407
vt 0.531407 0.008397
vt 0.686259 0.468594
vt 0.508397 0.991604
vt 0.857905 0.008397
vt 0.968594 0.991604
vt 0.857905 0.468594
vt 0.531407 0.468594
vt 0.788876 0.468594
vt 0.600436 0.468594
vt 0.491603 0.491603
vt 0.514613 0.514613
vt 0.514613 0.008397
vt 0.008397 0.514613
vt 0.031406 0.031406
vt 0.617230 0.008397
vt 0.703053 0.468594
vt 0.031406 0.491603
vt 0.617229 0.468594
vt 0.788876 0.008397
vt 0.600436 0.008397
vt 0.491603 0.031406
vt 0.703053 0.008397
vt 0.600436 0.468594
vt 0.491603 0.491603
vt 0.788876 0.468594
vt 0.514613 0.514613
vt 0.514613 0.008397
vt 0.008397 0.008397
vt 0.008397 0.514613
vt 0.531407 0.468594
vt 0.968594 0.991604
vt 0.857905 0.468594
vt 0.531407 0.008397
vt 0.968594 0.531407
vt 0.772082 0.008397
vt 0.508397 0.531407
vt 0.686259 0.008397
vt 0.772082 0.468594
vt 0.508397 0.991604
vt 0.686259 0.468594
vt 0.857905 0.008397
vt 0.703053 0.468594
vt 0.617230 0.008397
vt 0.031406 0.031406
vt 0.703053 0.008397
vt 0.600436 0.008397
vt 0.491603 0.031406
vt 0.617229 0.468594
vt 0.788876 0.008397
vt 0.031406 0.491603
vt 0.008397 0.008397
vt 0.772082 0.468594
vt 0.686259 0.008397
vt 0.508397 0.531407
vt 0.772082 0.008397
vt 0.968594 0.531407
vt 0.531407 0.008397
vt 0.686259 0.468594
vt 0.508397 0.991604
vt 0.857905 0.008397
vt 0.968594 0.991604
vt 0.857905 0.468594
vt 0.531407 0.468594
vt 0.788876 0.468594
vt 0.600436 0.468594
vt 0.491603 0.491603
vt 0.514613 0.514613
vt 0.514613 0.008397
vt 0.008397 0.514613
vt 0.703053 0.468594
vt 0.617230 0.008397
vt 0.031406 0.031406
vt 0.703053 0.008397
vt 0.600436 0.008397
vt 0.491603 0.031406
vt 0.617229 0.468594
vt 0.788876 0.008397
vt 0.031406 0.491603
vt 0.008397 0.008397
vt 0.772082 0.468594
vt 0.686259 0.008397
vt 0.508397 0.531407
vt 0.772082 0.008397
vt 0.968594 0.531407
vt 0.531407 0.008397
vt 0.686259 0.468594
vt 0.508397 0.991604
vt 0.857905 0.008397
vt 0.968594 0.991604
vt 0.857905 0.468594
vt 0.531407 0.468594
vt 0.788876 0.468594
vt 0.600436 0.468594
vt 0.491603 0.491603
vt 0.514613 0.514613
vt 0.514613 0.008397
vt 0.008397 0.514613
vt 0.703053 0.468594
vt 0.617230 0.008397
vt 0.031406 0.031406
vt 0.703053 0.008397
vt 0.600436 0.008397
vt 0.491603 0.031406
vt 0.617229 0.468594
vt 0.788876 0.008397
vt 0.031406 0.491603
vt 0.008397 0.008397
vt 0.772082 0.468594
vt 0.686259 0.008397
vt 0.508397 0.531407
vt 0.772082 0.008397
vt 0.968594 0.531407
vt 0.531407 0.008397
vt 0.686259 0.468594
vt 0.508397 0.991604
vt 0.857905 0.008397
vt 0.968594 0.991604
vt 0.857905 0.468594
vt 0.531407 0.468594
vt 0.788876 0.468594
vt 0.600436 0.468594
vt 0.491603 0.491603
vt 0.514613 0.514613
vt 0.514613 0.008397
vt 0.008397 0.514613
vt 0.703053 0.468594
vt 0.617230 0.008397
vt 0.031406 0.031406
vt 0.703053 0.008397
vt 0.600436 0.008397
vt 0.491603 0.031406
vt 0.617229 0.468594
vt 0.788876 0.008397
vt 0.031406 0.491603
vt 0.008397 0.008397
vt 0.772082 0.468594
vt 0.686259 0.008397
vt 0.508397 0.531407
vt 0.772082 0.008397
vt 0.968594 0.531407
vt 0.531407 0.008397
vt 0.686259 0.468594
vt 0.508397 0.991604
vt 0.857905 0.008397
vt 0.968594 0.991604
vt 0.857905 0.468594
vt 0.531407 0.468594
vt 0.788876 0.468594
vt 0.600436 0.468594
vt 0.491603 0.491603
vt 0.514613 0.514613
vt 0.514613 0.008397
vt 0.008397 0.514613
vt 0.703053 0.468594
vt 0.617230 0.008397
vt 0.031406 0.031406
vt 0.703053 0.008397
vt 0.600436 0.008397
vt 0.491603 0.031406
vt 0.617229 0.468594
vt 0.788876 0.008397
vt 0.031406 0.491603
vt 0.008397 0.008397
vt 0.772082 0.468594
vt 0.686259 0.008397
vt 0.508397 0.531407
vt 0.772082 0.008397
vt 0.968594 0.531407
vt 0.531407 0.008397
vt 0.686259 0.468594
vt 0.508397 0.991604
vt 0.857905 0.008397
vt 0.968594 0.991604
vt 0.857905 0.468594
vt 0.531407 0.468594
vt 0.788876 0.468594
vt 0.600436 0.468594
vt 0.491603 0.491603
vt 0.514613 0.514613
vt 0.514613 0.008397
vt 0.008397 0.514613
vt 0.703053 0.468594
vt 0.617230 0.008397
vt 0.031406 0.031406
vt 0.703053 0.008397
vt 0.600436 0.008397
vt 0.491603 0.031406
vt 0.617229 0.468594
vt 0.788876 0.008397
vt 0.031406 0.491603
vt 0.008397 0.008397
vt 0.772082 0.468594
vt 0.686259 0.008397
vt 0.508397 0.531407
vt 0.772082 0.008397
vt 0.968594 0.531407
vt 0.531407 0.008397
vt 0.686259 0.468594
vt 0.508397 0.991604
vt 0.857905 0.008397
vt 0.968594 0.991604
vt 0.857905 0.468594
vt 0.531407 0.468594
vt 0.788876 0.468594
vt 0.600436 0.468594
vt 0.491603 0.491603
vt 0.514613 0.514613
vt 0.514613 0.008397
vt 0.008397 0.514613
s 0
usemtl Temple_Wall
f 1/1/1 2/4/1 6/14/1 5/11/1
f 1/3/2 4/10/2 11/27/2 2/6/2
f 3/7/3 1/2/3 5/12/3 7/17/3
f 3/9/2 12/28/2 4/10/2 1/3/2
f 6/15/2 8/20/2 7/18/2 5/13/2
f 9/23/4 3/8/4 7/19/4 8/21/4
f 2/5/5 9/24/5 8/22/5 6/16/5
f 2/6/2 11/27/2 10/26/2 9/25/2
f 9/25/2 10/26/2 12/28/2 3/9/2
f 15/35/5 16/38/5 21/45/5 22/48/5
f 15/36/2 18/42/2 17/41/2 16/39/2
f 14/32/2 20/44/2 19/43/2 13/29/2
f 13/29/2 19/43/2 18/42/2 15/36/2
f 16/39/2 17/41/2 20/44/2 14/32/2
f 22/49/2 21/46/2 24/54/2 23/51/2
f 14/33/3 13/30/3 23/52/3 24/55/3
f 13/31/1 15/37/1 22/50/1 23/53/1
f 16/40/4 14/34/4 24/56/4 21/47/4
f 25/57/1 26/60/1 30/70/1 29/67/1
f 25/59/2 28/66/2 35/83/2 26/62/2
f 27/63/3 25/58/3 29/68/3 31/73/3
f 27/65/2 36/84/2 28/66/2 25/59/2
f 30/71/2 32/76/2 31/74/2 29/69/2
f 33/79/4 27/64/4 31/75/4 32/77/4
f 26/61/5 33/80/5 32/78/5 30/72/5
f 26/62/2 35/83/2 34/82/2 33/81/2
f 33/81/2 34/82/2 36/84/2 27/65/2
f 37/85/1 38/88/1 42/98/1 41/95/1
f 37/87/2 40/94/2 47/111/2 38/90/2
f 39/91/3 37/86/3 41/96/3 43/101/3
f 39/93/2 48/112/2 40/94/2 37/87/2
f 42/99/2 44/104/2 43/102/2 41/97/2
f 45/107/4 39/92/4 43/103/4 44/105/4
f 38/89/5 45/108/5 44/106/5 42/100/5
f 38/90/2 47/111/2 46/110/2 45/109/2
f 45/109/2 46/110/2 48/112/2 39/93/2
f 49/113/1 50/116/1 54/126/1 53/123/1
f 49/115/2 52/122/2 59/139/2 50/118/2
f 51/119/3 49/114/3 53/124/3 55/129/3
f 51/121/2 60/140/2 52/122/2 49/115/2
f 54/127/2 56/132/2 55/130/2 53/125/2
f 57/135/4 51/120/4 55/131/4 56/133/4
f 50/117/5 57/136/5 56/134/5 54/128/5
f 50/118/2 59/139/2 58/138/2 57/137/2
f 57/137/2 58/138/2 60/140/2 51/121/2
f 61/141/1 62/144/1 66/154/1 65/151/1
f 61/143/2 64/150/2 71/167/2 62/146/2
f 63/147/3 61/142/3 65/152/3 67/157/3
f 63/149/2 72/168/2 64/150/2 61/143/2
f 66/155/2 68/160/2 67/158/2 65/153/2
f 69/163/4 63/148/4 67/159/4 68/161/4
f 62/145/5 69/164/5 68/162/5 66/156/5
f 62/146/2 71/167/2 70/166/2 69/165/2
f 69/165/2 70/166/2 72/168/2 63/149/2
f 73/169/1 74/172/1 78/182/1 77/179/1
f 73/171/2 76/178/2 83/195/2 74/174/2
f 75/175/3 73/170/3 77/180/3 79/185/3
f 75/177/2 84/196/2 76/178/2 73/171/2
f 78/183/2 80/188/2 79/186/2 77/181/2
f 81/191/4 75/176/4 79/187/4 80/189/4
f 74/173/5 81/192/5 80/190/5 78/184/5
f 74/174/2 83/195/2 82/194/2 81/193/2
f 81/193/2 82/194/2 84/196/2 75/177/2
f 85/197/1 86/200/1 90/210/1 89/207/1
f 85/199/2 88/206/2 95/223/2 86/202/2
f 87/203/3 85/198/3 89/208/3 91/213/3
f 87/205/2 96/224/2 88/206/2 85/199/2
f 90/211/2 92/216/2 91/214/2 89/209/2
f 93/219/4 87/204/4 91/215/4 92/217/4
f 86/201/5 93/220/5 92/218/5 90/212/5
f 86/202/2 95/223/2 94/222/2 93/221/2
f 93/221/2 94/222/2 96/224/2 87/205/2
