# Blender 3.4.1
# www.blender.org
mtllib TempleWall1x2.mtl
o 1x2
v 0.999998 23.000002 0.000000
v 20.999998 23.000002 0.000000
v 0.999997 43.000004 0.000000
v -0.000002 22.000002 0.000000
v 0.999998 23.000002 -1.000000
v 20.999998 23.000002 -1.000000
v 0.999997 43.000004 -1.000000
v 20.999998 43.000004 -1.000000
v 20.999998 43.000004 0.000000
v 21.999998 44.000004 0.000000
v 21.999998 22.000002 0.000000
v -0.000002 44.000004 0.000000
v 1.000000 1.000000 0.000000
v 0.999996 21.000000 0.000000
v 21.000000 1.000004 0.000000
v 20.999996 21.000004 0.000000
v 21.999996 22.000004 0.000000
v 22.000000 0.000004 0.000000
v 0.000000 0.000000 0.000000
v -0.000004 22.000000 0.000000
v 20.999996 21.000004 -1.000000
v 21.000000 1.000004 -1.000000
v 1.000000 1.000000 -1.000000
v 0.999996 21.000000 -1.000000
vn -0.0000 1.0000 -0.0000
vn -0.0000 -0.0000 1.0000
vn 1.0000 -0.0000 -0.0000
vn -0.0000 -1.0000 -0.0000
vn -1.0000 -0.0000 -0.0000
vt 0.703053 0.468594
vt 0.617230 0.008397
vt 0.031406 0.031406
vt 0.703053 0.008397
vt 0.600436 0.008397
vt 0.491603 0.031406
vt 0.617229 0.468594
vt 0.788876 0.008397
vt 0.031406 0.491603
vt 0.008397 0.008397
vt 0.772082 0.468594
vt 0.686259 0.008397
vt 0.508397 0.531407
vt 0.772082 0.008397
vt 0.968594 0.531407
vt 0.531407 0.008397
vt 0.686259 0.468594
vt 0.508397 0.991604
vt 0.857905 0.008397
vt 0.968594 0.991604
vt 0.857905 0.468594
vt 0.531407 0.468594
vt 0.788876 0.468594
vt 0.600436 0.468594
vt 0.491603 0.491603
vt 0.514613 0.514613
vt 0.514613 0.008397
vt 0.008397 0.514613
vt 0.031406 0.031406
vt 0.617230 0.008397
vt 0.703053 0.468594
vt 0.031406 0.491603
vt 0.617229 0.468594
vt 0.788876 0.008397
vt 0.600436 0.008397
vt 0.491603 0.031406
vt 0.703053 0.008397
vt 0.600436 0.468594
vt 0.491603 0.491603
vt 0.788876 0.468594
vt 0.514613 0.514613
vt 0.514613 0.008397
vt 0.008397 0.008397
vt 0.008397 0.514613
vt 0.531407 0.468594
vt 0.968594 0.991604
vt 0.857905 0.468594
vt 0.531407 0.008397
vt 0.968594 0.531407
vt 0.772082 0.008397
vt 0.508397 0.531407
vt 0.686259 0.008397
vt 0.772082 0.468594
vt 0.508397 0.991604
vt 0.686259 0.468594
vt 0.857905 0.008397
s 0
usemtl Temple_Wall
f 1/1/1 2/4/1 6/14/1 5/11/1
f 1/3/2 4/10/2 11/27/2 2/6/2
f 3/7/3 1/2/3 5/12/3 7/17/3
f 3/9/2 12/28/2 4/10/2 1/3/2
f 6/15/2 8/20/2 7/18/2 5/13/2
f 9/23/4 3/8/4 7/19/4 8/21/4
f 2/5/5 9/24/5 8/22/5 6/16/5
f 2/6/2 11/27/2 10/26/2 9/25/2
f 9/25/2 10/26/2 12/28/2 3/9/2
f 15/35/5 16/38/5 21/45/5 22/48/5
f 15/36/2 18/42/2 17/41/2 16/39/2
f 14/32/2 20/44/2 19/43/2 13/29/2
f 13/29/2 19/43/2 18/42/2 15/36/2
f 16/39/2 17/41/2 20/44/2 14/32/2
f 22/49/2 21/46/2 24/54/2 23/51/2
f 14/33/3 13/30/3 23/52/3 24/55/3
f 13/31/1 15/37/1 22/50/1 23/53/1
f 16/40/4 14/34/4 24/56/4 21/47/4
