# Blender 3.3.1
# www.blender.org
mtllib Pedra2Low.mtl
o rock2_Low
v -0.642063 0.151825 -0.395792
v -1.110047 0.547904 -0.553098
v -1.023447 0.036659 -0.881995
v -1.180458 0.240318 -0.297437
v -0.641041 0.229747 -0.410479
v -0.819821 0.499753 -0.433908
v -0.783975 0.493103 -0.710456
v -0.790515 0.459261 -0.804379
v -1.012540 -0.018933 -0.551459
v -1.002952 -0.007737 -0.735543
v -1.004977 0.202424 -0.210309
v -0.876664 0.419436 -0.948456
v -1.087845 0.525816 -0.716593
v -1.118655 0.459509 -0.788597
v -1.126170 0.111583 -0.385742
v -1.167490 0.118239 -0.608640
v -1.134868 0.108554 -0.717932
v -1.098543 0.176202 -0.905866
v -1.105211 0.256662 -0.899166
v -1.080569 0.298622 -0.937116
v -1.072777 0.361826 -0.939043
v -1.092378 0.446558 -0.892277
v -0.919811 0.034963 -0.943074
v -0.842498 0.018957 -0.910666
v -0.722314 0.066010 -0.983394
v -0.652247 0.073520 -0.917278
v -0.743121 0.272067 -0.307109
v -0.718292 0.384486 -0.373736
v -0.670477 0.252254 -0.929963
v -1.111485 0.519483 -0.382264
v -0.996552 0.563671 -0.350178
v -0.874064 0.529919 -0.398694
v -0.593767 0.094823 -0.468067
v -0.575671 0.041875 -0.544949
v -0.596431 0.019867 -0.702694
v -0.609013 0.044253 -0.847195
v -1.042907 0.481504 -0.895719
v -1.258814 0.244989 -0.466299
v -1.209020 0.387862 -0.412030
v -1.210890 0.203481 -0.610492
v -1.234834 0.281839 -0.596048
v -1.142205 0.428946 -0.710090
v -1.158678 0.214429 -0.796532
v -1.153797 0.311661 -0.784267
v -1.176808 0.493834 -0.448899
v -1.173683 0.407614 -0.653690
v -1.137062 0.375363 -0.840805
v -1.182425 0.361722 -0.741999
v -1.147044 0.232432 -0.857308
v -1.095574 0.101801 -0.875907
v -1.188945 0.110369 -0.483035
v -0.970958 -0.000257 -0.814897
v -0.882453 -0.047205 -0.523374
v -0.838091 -0.012330 -0.738494
v -0.713482 -0.018571 -0.612382
v -0.814319 -0.012477 -0.818574
v -1.134533 0.053275 -0.497612
v -1.062162 0.053568 -0.411009
v -1.085365 0.041380 -0.662983
v -0.729515 0.023769 -0.903275
v -0.629090 0.005536 -0.520060
v -0.844035 0.045594 -0.374935
v -0.854176 -0.022097 -0.434843
v -0.973299 0.034996 -0.414028
v -0.896866 0.224332 -0.199622
v -1.082667 0.341095 -0.230229
v -1.140138 0.391664 -0.298807
v -0.934221 0.352159 -0.202232
v -0.981179 0.407289 -0.195487
v -0.946198 0.472145 -0.226712
v -1.071493 0.151532 -0.281268
v -0.838548 0.133793 -0.292559
v -0.712280 0.179770 -0.343421
v -0.802374 0.366460 -0.255790
v -1.080597 0.483428 -0.308630
v -1.164011 0.453923 -0.377732
v -0.728079 0.453227 -0.664655
v -0.603160 0.284029 -0.743688
v -0.622079 0.319137 -0.491370
v -0.537537 0.254759 -0.642518
v -0.720832 0.367466 -0.797973
v -0.811732 0.514882 -0.531695
v -0.710236 0.404187 -0.444318
v -0.550565 0.238680 -0.539101
v -0.506899 0.170088 -0.598104
v -0.548501 0.069061 -0.720349
v -0.541486 0.174704 -0.797011
v -0.584553 0.151064 -0.877660
v -0.792468 0.431630 -0.883693
v -1.008470 0.595649 -0.651728
v -1.089593 0.569607 -0.660266
v -0.898912 0.534034 -0.783330
v -1.000584 0.546054 -0.834835
v -1.079513 0.487577 -0.845118
v -1.039940 0.592427 -0.488721
v -0.873104 0.553325 -0.475539
v -0.918884 0.585531 -0.555144
v -0.887661 0.571066 -0.675566
v -0.709620 0.209071 -1.009633
v -0.762445 0.158539 -1.052639
v -0.874965 0.299583 -1.031201
v -0.922202 0.364423 -0.981547
v -0.794680 0.369984 -0.947730
v -0.768295 0.323243 -0.956291
v -0.628710 0.175878 -0.956159
v -0.796537 0.068933 -1.004408
v -0.886778 0.103719 -1.060699
v -0.977506 0.075263 -0.974378
v -0.952901 0.136775 -1.038588
v -1.038102 0.225665 -0.989855
v -1.042356 0.402651 -0.944453
v -0.969500 0.425552 -0.939192
v -0.863950 0.460065 -0.913406
v -1.209080 0.382152 -0.530438
v -1.187481 0.230737 -0.715702
v -1.223135 0.265625 -0.384649
v -1.180764 0.161554 -0.346168
v -1.180094 0.440363 -0.567711
v -1.143674 0.505087 -0.586985
v -0.684666 0.012873 -0.781636
v -1.044132 0.073378 -0.928886
v -0.770492 -0.030048 -0.484171
v -1.053122 0.255747 -0.195944
v -0.848763 0.280800 -0.210365
v -1.030788 0.436451 -0.240434
v -0.864779 0.440798 -0.252599
v -1.131581 0.151699 -0.295329
v -0.960401 0.113138 -0.258522
v -0.706284 0.101053 -0.377786
v -0.787488 0.208837 -0.274450
v -0.800167 0.428930 -0.304127
v -0.848663 0.478084 -0.360505
v -0.932470 0.513725 -0.288732
v -0.638802 0.369086 -0.696516
v -0.650586 0.377715 -0.629218
v -0.779399 0.474936 -0.572567
v -0.936092 0.565131 -0.745230
v -1.048210 0.553909 -0.725023
v -0.949623 0.600686 -0.624076
v -0.845540 0.497580 -0.828551
v -0.908139 0.505207 -0.874405
v -0.955651 0.518072 -0.846278
v -1.127245 0.544683 -0.452308
v -0.999242 0.600869 -0.521430
v -0.956794 0.587816 -0.461916
v -0.841536 0.208803 -1.080126
v -0.967677 0.332869 -1.014236
v -0.926944 0.222215 -1.059466
vn -0.9912 -0.0997 0.0871
vn -0.9372 0.3341 -0.1005
vn -0.9742 0.0599 -0.2175
vn -0.9227 0.2303 -0.3091
vn -0.9297 -0.1992 -0.3097
vn -0.8997 0.3954 -0.1849
vn -0.9358 0.0104 -0.3522
vn -0.8858 -0.0591 -0.4604
vn -0.9091 -0.3327 -0.2508
vn -0.8756 0.4341 -0.2120
vn -0.8418 0.5094 -0.1786
vn -0.4344 -0.7947 0.4239
vn -0.7365 -0.5387 0.4091
vn -0.7852 -0.6132 0.0859
vn -0.6053 -0.7851 0.1311
vn -0.7909 -0.0079 0.6119
vn -0.8916 0.0372 0.4513
vn -0.5843 0.2290 0.7786
vn -0.9170 0.2916 0.2721
vn -0.8318 0.5260 -0.1776
vn -0.8336 0.5365 0.1313
vn -0.6583 0.7520 -0.0332
vn -0.7449 0.5901 -0.3114
vn -0.8366 0.4959 -0.2328
vn -0.8888 0.1950 -0.4148
vn -0.7186 0.4484 -0.5315
vn -0.6747 0.1563 -0.7214
vn -0.7529 0.0550 -0.6558
vn -0.7929 -0.4888 -0.3638
vn -0.8159 -0.5431 -0.1984
vn -0.8085 -0.5522 -0.2036
vn -0.4630 -0.8325 -0.3042
vn -0.9006 -0.3587 -0.2454
vn -0.6428 -0.7478 -0.1659
vn -0.3667 -0.9187 -0.1470
vn -0.0756 -0.9911 0.1099
vn -0.3563 -0.9277 0.1116
vn 0.0177 -0.8583 0.5128
vn -0.2799 -0.8485 0.4490
vn -0.1643 -0.9623 -0.2167
vn 0.0299 -0.9927 -0.1169
vn 0.1674 -0.9836 -0.0665
vn 0.2378 -0.9143 0.3278
vn 0.4613 -0.8212 0.3359
vn 0.2074 -0.9667 -0.1497
vn -0.2546 -0.7265 0.6382
vn -0.1475 -0.8725 -0.4657
vn -0.0066 -0.9323 -0.3617
vn -0.1096 -0.9842 -0.1393
vn 0.2286 -0.9051 -0.3584
vn 0.5977 -0.5599 -0.5738
vn 0.6122 -0.6890 -0.3879
vn 0.3858 -0.6613 -0.6433
vn 0.4920 -0.8654 -0.0952
vn 0.7615 -0.5932 0.2611
vn 0.7342 -0.3214 0.5981
vn 0.4203 -0.5210 0.7429
vn 0.6747 -0.1352 0.7256
vn 0.3018 -0.6637 0.6844
vn 0.3659 -0.5689 0.7365
vn -0.0661 -0.7036 0.7075
vn -0.1578 -0.4609 0.8733
vn 0.2272 -0.2826 0.9320
vn -0.3371 -0.1374 0.9314
vn 0.2090 0.1201 0.9705
vn -0.0776 0.2921 0.9532
vn 0.4539 0.0048 0.8910
vn 0.6570 0.2617 0.7070
vn 0.4727 0.5065 0.7211
vn -0.7143 0.2837 0.6398
vn -0.4532 0.5069 0.7333
vn -0.4933 0.5954 0.6342
vn 0.0934 0.5959 0.7976
vn 0.6483 0.5927 0.4779
vn 0.3440 0.8064 0.4811
vn -0.2537 -0.7613 0.5967
vn -0.4283 -0.6754 0.6004
vn 0.5703 -0.2853 0.7703
vn 0.5846 -0.1895 0.7889
vn 0.7021 0.0695 0.7087
vn 0.7630 0.1703 0.6235
vn 0.7371 0.4814 0.4743
vn 0.6170 0.7410 0.2649
vn 0.5333 0.7600 0.3714
vn 0.5275 0.7747 0.3486
vn -0.0703 0.8908 0.4488
vn -0.5390 0.7104 0.4525
vn -0.7538 0.4495 0.4793
vn 0.6936 0.6716 -0.2607
vn 0.7207 0.5806 -0.3788
vn 0.6919 0.6202 -0.3695
vn 0.6413 0.7644 -0.0667
vn 0.7050 0.7031 0.0928
vn 0.8593 0.5090 -0.0492
vn 0.6725 0.7396 0.0261
vn 0.6934 0.6944 0.1924
vn 0.7912 0.5207 0.3209
vn 0.8495 0.3543 0.3910
vn 0.9217 0.1496 -0.3579
vn 0.6821 0.6873 -0.2499
vn 0.6539 0.6152 -0.4404
vn 0.6236 0.7615 -0.1767
vn 0.6631 0.7481 0.0269
vn 0.9850 -0.0130 0.1719
vn 0.8616 -0.4850 -0.1499
vn 0.8543 -0.1843 -0.4860
vn 0.7659 0.1001 -0.6351
vn 0.6560 0.5990 -0.4592
vn 0.5746 0.5463 -0.6094
vn -0.1384 0.9769 -0.1629
vn 0.0826 0.9959 0.0363
vn 0.2293 0.9173 -0.3256
vn 0.4597 0.8747 -0.1537
vn 0.3626 0.8681 -0.3391
vn 0.3620 0.9308 0.0501
vn -0.6104 0.7510 -0.2520
vn -0.2923 0.9462 0.1385
vn 0.3031 0.6746 -0.6731
vn 0.5086 0.8284 -0.2349
vn -0.0795 0.8564 -0.5101
vn 0.1339 0.8078 -0.5740
vn 0.1044 0.8293 -0.5490
vn -0.2535 0.6784 -0.6896
vn -0.6744 0.6543 -0.3421
vn -0.4811 0.8120 -0.3305
vn -0.5663 0.8051 0.1763
vn 0.2270 0.9516 0.2071
vn -0.0026 0.9989 0.0468
vn 0.5115 0.8432 0.1655
vn 0.1660 0.5973 -0.7846
vn 0.1545 0.5088 -0.8469
vn 0.0171 0.5990 -0.8005
vn 0.5438 0.3695 -0.7535
vn 0.4164 -0.1566 -0.8956
vn 0.1266 0.1938 -0.9728
vn -0.3270 0.1356 -0.9352
vn -0.2438 0.4239 -0.8723
vn -0.1563 -0.5377 -0.8285
vn 0.5292 0.5291 -0.6633
vn -0.4982 -0.3342 -0.8001
vn 0.1286 -0.7588 -0.6385
vn -0.6072 -0.5758 -0.5475
vn -0.3040 -0.6947 -0.6519
vn -0.6672 -0.0205 -0.7446
vn -0.7610 -0.1908 -0.6201
vn -0.7848 0.0244 -0.6192
vn -0.3632 0.4331 -0.8249
vn -0.0461 0.6213 -0.7822
s 1
f 38//1 114//2 41//3
f 41//3 48//4 115//5
f 114//2 118//6 41//3
f 115//5 44//7 49//8
f 115//5 49//8 43//9
f 41//3 46//10 48//4
f 46//10 42//11 48//4
f 15//12 117//13 51//14
f 117//13 38//1 51//14
f 15//12 51//14 57//15
f 4//16 116//17 117//13
f 66//18 116//17 4//16
f 116//17 39//19 38//1
f 118//6 119//20 46//10
f 45//21 118//6 114//2
f 2//22 119//20 45//21
f 46//10 13//23 42//11
f 42//11 14//24 48//4
f 47//25 22//26 21//27
f 47//25 21//27 20//28
f 43//9 49//8 50//29
f 16//30 115//5 17//31
f 17//31 50//29 3//32
f 51//14 40//33 16//30
f 16//30 17//31 59//34
f 10//35 53//36 9//37
f 53//36 63//38 64//39
f 52//40 54//41 10//35
f 54//41 55//42 122//43
f 55//42 61//44 122//43
f 54//41 120//45 55//42
f 57//15 58//46 15//12
f 59//34 9//37 57//15
f 57//15 9//37 58//46
f 17//31 10//35 59//34
f 3//32 10//35 17//31
f 3//32 52//40 10//35
f 23//47 24//48 52//40
f 54//41 24//48 56//49
f 24//48 54//41 52//40
f 56//49 60//50 120//45
f 60//50 26//51 36//52
f 60//50 25//53 26//51
f 120//45 36//52 35//54
f 55//42 120//45 35//54
f 55//42 35//54 61//44
f 61//44 34//55 33//56
f 61//44 33//56 129//57
f 33//56 1//58 129//57
f 62//59 129//57 72//60
f 64//39 128//61 15//12
f 63//38 62//59 128//61
f 11//62 65//63 123//64
f 65//63 68//65 123//64
f 123//64 68//65 69//66
f 123//64 69//66 66//18
f 124//67 74//68 126//69
f 67//70 125//71 75//72
f 66//18 125//71 67//70
f 68//65 126//69 70//73
f 126//69 131//74 133//75
f 71//76 11//62 127//77
f 117//13 127//77 4//16
f 128//61 65//63 11//62
f 15//12 128//61 71//76
f 72//60 130//78 65//63
f 72//60 129//57 73//79
f 72//60 73//79 130//78
f 130//78 27//80 74//68
f 73//79 5//81 27//80
f 27//80 28//82 131//74
f 131//74 6//83 132//84
f 132//84 6//83 32//85
f 133//75 32//85 31//86
f 70//73 133//75 31//86
f 75//72 31//86 30//87
f 76//88 75//72 30//87
f 76//88 30//87 45//21
f 67//70 75//72 76//88
f 116//17 67//70 39//19
f 127//77 123//64 4//16
f 134//89 78//90 81//91
f 77//92 135//93 134//89
f 134//89 135//93 80//94
f 136//95 83//96 135//93
f 135//93 83//96 79//97
f 135//93 79//97 84//98
f 80//94 87//99 78//90
f 135//93 84//98 80//94
f 8//100 81//91 89//101
f 7//102 77//92 81//91
f 7//102 136//95 77//92
f 6//83 83//96 82//103
f 83//96 28//82 79//97
f 28//82 27//80 5//81
f 79//97 5//81 84//98
f 85//104 33//56 34//55
f 84//98 1//58 33//56
f 85//104 34//55 86//105
f 86//105 34//55 35//54
f 86//105 35//54 36//52
f 87//99 86//105 88//106
f 88//106 26//51 105//107
f 78//90 105//107 29//108
f 104//109 81//91 29//108
f 89//101 81//91 104//109
f 90//110 139//111 137//112
f 137//112 98//113 92//114
f 90//110 97//115 139//111
f 139//111 97//115 98//113
f 91//116 95//117 90//110
f 113//118 140//119 89//101
f 140//119 92//114 8//100
f 140//119 8//100 89//101
f 93//120 137//112 142//121
f 141//122 92//114 140//119
f 37//123 93//120 142//121
f 94//124 138//125 93//120
f 13//23 91//116 138//125
f 94//124 14//24 13//23
f 91//116 119//20 2//22
f 2//22 95//117 91//116
f 2//22 143//126 95//117
f 95//117 30//87 31//86
f 145//127 144//128 31//86
f 144//128 145//127 97//115
f 145//127 32//85 96//129
f 96//129 32//85 6//83
f 82//103 96//129 6//83
f 98//113 82//103 136//95
f 12//130 101//131 102//132
f 99//133 100//134 146//135
f 104//109 146//135 101//131
f 101//131 148//136 147//137
f 146//135 107//138 148//136
f 89//101 12//130 113//118
f 104//109 103//139 89//101
f 29//108 99//133 104//109
f 29//108 105//107 99//133
f 105//107 25//53 100//134
f 107//138 23//47 109//140
f 106//141 24//48 107//138
f 23//47 3//32 121//142 108//143
f 121//142 50//29 110//144
f 109//140 121//142 110//144
f 110//144 18//145 19//146
f 147//137 110//144 20//28
f 37//123 111//147 22//26
f 37//123 22//26 94//124
f 102//132 147//137 112//148
f 40//33 38//1 41//3
f 38//1 39//19 114//2
f 41//3 118//6 46//10
f 16//30 40//33 115//5
f 40//33 41//3 115//5
f 17//31 115//5 43//9
f 115//5 48//4 44//7
f 117//13 116//17 38//1
f 76//88 45//21 39//19
f 45//21 114//2 39//19
f 30//87 143//126 45//21
f 143//126 2//22 45//21
f 45//21 119//20 118//6
f 42//11 13//23 14//24
f 46//10 119//20 13//23
f 47//25 14//24 94//124
f 47//25 94//124 22//26
f 48//4 14//24 47//25
f 49//8 44//7 47//25
f 44//7 48//4 47//25
f 19//146 47//25 20//28
f 49//8 47//25 19//146
f 18//145 49//8 19//146
f 50//29 49//8 18//145
f 17//31 43//9 50//29
f 50//29 18//145 110//144
f 51//14 38//1 40//33
f 57//15 51//14 16//30
f 10//35 54//41 53//36
f 53//36 122//43 63//38
f 9//37 53//36 64//39
f 53//36 54//41 122//43
f 122//43 61//44 129//57
f 54//41 56//49 120//45
f 15//12 58//46 64//39
f 16//30 59//34 57//15
f 59//34 10//35 9//37
f 50//29 121//142 3//32
f 7//102 8//100 92//114 98//113
f 3//32 23//47 52//40
f 24//48 25//53 60//50
f 24//48 106//141 25//53
f 56//49 24//48 60//50
f 120//45 60//50 36//52
f 61//44 35//54 34//55
f 62//59 122//43 129//57
f 63//38 122//43 62//59
f 64//39 63//38 128//61
f 58//46 9//37 64//39
f 128//61 62//59 72//60
f 4//16 123//64 66//18
f 65//63 130//78 124//67
f 124//67 130//78 74//68
f 68//65 124//67 126//69
f 65//63 124//67 68//65
f 66//18 69//66 125//71
f 125//71 69//66 70//73
f 126//69 74//68 131//74
f 70//73 126//69 133//75
f 69//66 68//65 70//73
f 15//12 71//76 127//77
f 15//12 127//77 117//13
f 71//76 128//61 11//62
f 128//61 72//60 65//63
f 129//57 1//58 73//79
f 130//78 73//79 27//80
f 74//68 27//80 131//74
f 131//74 28//82 6//83
f 133//75 131//74 132//84
f 133//75 132//84 32//85
f 75//72 125//71 31//86
f 125//71 70//73 31//86
f 116//17 66//18 67//70
f 39//19 67//70 76//88
f 127//77 11//62 123//64
f 81//91 77//92 134//89
f 78//90 134//89 80//94
f 77//92 136//95 135//93
f 87//99 80//94 85//104
f 80//94 84//98 85//104
f 8//100 7//102 81//91
f 82//103 83//96 136//95
f 83//96 6//83 28//82
f 79//97 28//82 5//81
f 5//81 73//79 1//58
f 84//98 5//81 1//58
f 85//104 84//98 33//56
f 87//99 85//104 86//105
f 88//106 36//52 26//51
f 88//106 86//105 36//52
f 81//91 78//90 29//108
f 78//90 87//99 105//107
f 105//107 87//99 88//106
f 93//120 90//110 137//112
f 137//112 139//111 98//113
f 93//120 138//125 90//110
f 138//125 91//116 90//110
f 90//110 144//128 97//115
f 90//110 95//117 144//128
f 141//122 142//121 92//114
f 113//118 141//122 140//119
f 142//121 137//112 92//114
f 37//123 94//124 93//120
f 138//125 94//124 13//23
f 91//116 13//23 119//20
f 95//117 143//126 30//87
f 144//128 95//117 31//86
f 145//127 31//86 32//85
f 97//115 145//127 96//129
f 98//113 97//115 82//103
f 97//115 96//129 82//103
f 112//148 141//122 113//118 12//130
f 98//113 136//95 7//102
f 12//130 103//139 101//131
f 103//139 104//109 101//131
f 102//132 101//131 147//137
f 104//109 99//133 146//135
f 100//134 25//53 106//141
f 100//134 106//141 107//138
f 146//135 100//134 107//138
f 101//131 146//135 148//136
f 147//137 148//136 110//144
f 148//136 107//138 109//140
f 89//101 103//139 12//130
f 99//133 105//107 100//134
f 105//107 26//51 25//53
f 107//138 24//48 23//47
f 109//140 23//47 108//143
f 109//140 108//143 121//142
f 148//136 109//140 110//144
f 20//28 110//144 19//146
f 21//27 147//137 20//28
f 111//147 147//137 21//27
f 111//147 21//27 22//26
f 142//121 141//122 112//148
f 112//148 147//137 111//147
f 37//123 112//148 111//147
f 142//121 112//148 37//123
f 112//148 12//130 102//132
