# Blender 3.3.1
# www.blender.org
mtllib Pedra2Export.mtl
o Pedra2Export
v -0.336812 0.146868 0.168260
v -0.287078 0.284031 0.104121
v -0.312832 0.183718 0.038511
v -0.260423 0.263601 -0.107440
v -0.265479 0.132616 -0.081143
v -0.258092 0.342242 0.066848
v -0.231795 0.213540 -0.149708
v -0.225042 0.134311 -0.222749
v -0.236676 0.116308 -0.161973
v -0.251681 0.309493 -0.019131
v -0.220203 0.330825 -0.075531
v -0.204168 0.013462 0.248817
v -0.258762 0.063433 0.288391
v -0.266943 0.012248 0.151524
v -0.212531 -0.044846 0.136947
v -0.258456 0.142197 0.337122
v -0.301133 0.167504 0.249910
v -0.160665 0.242974 0.404330
v -0.287018 0.289741 0.222529
v -0.221672 0.406966 0.047574
v -0.254806 0.395713 0.185660
v -0.188045 0.449783 0.081461
v -0.165843 0.427695 -0.082034
v -0.196653 0.361388 -0.154038
v -0.215060 0.277242 -0.206246
v -0.170376 0.348437 -0.257718
v -0.150775 0.263705 -0.304484
v -0.158567 0.200501 -0.302557
v -0.173572 0.003680 -0.241348
v -0.245488 0.020118 0.025919
v -0.212866 0.010433 -0.083373
v -0.101445 -0.061462 -0.247436
v -0.288888 0.105360 0.024067
v -0.163363 -0.056741 -0.028424
v -0.080950 -0.105858 -0.100984
v 0.039549 -0.145326 0.111185
v -0.090538 -0.117054 0.083100
v 0.067826 -0.120218 0.199716
v -0.051297 -0.063125 0.220531
v -0.048956 -0.098378 -0.180338
v 0.083911 -0.110451 -0.103935
v 0.208520 -0.116692 0.022177
v 0.151510 -0.128169 0.150388
v 0.292912 -0.092585 0.114499
v 0.237336 -0.085248 -0.147077
v -0.140160 -0.044553 0.223550
v 0.002191 -0.063158 -0.308515
v 0.079504 -0.079164 -0.276107
v 0.107683 -0.110598 -0.184015
v 0.192487 -0.074352 -0.268716
v 0.269755 -0.024601 -0.282719
v 0.312989 -0.053868 -0.212636
v 0.199688 -0.032111 -0.348835
v 0.325571 -0.078254 -0.068135
v 0.346331 -0.056246 0.089610
v 0.328235 -0.003298 0.166492
v 0.215718 0.002932 0.256773
v 0.279939 0.053704 0.238767
v 0.077967 -0.052527 0.259624
v 0.083454 0.035672 0.342000
v -0.038399 0.015017 0.376037
v -0.082975 0.104303 0.424250
v 0.025136 0.126211 0.434937
v -0.131120 0.157626 0.438615
v -0.012219 0.254038 0.432327
v -0.059177 0.309168 0.439072
v 0.073239 0.182679 0.424194
v 0.119628 0.268339 0.378769
v 0.057223 0.342677 0.381960
v -0.218136 0.293543 0.335752
v -0.108786 0.338330 0.394125
v -0.158595 0.385307 0.325929
v -0.024196 0.374024 0.407847
v 0.121835 0.330809 0.330432
v -0.010468 0.415604 0.345827
v -0.149491 0.053411 0.353291
v -0.209579 0.053578 0.339230
v 0.134514 0.110716 0.360109
v 0.209722 0.081649 0.291138
v 0.178881 0.173946 0.327450
v 0.280961 0.131626 0.224080
v 0.203710 0.286365 0.260823
v 0.102181 0.401632 0.200651
v 0.073339 0.379963 0.274054
v 0.047938 0.431798 0.235865
v -0.074550 0.465550 0.284381
v -0.189483 0.421362 0.252295
v -0.242009 0.355802 0.256827
v 0.283200 0.270965 -0.061957
v 0.318842 0.185908 -0.109129
v 0.201170 0.269345 -0.163414
v 0.193923 0.355106 -0.030096
v 0.271416 0.279594 0.005341
v 0.384465 0.156638 -0.007959
v 0.142603 0.376815 0.061992
v 0.211766 0.306066 0.190241
v 0.299923 0.221016 0.143189
v 0.371437 0.140559 0.095458
v 0.380516 0.076583 -0.162452
v 0.131487 0.361140 -0.169820
v 0.129534 0.333509 -0.249134
v 0.138027 0.394982 -0.075897
v 0.110270 0.416761 0.102864
v 0.415103 0.071967 0.036455
v 0.373501 -0.029060 -0.085790
v 0.337449 0.052943 -0.243101
v 0.293292 0.077757 -0.321600
v 0.251525 0.154133 -0.295404
v 0.153707 0.225122 -0.321732
v -0.086468 0.497528 -0.017169
v -0.027621 0.502565 0.010483
v -0.014090 0.467010 -0.110671
v 0.034341 0.472945 -0.041007
v 0.023090 0.435913 -0.148771
v 0.003118 0.487410 0.079415
v -0.167591 0.471486 -0.025707
v -0.117938 0.494306 0.145838
v 0.058052 0.361944 -0.278847
v 0.076462 0.399459 -0.193992
v -0.078582 0.447933 -0.200276
v -0.033649 0.419951 -0.211719
v 0.013863 0.407086 -0.239846
v -0.120905 0.383383 -0.261160
v -0.157511 0.389456 -0.210559
v -0.126208 0.455788 -0.090464
v -0.205243 0.446562 0.182251
v -0.034792 0.489695 0.172643
v -0.077240 0.502748 0.113129
v 0.048898 0.455204 0.159020
v 0.045338 0.321315 -0.313897
v 0.047037 0.201462 -0.396642
v -0.000200 0.266302 -0.346988
v 0.212382 0.110950 -0.375074
v 0.159557 0.060418 -0.418080
v 0.080466 0.110682 -0.445567
v -0.004942 0.124094 -0.424907
v -0.045675 0.234748 -0.379677
v 0.035224 0.005598 -0.426140
v 0.127322 0.271863 -0.313171
v -0.030899 0.038654 -0.404029
v 0.125465 -0.029188 -0.369849
v -0.122130 -0.024743 -0.294327
v -0.055504 -0.022858 -0.339819
v -0.116100 0.127544 -0.355296
v -0.176541 0.078081 -0.271307
v -0.183209 0.158541 -0.264607
v -0.120354 0.304530 -0.309894
v -0.047498 0.327431 -0.304633
vn -0.9912 -0.0997 0.0871
vn -0.9372 0.3341 -0.1005
vn -0.9742 0.0599 -0.2175
vn -0.9227 0.2303 -0.3091
vn -0.9297 -0.1992 -0.3097
vn -0.8997 0.3954 -0.1849
vn -0.9359 0.0104 -0.3522
vn -0.8858 -0.0591 -0.4604
vn -0.8857 -0.0591 -0.4604
vn -0.9091 -0.3327 -0.2508
vn -0.8756 0.4341 -0.2120
vn -0.8418 0.5094 -0.1786
vn -0.4344 -0.7947 0.4239
vn -0.7365 -0.5387 0.4091
vn -0.7852 -0.6132 0.0859
vn -0.6053 -0.7851 0.1311
vn -0.7909 -0.0079 0.6119
vn -0.8916 0.0372 0.4513
vn -0.5843 0.2290 0.7786
vn -0.9170 0.2916 0.2721
vn -0.8318 0.5260 -0.1776
vn -0.8336 0.5365 0.1313
vn -0.6583 0.7520 -0.0332
vn -0.8317 0.5260 -0.1776
vn -0.7449 0.5901 -0.3114
vn -0.8366 0.4959 -0.2328
vn -0.8888 0.1950 -0.4148
vn -0.7186 0.4484 -0.5315
vn -0.6747 0.1563 -0.7214
vn -0.7529 0.0550 -0.6558
vn -0.7929 -0.4888 -0.3638
vn -0.8159 -0.5431 -0.1984
vn -0.8085 -0.5522 -0.2036
vn -0.4630 -0.8325 -0.3042
vn -0.9006 -0.3587 -0.2454
vn -0.6428 -0.7478 -0.1659
vn -0.3667 -0.9187 -0.1470
vn -0.0756 -0.9911 0.1099
vn -0.3563 -0.9277 0.1116
vn 0.0177 -0.8583 0.5128
vn -0.2799 -0.8485 0.4490
vn -0.1643 -0.9623 -0.2167
vn 0.0299 -0.9927 -0.1169
vn 0.1674 -0.9836 -0.0665
vn 0.2378 -0.9143 0.3278
vn 0.4613 -0.8212 0.3359
vn 0.2074 -0.9667 -0.1497
vn -0.2546 -0.7265 0.6382
vn -0.1475 -0.8725 -0.4657
vn -0.0066 -0.9323 -0.3617
vn -0.1096 -0.9842 -0.1393
vn 0.2286 -0.9051 -0.3584
vn 0.5977 -0.5599 -0.5738
vn 0.6122 -0.6890 -0.3879
vn 0.3858 -0.6613 -0.6433
vn 0.4920 -0.8654 -0.0952
vn 0.7615 -0.5932 0.2611
vn 0.7342 -0.3214 0.5981
vn 0.4203 -0.5210 0.7429
vn 0.6747 -0.1352 0.7256
vn 0.3018 -0.6637 0.6844
vn 0.3659 -0.5689 0.7365
vn -0.0661 -0.7036 0.7075
vn -0.1578 -0.4609 0.8733
vn 0.2272 -0.2826 0.9320
vn -0.3371 -0.1374 0.9314
vn 0.2090 0.1201 0.9705
vn -0.0776 0.2921 0.9532
vn 0.4539 0.0048 0.8910
vn 0.6570 0.2617 0.7070
vn 0.4727 0.5065 0.7211
vn -0.7143 0.2837 0.6398
vn -0.4532 0.5069 0.7333
vn -0.4933 0.5954 0.6342
vn 0.0934 0.5959 0.7976
vn 0.6483 0.5927 0.4779
vn 0.3440 0.8064 0.4811
vn -0.2537 -0.7613 0.5967
vn -0.4283 -0.6754 0.6004
vn 0.2272 -0.2826 0.9319
vn 0.5703 -0.2853 0.7703
vn 0.5846 -0.1895 0.7889
vn 0.7021 0.0695 0.7087
vn 0.7630 0.1703 0.6235
vn 0.7371 0.4814 0.4743
vn 0.6170 0.7410 0.2649
vn 0.5333 0.7600 0.3714
vn 0.5275 0.7747 0.3486
vn -0.0703 0.8908 0.4488
vn -0.0703 0.8909 0.4488
vn -0.5390 0.7104 0.4525
vn -0.7538 0.4495 0.4793
vn 0.6936 0.6716 -0.2607
vn 0.7207 0.5806 -0.3788
vn 0.6919 0.6202 -0.3695
vn 0.6413 0.7644 -0.0667
vn 0.7050 0.7031 0.0928
vn 0.8593 0.5090 -0.0492
vn 0.6725 0.7396 0.0261
vn 0.6934 0.6944 0.1924
vn 0.7911 0.5207 0.3209
vn 0.7912 0.5207 0.3209
vn 0.8495 0.3543 0.3910
vn 0.8594 0.5090 -0.0492
vn 0.9217 0.1496 -0.3579
vn 0.6821 0.6873 -0.2499
vn 0.6539 0.6152 -0.4404
vn 0.6236 0.7615 -0.1767
vn 0.6631 0.7481 0.0269
vn 0.9850 -0.0130 0.1719
vn 0.8616 -0.4850 -0.1499
vn 0.8543 -0.1843 -0.4860
vn 0.7659 0.1001 -0.6351
vn 0.6560 0.5990 -0.4592
vn 0.5746 0.5463 -0.6094
vn -0.1384 0.9769 -0.1629
vn 0.0826 0.9959 0.0363
vn 0.2293 0.9173 -0.3256
vn 0.4597 0.8747 -0.1537
vn 0.3626 0.8681 -0.3391
vn 0.3620 0.9308 0.0501
vn -0.6104 0.7510 -0.2520
vn -0.2923 0.9462 0.1385
vn 0.3031 0.6746 -0.6731
vn 0.5086 0.8284 -0.2349
vn -0.0795 0.8564 -0.5101
vn 0.1339 0.8078 -0.5740
vn 0.1044 0.8293 -0.5490
vn -0.2535 0.6784 -0.6896
vn -0.6744 0.6543 -0.3421
vn -0.4811 0.8120 -0.3305
vn -0.5663 0.8051 0.1763
vn 0.2270 0.9516 0.2071
vn -0.0026 0.9989 0.0468
vn 0.5115 0.8432 0.1655
vn 0.1660 0.5973 -0.7846
vn 0.1545 0.5088 -0.8469
vn 0.0171 0.5990 -0.8005
vn 0.5438 0.3695 -0.7535
vn 0.4164 -0.1566 -0.8956
vn 0.1266 0.1938 -0.9728
vn -0.3270 0.1356 -0.9353
vn -0.2438 0.4239 -0.8723
vn -0.1563 -0.5377 -0.8285
vn -0.3270 0.1356 -0.9352
vn 0.5292 0.5291 -0.6633
vn -0.4982 -0.3342 -0.8001
vn 0.1286 -0.7588 -0.6385
vn -0.3040 -0.6947 -0.6519
vn -0.6072 -0.5758 -0.5475
vn -0.6672 -0.0205 -0.7446
vn -0.7610 -0.1908 -0.6201
vn -0.7848 0.0244 -0.6192
vn -0.3632 0.4331 -0.8249
vn -0.0461 0.6213 -0.7822
vn -0.2799 -0.8486 0.4490
vn -0.1475 -0.8726 -0.4657
vt 0.684130 0.496676
vt 0.577907 0.495321
vt 0.588472 0.442098
vt 0.467315 0.401252
vt 0.532302 0.370966
vt 0.527223 0.492790
vt 0.459124 0.365550
vt 0.453306 0.310585
vt 0.492261 0.329375
vt 0.492341 0.449660
vt 0.444844 0.436032
vt 0.765036 0.417865
vt 0.819190 0.612973
vt 0.772387 0.467988
vt 0.696617 0.411115
vt 0.700060 0.366650
vt 0.761482 0.623057
vt 0.718674 0.563187
vt 0.692553 0.667400
vt 0.633384 0.551763
vt 0.482988 0.502207
vt 0.560932 0.549636
vt 0.474803 0.528250
vt 0.387089 0.465964
vt 0.384874 0.414537
vt 0.400819 0.364460
vt 0.334931 0.367508
vt 0.346034 0.310953
vt 0.375202 0.289465
vt 0.483658 0.248853
vt 0.623845 0.364378
vt 0.566465 0.314030
vt 0.499295 0.201993
vt 0.602179 0.406272
vt 0.615251 0.292978
vt 0.591297 0.225169
vt 0.740383 0.219155
vt 0.696512 0.278957
vt 0.658561 0.976901
vt 0.799399 0.231748
vt 0.785544 0.314580
vt 0.548374 0.189810
vt 0.616116 0.142374
vt 0.716835 0.108713
vt 0.785333 0.168712
vt 0.593843 0.999998
vt 0.481793 0.998156
vt 0.788879 0.080343
vt 0.615788 0.055558
vt 0.761563 0.361202
vt 0.148783 0.400211
vt 0.470484 0.135064
vt 0.506198 0.104686
vt 0.171371 0.356869
vt 0.571361 0.111898
vt 0.171448 0.262028
vt 0.174230 0.290127
vt 0.532093 0.050776
vt 0.131551 0.222558
vt 0.587708 0.003523
vt 0.164078 0.179802
vt 0.118566 0.280265
vt 0.217560 0.104902
vt 0.680551 0.027078
vt 0.428594 0.986083
vt 0.242371 0.010322
vt 0.784352 0.040945
vt 0.458493 0.939453
vt 0.554660 0.909388
vt 0.499478 0.894276
vt 0.656313 0.923931
vt 0.654564 0.858187
vt 0.877631 0.378808
vt 0.754160 0.830250
vt 0.740095 0.753776
vt 0.680113 0.787131
vt 0.731130 0.711247
vt 0.641087 0.728577
vt 0.634605 0.695724
vt 0.632083 0.778511
vt 0.568959 0.759512
vt 0.567474 0.717651
vt 0.655369 0.616583
vt 0.626989 0.663939
vt 0.596350 0.623616
vt 0.591128 0.687073
vt 0.528862 0.735063
vt 0.551065 0.671807
vt 0.836857 0.437492
vt 0.809273 0.722625
vt 0.810349 0.462577
vt 0.825740 0.674778
vt 0.605904 0.829383
vt 0.549582 0.865304
vt 0.552137 0.813951
vt 0.473443 0.856104
vt 0.481749 0.768854
vt 0.453707 0.686276
vt 0.501460 0.695933
vt 0.480429 0.665522
vt 0.530755 0.629669
vt 0.562260 0.589451
vt 0.603797 0.578095
vt 0.281892 0.749514
vt 0.239478 0.788081
vt 0.222395 0.687248
vt 0.311843 0.685830
vt 0.322843 0.755299
vt 0.301675 0.849514
vt 0.369157 0.679073
vt 0.437550 0.755348
vt 0.404129 0.814297
vt 0.368499 0.869814
vt 0.184544 0.846703
vt 0.100268 0.111111
vt 0.240400 0.618210
vt 0.193297 0.607498
vt 0.295670 0.634762
vt 0.397752 0.663007
vt 0.327642 0.915760
vt 0.149222 0.001013
vt 0.176517 0.094820
vt 0.096843 0.166055
vt 0.091532 0.764206
vt 0.065718 0.209941
vt 0.125596 0.722374
vt 0.126949 0.641756
vt 0.381046 0.528906
vt 0.378050 0.561549
vt 0.303579 0.528037
vt 0.334366 0.575083
vt 0.271347 0.542629
vt 0.406095 0.596828
vt 0.408030 0.498364
vt 0.474214 0.573633
vt 0.183942 0.555304
vt 0.237135 0.571639
vt 0.267069 0.459749
vt 0.237205 0.491650
vt 0.216789 0.524412
vt 0.296136 0.377662
vt 0.177622 0.441513
vt 0.329592 0.405101
vt 0.356674 0.481272
vt 0.528303 0.561933
vt 0.463617 0.609912
vt 0.444967 0.576435
vt 0.439047 0.642826
vt 0.151489 0.553230
vt 0.069937 0.575992
vt 0.107339 0.533607
vt 0.068853 0.698656
vt 0.028916 0.255813
vt 0.046404 0.301212
vt 0.000499 0.338037
vt 0.008504 0.337678
vt 0.020072 0.613324
vt 0.012624 0.558057
vt 0.000002 0.379157
vt 0.321326 0.167058
vt 0.295516 0.239078
vt 0.072241 0.511971
vt 0.068499 0.372416
vt 0.143791 0.613958
vt 0.066132 0.416941
vt 0.049177 0.402830
vt 0.378072 0.153211
vt 0.107544 0.324434
vt 0.464432 0.206859
vt 0.438404 0.166457
vt 0.375632 0.231755
vt 0.442784 0.263367
vt 0.414313 0.294282
vt 0.315023 0.316474
vt 0.119107 0.449306
vt 0.144871 0.492793
s 0
usemtl DefaultMaterial.001
f 1/1/1 2/2/2 3/3/3
f 3/3/3 4/4/4 5/5/5
f 2/2/2 6/6/6 3/3/3
f 5/5/5 7/7/7 8/8/8
f 5/5/5 8/8/9 9/9/10
f 3/3/3 10/10/11 4/4/4
f 10/10/11 11/11/12 4/4/4
f 12/12/13 13/14/14 14/15/15
f 13/14/14 1/1/1 14/15/15
f 12/12/13 14/15/15 15/16/16
f 16/17/17 17/18/18 13/13/14
f 18/19/19 17/18/18 16/17/17
f 17/18/18 19/20/20 1/1/1
f 6/6/6 20/21/21 10/10/11
f 21/22/22 6/6/6 2/2/2
f 22/23/23 20/21/24 21/22/22
f 10/10/11 23/24/25 11/11/12
f 11/11/12 24/25/26 4/4/4
f 25/26/27 26/27/28 27/28/29
f 25/26/27 27/28/29 28/29/30
f 9/9/10 8/8/9 29/30/31
f 30/31/32 5/5/5 31/32/33
f 31/32/33 29/30/31 32/33/34
f 14/15/15 33/34/35 30/31/32
f 30/31/32 31/32/33 34/35/36
f 35/36/37 36/37/38 37/38/39
f 36/37/38 38/40/40 39/41/41
f 40/42/42 41/43/43 35/36/37
f 41/43/43 42/44/44 43/45/45
f 42/44/44 44/48/46 43/45/45
f 41/43/43 45/49/47 42/44/44
f 15/16/16 46/50/48 12/12/13
f 34/35/36 37/38/39 15/16/16
f 15/16/16 37/38/39 46/50/48
f 31/32/33 35/36/37 34/35/36
f 32/33/34 35/36/37 31/32/33
f 32/33/34 40/42/42 35/36/37
f 47/52/49 48/53/50 40/42/42
f 41/43/43 48/53/50 49/55/51
f 48/53/50 41/43/43 40/42/42
f 49/55/51 50/58/52 45/49/47
f 50/56/52 51/59/53 52/61/54
f 50/56/52 53/62/55 51/59/53
f 45/49/47 52/60/54 54/64/56
f 42/44/44 45/49/47 54/64/56
f 42/44/44 54/64/56 44/48/46
f 44/47/46 55/65/57 56/68/58
f 44/47/46 56/68/58 57/69/59
f 56/68/58 58/70/60 57/69/59
f 59/71/61 57/69/59 60/72/62
f 39/41/41 61/73/63 12/12/13
f 38/39/40 59/71/61 61/74/63
f 62/75/64 63/76/65 64/77/66
f 63/76/65 65/78/67 64/77/66
f 64/77/66 65/78/67 66/79/68
f 64/77/66 66/79/68 18/19/19
f 67/80/69 68/81/70 69/82/71
f 70/83/72 71/84/73 72/85/74
f 18/19/19 71/84/73 70/83/72
f 65/78/67 69/82/71 73/86/75
f 69/82/71 74/87/76 75/88/77
f 76/90/78 62/75/64 77/92/79
f 13/13/14 77/92/79 16/17/17
f 61/74/63 63/76/80 62/75/64
f 12/12/13 61/73/63 76/89/78
f 60/72/62 78/93/81 63/76/80
f 60/72/62 57/69/59 79/94/82
f 60/72/62 79/94/82 78/93/81
f 78/93/81 80/95/83 68/81/70
f 79/94/82 81/96/84 80/95/83
f 80/95/83 82/97/85 74/87/76
f 74/87/76 83/98/86 84/99/87
f 84/99/87 83/98/86 85/100/88
f 75/88/77 85/100/88 86/101/89
f 73/86/75 75/88/77 86/101/90
f 72/85/74 86/101/89 87/102/91
f 88/103/92 72/85/74 87/102/91
f 88/103/92 87/102/91 21/22/22
f 70/83/72 72/85/74 88/103/92
f 17/18/18 70/83/72 19/20/20
f 77/92/79 64/77/66 16/17/17
f 89/104/93 90/105/94 91/106/95
f 92/107/96 93/108/97 89/104/93
f 89/104/93 93/108/97 94/109/98
f 95/110/99 96/111/100 93/108/97
f 93/108/97 96/111/100 97/112/101
f 93/108/97 97/112/102 98/113/103
f 94/109/104 99/114/105 90/105/94
f 93/108/97 98/113/103 94/109/98
f 100/116/106 91/106/95 101/117/107
f 102/118/108 92/107/96 91/106/95
f 102/118/108 95/110/99 92/107/96
f 83/98/86 96/111/100 103/119/109
f 96/111/100 82/97/85 97/112/102
f 82/97/85 80/95/83 81/96/84
f 97/112/102 81/96/84 98/113/103
f 104/120/110 56/68/58 55/65/57
f 98/113/103 58/70/60 56/68/58
f 104/121/110 55/66/57 105/122/111
f 105/122/111 55/66/57 54/63/56
f 105/122/111 54/63/56 52/61/54
f 99/115/105 105/122/111 106/123/112
f 106/123/112 51/59/53 107/125/113
f 90/105/94 107/124/113 108/126/114
f 109/127/115 91/106/95 108/126/114
f 101/117/107 91/106/95 109/127/115
f 110/128/116 111/129/117 112/130/118
f 112/130/118 113/131/119 114/132/120
f 110/128/116 115/133/121 111/129/117
f 111/129/117 115/133/121 113/131/119
f 116/134/122 117/135/123 110/128/116
f 118/136/124 119/137/125 101/117/107
f 119/137/125 114/132/120 100/116/106
f 119/137/125 100/116/106 101/117/107
f 120/138/126 112/130/118 121/139/127
f 122/140/128 114/132/120 119/137/125
f 123/142/129 120/138/126 121/139/127
f 124/143/130 125/144/131 120/138/126
f 23/24/25 116/134/122 125/144/131
f 124/143/130 24/25/26 23/24/25
f 116/134/122 20/21/24 22/23/23
f 22/23/23 117/135/123 116/134/122
f 22/23/23 126/145/132 117/135/123
f 117/135/123 87/102/91 86/101/90
f 127/146/133 128/147/134 86/101/89
f 128/147/134 127/146/133 115/133/121
f 127/146/133 85/100/88 129/148/135
f 129/148/135 85/100/88 83/98/86
f 103/119/109 129/148/135 83/98/86
f 113/131/119 103/119/109 95/110/99
f 130/149/136 131/150/137 132/151/138
f 133/153/139 134/154/140 135/155/141
f 109/127/115 135/157/141 131/150/137
f 131/150/137 136/158/142 137/162/143
f 135/156/141 138/163/144 136/159/145
f 101/117/107 130/149/136 118/136/124
f 109/127/115 139/164/146 101/117/107
f 108/126/114 133/152/139 109/127/115
f 108/126/114 107/124/113 133/152/139
f 107/125/113 53/62/55 134/154/140
f 138/163/144 47/51/49 140/165/147
f 141/168/148 48/54/50 138/163/144
f 143/170/149 47/52/49 32/33/34
f 32/33/34 142/169/150 143/170/149
f 142/169/150 29/30/31 144/171/151
f 140/167/147 142/169/150 144/171/151
f 144/171/151 145/172/152 146/173/153
f 137/161/143 144/171/151 28/29/30
f 123/141/129 147/174/154 26/27/28
f 123/141/129 26/27/28 124/143/130
f 132/151/138 137/162/143 148/176/155
f 33/34/35 1/1/1 3/3/3
f 1/1/1 19/20/20 2/2/2
f 3/3/3 6/6/6 10/10/11
f 30/31/32 33/34/35 5/5/5
f 33/34/35 3/3/3 5/5/5
f 31/32/33 5/5/5 9/9/10
f 5/5/5 4/4/4 7/7/7
f 13/13/14 17/18/18 1/1/1
f 88/103/92 21/22/22 19/20/20
f 21/22/22 2/2/2 19/20/20
f 87/102/91 126/145/132 21/22/22
f 126/145/132 22/23/23 21/22/22
f 21/22/22 20/21/21 6/6/6
f 11/11/12 23/24/25 24/25/26
f 10/10/11 20/21/24 23/24/25
f 25/26/27 24/25/26 124/143/130
f 25/26/27 124/143/130 26/27/28
f 4/4/4 24/25/26 25/26/27
f 8/8/8 7/7/7 25/26/27
f 7/7/7 4/4/4 25/26/27
f 146/173/153 25/26/27 28/29/30
f 8/8/8 25/26/27 146/173/153
f 145/172/152 8/8/8 146/173/153
f 29/30/31 8/8/8 145/172/152
f 31/32/33 9/9/10 29/30/31
f 29/30/31 145/172/152 144/171/151
f 14/15/15 1/1/1 33/34/35
f 15/16/16 14/15/15 30/31/32
f 35/36/37 41/43/43 36/37/38
f 36/37/38 43/45/45 38/40/40
f 37/38/39 36/37/38 39/41/41
f 36/37/38 41/43/43 43/45/45
f 43/46/45 44/47/46 57/69/59
f 41/43/43 49/55/51 45/49/47
f 12/12/13 46/50/48 39/41/156
f 30/31/32 34/35/36 15/16/16
f 34/35/36 35/36/37 37/38/39
f 29/30/31 142/169/150 32/33/34
f 113/131/119 102/118/108 100/116/106
f 100/116/106 114/132/120 113/131/119
f 32/33/34 47/52/157 40/42/42
f 48/54/50 53/62/55 50/57/52
f 48/54/50 141/168/148 53/62/55
f 49/55/51 48/53/50 50/58/52
f 45/49/47 50/58/52 52/60/54
f 44/48/46 54/64/56 55/67/57
f 59/71/61 43/46/45 57/69/59
f 38/39/40 43/46/45 59/71/61
f 39/41/41 38/40/40 61/73/63
f 46/50/48 37/38/39 39/41/41
f 61/74/63 59/71/61 60/72/62
f 16/17/17 64/77/66 18/19/19
f 63/76/65 78/93/81 67/80/69
f 67/80/69 78/93/81 68/81/70
f 65/78/67 67/80/69 69/82/71
f 63/76/65 67/80/69 65/78/67
f 18/19/19 66/79/68 71/84/73
f 71/84/73 66/79/68 73/86/75
f 69/82/71 68/81/70 74/87/76
f 73/86/75 69/82/71 75/88/77
f 66/79/68 65/78/67 73/86/75
f 12/12/13 76/89/78 77/91/79
f 12/12/13 77/91/79 13/14/14
f 76/90/78 61/74/63 62/75/64
f 61/74/63 60/72/62 63/76/65
f 57/69/59 58/70/60 79/94/82
f 78/93/81 79/94/82 80/95/83
f 68/81/70 80/95/83 74/87/76
f 74/87/76 82/97/85 83/98/86
f 75/88/77 74/87/76 84/99/87
f 75/88/77 84/99/87 85/100/88
f 72/85/74 71/84/73 86/101/89
f 71/84/73 73/86/75 86/101/90
f 17/18/18 18/19/19 70/83/72
f 19/20/20 70/83/72 88/103/92
f 77/92/79 62/75/64 64/77/66
f 91/106/95 92/107/96 89/104/93
f 90/105/94 89/104/93 94/109/104
f 92/107/96 95/110/99 93/108/97
f 99/114/105 94/109/104 104/120/110
f 94/109/98 98/113/103 104/120/110
f 100/116/106 102/118/108 91/106/95
f 103/119/109 96/111/100 95/110/99
f 96/111/100 83/98/86 82/97/85
f 97/112/102 82/97/85 81/96/84
f 81/96/84 79/94/82 58/70/60
f 98/113/103 81/96/84 58/70/60
f 104/120/110 98/113/103 56/68/58
f 99/115/105 104/121/110 105/122/111
f 106/123/112 52/61/54 51/59/53
f 106/123/112 105/122/111 52/61/54
f 91/106/95 90/105/94 108/126/114
f 90/105/94 99/114/105 107/124/113
f 107/125/113 99/115/105 106/123/112
f 120/138/126 110/128/116 112/130/118
f 112/130/118 111/129/117 113/131/119
f 120/138/126 125/144/131 110/128/116
f 125/144/131 116/134/122 110/128/116
f 110/128/116 128/147/134 115/133/121
f 110/128/116 117/135/123 128/147/134
f 122/140/128 121/139/127 114/132/120
f 118/136/124 122/140/128 119/137/125
f 121/139/127 112/130/118 114/132/120
f 123/141/129 124/143/130 120/138/126
f 125/144/131 124/143/130 23/24/25
f 116/134/122 23/24/25 20/21/21
f 117/135/123 126/145/132 87/102/91
f 128/147/134 117/135/123 86/101/89
f 127/146/133 86/101/90 85/100/88
f 115/133/121 127/146/133 129/148/135
f 113/131/119 115/133/121 103/119/109
f 115/133/121 129/148/135 103/119/109
f 130/149/136 148/176/155 122/140/128
f 122/140/128 118/136/124 130/149/136
f 113/131/119 95/110/99 102/118/108
f 130/149/136 139/164/146 131/150/137
f 139/164/146 109/127/115 131/150/137
f 132/151/138 131/150/137 137/162/143
f 109/127/115 133/152/139 135/157/141
f 134/154/140 53/62/55 141/168/148
f 134/154/140 141/168/148 138/163/144
f 135/156/141 134/154/140 138/163/144
f 131/150/137 135/157/141 136/158/145
f 137/161/143 136/160/145 144/171/151
f 136/159/145 138/163/144 140/166/147
f 101/117/107 139/164/146 130/149/136
f 133/153/139 107/125/113 134/154/140
f 107/125/113 51/59/53 53/62/55
f 138/163/144 48/54/50 47/51/49
f 140/167/147 47/52/49 143/170/149
f 140/167/147 143/170/149 142/169/150
f 136/160/145 140/167/147 144/171/151
f 28/29/30 144/171/151 146/173/153
f 27/28/29 137/161/143 28/29/30
f 147/174/154 137/161/143 27/28/29
f 147/174/154 27/28/29 26/27/28
f 121/139/127 122/140/128 148/176/155
f 148/176/155 137/162/143 147/175/154
f 123/142/129 148/176/155 147/175/154
f 121/139/127 148/176/155 123/142/129
f 148/176/155 130/149/136 132/151/138
